<mxfile host="app.diagrams.net" agent="Mozilla/5.0 (Windows NT 10.0; Win64; x64) AppleWebKit/537.36 (KHTML, like Gecko) Chrome/128.0.0.0 Safari/537.36" version="24.7.7" pages="2">
  <diagram id="R2lEEEUBdFMjLlhIrx00" name="ERD">
    <mxGraphModel dx="2633" dy="2562" grid="1" gridSize="10" guides="1" tooltips="1" connect="1" arrows="1" fold="1" page="1" pageScale="1" pageWidth="850" pageHeight="1100" math="0" shadow="0" extFonts="Permanent Marker^https://fonts.googleapis.com/css?family=Permanent+Marker">
      <root>
        <mxCell id="0" />
        <mxCell id="1" parent="0" />
        <mxCell id="C-vyLk0tnHw3VtMMgP7b-2" value="Orders" style="shape=table;startSize=30;container=1;collapsible=1;childLayout=tableLayout;fixedRows=1;rowLines=0;fontStyle=1;align=center;resizeLast=1;" parent="1" vertex="1">
          <mxGeometry x="-10" y="-610" width="250" height="280" as="geometry" />
        </mxCell>
        <mxCell id="C-vyLk0tnHw3VtMMgP7b-3" value="" style="shape=partialRectangle;collapsible=0;dropTarget=0;pointerEvents=0;fillColor=none;points=[[0,0.5],[1,0.5]];portConstraint=eastwest;top=0;left=0;right=0;bottom=1;" parent="C-vyLk0tnHw3VtMMgP7b-2" vertex="1">
          <mxGeometry y="30" width="250" height="30" as="geometry" />
        </mxCell>
        <mxCell id="C-vyLk0tnHw3VtMMgP7b-4" value="PK" style="shape=partialRectangle;overflow=hidden;connectable=0;fillColor=none;top=0;left=0;bottom=0;right=0;fontStyle=1;" parent="C-vyLk0tnHw3VtMMgP7b-3" vertex="1">
          <mxGeometry width="30" height="30" as="geometry">
            <mxRectangle width="30" height="30" as="alternateBounds" />
          </mxGeometry>
        </mxCell>
        <mxCell id="C-vyLk0tnHw3VtMMgP7b-5" value="Id" style="shape=partialRectangle;overflow=hidden;connectable=0;fillColor=none;top=0;left=0;bottom=0;right=0;align=left;spacingLeft=6;fontStyle=5;" parent="C-vyLk0tnHw3VtMMgP7b-3" vertex="1">
          <mxGeometry x="30" width="220" height="30" as="geometry">
            <mxRectangle width="220" height="30" as="alternateBounds" />
          </mxGeometry>
        </mxCell>
        <mxCell id="C-vyLk0tnHw3VtMMgP7b-6" value="" style="shape=partialRectangle;collapsible=0;dropTarget=0;pointerEvents=0;fillColor=none;points=[[0,0.5],[1,0.5]];portConstraint=eastwest;top=0;left=0;right=0;bottom=0;" parent="C-vyLk0tnHw3VtMMgP7b-2" vertex="1">
          <mxGeometry y="60" width="250" height="30" as="geometry" />
        </mxCell>
        <mxCell id="C-vyLk0tnHw3VtMMgP7b-7" value="" style="shape=partialRectangle;overflow=hidden;connectable=0;fillColor=none;top=0;left=0;bottom=0;right=0;" parent="C-vyLk0tnHw3VtMMgP7b-6" vertex="1">
          <mxGeometry width="30" height="30" as="geometry">
            <mxRectangle width="30" height="30" as="alternateBounds" />
          </mxGeometry>
        </mxCell>
        <mxCell id="C-vyLk0tnHw3VtMMgP7b-8" value="TotalPrice" style="shape=partialRectangle;overflow=hidden;connectable=0;fillColor=none;top=0;left=0;bottom=0;right=0;align=left;spacingLeft=6;" parent="C-vyLk0tnHw3VtMMgP7b-6" vertex="1">
          <mxGeometry x="30" width="220" height="30" as="geometry">
            <mxRectangle width="220" height="30" as="alternateBounds" />
          </mxGeometry>
        </mxCell>
        <mxCell id="C-vyLk0tnHw3VtMMgP7b-9" value="" style="shape=partialRectangle;collapsible=0;dropTarget=0;pointerEvents=0;fillColor=none;points=[[0,0.5],[1,0.5]];portConstraint=eastwest;top=0;left=0;right=0;bottom=0;" parent="C-vyLk0tnHw3VtMMgP7b-2" vertex="1">
          <mxGeometry y="90" width="250" height="30" as="geometry" />
        </mxCell>
        <mxCell id="C-vyLk0tnHw3VtMMgP7b-10" value="" style="shape=partialRectangle;overflow=hidden;connectable=0;fillColor=none;top=0;left=0;bottom=0;right=0;" parent="C-vyLk0tnHw3VtMMgP7b-9" vertex="1">
          <mxGeometry width="30" height="30" as="geometry">
            <mxRectangle width="30" height="30" as="alternateBounds" />
          </mxGeometry>
        </mxCell>
        <mxCell id="C-vyLk0tnHw3VtMMgP7b-11" value="ProductId" style="shape=partialRectangle;overflow=hidden;connectable=0;fillColor=none;top=0;left=0;bottom=0;right=0;align=left;spacingLeft=6;" parent="C-vyLk0tnHw3VtMMgP7b-9" vertex="1">
          <mxGeometry x="30" width="220" height="30" as="geometry">
            <mxRectangle width="220" height="30" as="alternateBounds" />
          </mxGeometry>
        </mxCell>
        <mxCell id="dG1rvmGHPo0hxSBDHyah-11" value="" style="shape=partialRectangle;collapsible=0;dropTarget=0;pointerEvents=0;fillColor=none;points=[[0,0.5],[1,0.5]];portConstraint=eastwest;top=0;left=0;right=0;bottom=0;" parent="C-vyLk0tnHw3VtMMgP7b-2" vertex="1">
          <mxGeometry y="120" width="250" height="30" as="geometry" />
        </mxCell>
        <mxCell id="dG1rvmGHPo0hxSBDHyah-12" value="" style="shape=partialRectangle;overflow=hidden;connectable=0;fillColor=none;top=0;left=0;bottom=0;right=0;" parent="dG1rvmGHPo0hxSBDHyah-11" vertex="1">
          <mxGeometry width="30" height="30" as="geometry">
            <mxRectangle width="30" height="30" as="alternateBounds" />
          </mxGeometry>
        </mxCell>
        <mxCell id="dG1rvmGHPo0hxSBDHyah-13" value="PaymentMethod" style="shape=partialRectangle;overflow=hidden;connectable=0;fillColor=none;top=0;left=0;bottom=0;right=0;align=left;spacingLeft=6;" parent="dG1rvmGHPo0hxSBDHyah-11" vertex="1">
          <mxGeometry x="30" width="220" height="30" as="geometry">
            <mxRectangle width="220" height="30" as="alternateBounds" />
          </mxGeometry>
        </mxCell>
        <mxCell id="dG1rvmGHPo0hxSBDHyah-14" value="" style="shape=partialRectangle;collapsible=0;dropTarget=0;pointerEvents=0;fillColor=none;points=[[0,0.5],[1,0.5]];portConstraint=eastwest;top=0;left=0;right=0;bottom=0;" parent="C-vyLk0tnHw3VtMMgP7b-2" vertex="1">
          <mxGeometry y="150" width="250" height="30" as="geometry" />
        </mxCell>
        <mxCell id="dG1rvmGHPo0hxSBDHyah-15" value="" style="shape=partialRectangle;overflow=hidden;connectable=0;fillColor=none;top=0;left=0;bottom=0;right=0;" parent="dG1rvmGHPo0hxSBDHyah-14" vertex="1">
          <mxGeometry width="30" height="30" as="geometry">
            <mxRectangle width="30" height="30" as="alternateBounds" />
          </mxGeometry>
        </mxCell>
        <mxCell id="dG1rvmGHPo0hxSBDHyah-16" value="PaymentStatus" style="shape=partialRectangle;overflow=hidden;connectable=0;fillColor=none;top=0;left=0;bottom=0;right=0;align=left;spacingLeft=6;" parent="dG1rvmGHPo0hxSBDHyah-14" vertex="1">
          <mxGeometry x="30" width="220" height="30" as="geometry">
            <mxRectangle width="220" height="30" as="alternateBounds" />
          </mxGeometry>
        </mxCell>
        <mxCell id="dG1rvmGHPo0hxSBDHyah-17" value="" style="shape=partialRectangle;collapsible=0;dropTarget=0;pointerEvents=0;fillColor=none;points=[[0,0.5],[1,0.5]];portConstraint=eastwest;top=0;left=0;right=0;bottom=0;" parent="C-vyLk0tnHw3VtMMgP7b-2" vertex="1">
          <mxGeometry y="180" width="250" height="30" as="geometry" />
        </mxCell>
        <mxCell id="dG1rvmGHPo0hxSBDHyah-18" value="" style="shape=partialRectangle;overflow=hidden;connectable=0;fillColor=none;top=0;left=0;bottom=0;right=0;" parent="dG1rvmGHPo0hxSBDHyah-17" vertex="1">
          <mxGeometry width="30" height="30" as="geometry">
            <mxRectangle width="30" height="30" as="alternateBounds" />
          </mxGeometry>
        </mxCell>
        <mxCell id="dG1rvmGHPo0hxSBDHyah-19" value="OrderStatus" style="shape=partialRectangle;overflow=hidden;connectable=0;fillColor=none;top=0;left=0;bottom=0;right=0;align=left;spacingLeft=6;" parent="dG1rvmGHPo0hxSBDHyah-17" vertex="1">
          <mxGeometry x="30" width="220" height="30" as="geometry">
            <mxRectangle width="220" height="30" as="alternateBounds" />
          </mxGeometry>
        </mxCell>
        <mxCell id="dG1rvmGHPo0hxSBDHyah-23" value="" style="shape=partialRectangle;collapsible=0;dropTarget=0;pointerEvents=0;fillColor=none;points=[[0,0.5],[1,0.5]];portConstraint=eastwest;top=0;left=0;right=0;bottom=0;" parent="C-vyLk0tnHw3VtMMgP7b-2" vertex="1">
          <mxGeometry y="210" width="250" height="30" as="geometry" />
        </mxCell>
        <mxCell id="dG1rvmGHPo0hxSBDHyah-24" value="" style="shape=partialRectangle;overflow=hidden;connectable=0;fillColor=none;top=0;left=0;bottom=0;right=0;" parent="dG1rvmGHPo0hxSBDHyah-23" vertex="1">
          <mxGeometry width="30" height="30" as="geometry">
            <mxRectangle width="30" height="30" as="alternateBounds" />
          </mxGeometry>
        </mxCell>
        <mxCell id="dG1rvmGHPo0hxSBDHyah-25" value="CreateAt" style="shape=partialRectangle;overflow=hidden;connectable=0;fillColor=none;top=0;left=0;bottom=0;right=0;align=left;spacingLeft=6;" parent="dG1rvmGHPo0hxSBDHyah-23" vertex="1">
          <mxGeometry x="30" width="220" height="30" as="geometry">
            <mxRectangle width="220" height="30" as="alternateBounds" />
          </mxGeometry>
        </mxCell>
        <mxCell id="lQ6aluvmCR328Puw67HA-119" value="" style="shape=partialRectangle;collapsible=0;dropTarget=0;pointerEvents=0;fillColor=none;points=[[0,0.5],[1,0.5]];portConstraint=eastwest;top=0;left=0;right=0;bottom=0;" parent="C-vyLk0tnHw3VtMMgP7b-2" vertex="1">
          <mxGeometry y="240" width="250" height="30" as="geometry" />
        </mxCell>
        <mxCell id="lQ6aluvmCR328Puw67HA-120" value="FK" style="shape=partialRectangle;overflow=hidden;connectable=0;fillColor=none;top=0;left=0;bottom=0;right=0;" parent="lQ6aluvmCR328Puw67HA-119" vertex="1">
          <mxGeometry width="30" height="30" as="geometry">
            <mxRectangle width="30" height="30" as="alternateBounds" />
          </mxGeometry>
        </mxCell>
        <mxCell id="lQ6aluvmCR328Puw67HA-121" value="CartId" style="shape=partialRectangle;overflow=hidden;connectable=0;fillColor=none;top=0;left=0;bottom=0;right=0;align=left;spacingLeft=6;" parent="lQ6aluvmCR328Puw67HA-119" vertex="1">
          <mxGeometry x="30" width="220" height="30" as="geometry">
            <mxRectangle width="220" height="30" as="alternateBounds" />
          </mxGeometry>
        </mxCell>
        <mxCell id="C-vyLk0tnHw3VtMMgP7b-13" value="Products" style="shape=table;startSize=30;container=1;collapsible=1;childLayout=tableLayout;fixedRows=1;rowLines=0;fontStyle=1;align=center;resizeLast=1;" parent="1" vertex="1">
          <mxGeometry x="-480" y="-200" width="250" height="430" as="geometry" />
        </mxCell>
        <mxCell id="C-vyLk0tnHw3VtMMgP7b-14" value="" style="shape=partialRectangle;collapsible=0;dropTarget=0;pointerEvents=0;fillColor=none;points=[[0,0.5],[1,0.5]];portConstraint=eastwest;top=0;left=0;right=0;bottom=1;" parent="C-vyLk0tnHw3VtMMgP7b-13" vertex="1">
          <mxGeometry y="30" width="250" height="30" as="geometry" />
        </mxCell>
        <mxCell id="C-vyLk0tnHw3VtMMgP7b-15" value="PK" style="shape=partialRectangle;overflow=hidden;connectable=0;fillColor=none;top=0;left=0;bottom=0;right=0;fontStyle=1;" parent="C-vyLk0tnHw3VtMMgP7b-14" vertex="1">
          <mxGeometry width="30" height="30" as="geometry">
            <mxRectangle width="30" height="30" as="alternateBounds" />
          </mxGeometry>
        </mxCell>
        <mxCell id="C-vyLk0tnHw3VtMMgP7b-16" value="Id" style="shape=partialRectangle;overflow=hidden;connectable=0;fillColor=none;top=0;left=0;bottom=0;right=0;align=left;spacingLeft=6;fontStyle=5;" parent="C-vyLk0tnHw3VtMMgP7b-14" vertex="1">
          <mxGeometry x="30" width="220" height="30" as="geometry">
            <mxRectangle width="220" height="30" as="alternateBounds" />
          </mxGeometry>
        </mxCell>
        <mxCell id="C-vyLk0tnHw3VtMMgP7b-17" value="" style="shape=partialRectangle;collapsible=0;dropTarget=0;pointerEvents=0;fillColor=none;points=[[0,0.5],[1,0.5]];portConstraint=eastwest;top=0;left=0;right=0;bottom=0;" parent="C-vyLk0tnHw3VtMMgP7b-13" vertex="1">
          <mxGeometry y="60" width="250" height="30" as="geometry" />
        </mxCell>
        <mxCell id="C-vyLk0tnHw3VtMMgP7b-18" value="" style="shape=partialRectangle;overflow=hidden;connectable=0;fillColor=none;top=0;left=0;bottom=0;right=0;" parent="C-vyLk0tnHw3VtMMgP7b-17" vertex="1">
          <mxGeometry width="30" height="30" as="geometry">
            <mxRectangle width="30" height="30" as="alternateBounds" />
          </mxGeometry>
        </mxCell>
        <mxCell id="C-vyLk0tnHw3VtMMgP7b-19" value="Name" style="shape=partialRectangle;overflow=hidden;connectable=0;fillColor=none;top=0;left=0;bottom=0;right=0;align=left;spacingLeft=6;" parent="C-vyLk0tnHw3VtMMgP7b-17" vertex="1">
          <mxGeometry x="30" width="220" height="30" as="geometry">
            <mxRectangle width="220" height="30" as="alternateBounds" />
          </mxGeometry>
        </mxCell>
        <mxCell id="C-vyLk0tnHw3VtMMgP7b-20" value="" style="shape=partialRectangle;collapsible=0;dropTarget=0;pointerEvents=0;fillColor=none;points=[[0,0.5],[1,0.5]];portConstraint=eastwest;top=0;left=0;right=0;bottom=0;" parent="C-vyLk0tnHw3VtMMgP7b-13" vertex="1">
          <mxGeometry y="90" width="250" height="30" as="geometry" />
        </mxCell>
        <mxCell id="C-vyLk0tnHw3VtMMgP7b-21" value="" style="shape=partialRectangle;overflow=hidden;connectable=0;fillColor=none;top=0;left=0;bottom=0;right=0;" parent="C-vyLk0tnHw3VtMMgP7b-20" vertex="1">
          <mxGeometry width="30" height="30" as="geometry">
            <mxRectangle width="30" height="30" as="alternateBounds" />
          </mxGeometry>
        </mxCell>
        <mxCell id="C-vyLk0tnHw3VtMMgP7b-22" value="Price" style="shape=partialRectangle;overflow=hidden;connectable=0;fillColor=none;top=0;left=0;bottom=0;right=0;align=left;spacingLeft=6;" parent="C-vyLk0tnHw3VtMMgP7b-20" vertex="1">
          <mxGeometry x="30" width="220" height="30" as="geometry">
            <mxRectangle width="220" height="30" as="alternateBounds" />
          </mxGeometry>
        </mxCell>
        <mxCell id="1Dr5Wn48vp1fXAIpc7qz-26" value="" style="shape=partialRectangle;collapsible=0;dropTarget=0;pointerEvents=0;fillColor=none;points=[[0,0.5],[1,0.5]];portConstraint=eastwest;top=0;left=0;right=0;bottom=0;" parent="C-vyLk0tnHw3VtMMgP7b-13" vertex="1">
          <mxGeometry y="120" width="250" height="30" as="geometry" />
        </mxCell>
        <mxCell id="1Dr5Wn48vp1fXAIpc7qz-27" value="" style="shape=partialRectangle;overflow=hidden;connectable=0;fillColor=none;top=0;left=0;bottom=0;right=0;" parent="1Dr5Wn48vp1fXAIpc7qz-26" vertex="1">
          <mxGeometry width="30" height="30" as="geometry">
            <mxRectangle width="30" height="30" as="alternateBounds" />
          </mxGeometry>
        </mxCell>
        <mxCell id="1Dr5Wn48vp1fXAIpc7qz-28" value="Discount" style="shape=partialRectangle;overflow=hidden;connectable=0;fillColor=none;top=0;left=0;bottom=0;right=0;align=left;spacingLeft=6;" parent="1Dr5Wn48vp1fXAIpc7qz-26" vertex="1">
          <mxGeometry x="30" width="220" height="30" as="geometry">
            <mxRectangle width="220" height="30" as="alternateBounds" />
          </mxGeometry>
        </mxCell>
        <mxCell id="1Dr5Wn48vp1fXAIpc7qz-29" value="" style="shape=partialRectangle;collapsible=0;dropTarget=0;pointerEvents=0;fillColor=none;points=[[0,0.5],[1,0.5]];portConstraint=eastwest;top=0;left=0;right=0;bottom=0;" parent="C-vyLk0tnHw3VtMMgP7b-13" vertex="1">
          <mxGeometry y="150" width="250" height="30" as="geometry" />
        </mxCell>
        <mxCell id="1Dr5Wn48vp1fXAIpc7qz-30" value="" style="shape=partialRectangle;overflow=hidden;connectable=0;fillColor=none;top=0;left=0;bottom=0;right=0;" parent="1Dr5Wn48vp1fXAIpc7qz-29" vertex="1">
          <mxGeometry width="30" height="30" as="geometry">
            <mxRectangle width="30" height="30" as="alternateBounds" />
          </mxGeometry>
        </mxCell>
        <mxCell id="1Dr5Wn48vp1fXAIpc7qz-31" value="NumberOfLike" style="shape=partialRectangle;overflow=hidden;connectable=0;fillColor=none;top=0;left=0;bottom=0;right=0;align=left;spacingLeft=6;" parent="1Dr5Wn48vp1fXAIpc7qz-29" vertex="1">
          <mxGeometry x="30" width="220" height="30" as="geometry">
            <mxRectangle width="220" height="30" as="alternateBounds" />
          </mxGeometry>
        </mxCell>
        <mxCell id="1Dr5Wn48vp1fXAIpc7qz-35" value="" style="shape=partialRectangle;collapsible=0;dropTarget=0;pointerEvents=0;fillColor=none;points=[[0,0.5],[1,0.5]];portConstraint=eastwest;top=0;left=0;right=0;bottom=0;" parent="C-vyLk0tnHw3VtMMgP7b-13" vertex="1">
          <mxGeometry y="180" width="250" height="30" as="geometry" />
        </mxCell>
        <mxCell id="1Dr5Wn48vp1fXAIpc7qz-36" value="" style="shape=partialRectangle;overflow=hidden;connectable=0;fillColor=none;top=0;left=0;bottom=0;right=0;" parent="1Dr5Wn48vp1fXAIpc7qz-35" vertex="1">
          <mxGeometry width="30" height="30" as="geometry">
            <mxRectangle width="30" height="30" as="alternateBounds" />
          </mxGeometry>
        </mxCell>
        <mxCell id="1Dr5Wn48vp1fXAIpc7qz-37" value="NumberOfView" style="shape=partialRectangle;overflow=hidden;connectable=0;fillColor=none;top=0;left=0;bottom=0;right=0;align=left;spacingLeft=6;" parent="1Dr5Wn48vp1fXAIpc7qz-35" vertex="1">
          <mxGeometry x="30" width="220" height="30" as="geometry">
            <mxRectangle width="220" height="30" as="alternateBounds" />
          </mxGeometry>
        </mxCell>
        <mxCell id="1Dr5Wn48vp1fXAIpc7qz-38" value="" style="shape=partialRectangle;collapsible=0;dropTarget=0;pointerEvents=0;fillColor=none;points=[[0,0.5],[1,0.5]];portConstraint=eastwest;top=0;left=0;right=0;bottom=0;" parent="C-vyLk0tnHw3VtMMgP7b-13" vertex="1">
          <mxGeometry y="210" width="250" height="30" as="geometry" />
        </mxCell>
        <mxCell id="1Dr5Wn48vp1fXAIpc7qz-39" value="" style="shape=partialRectangle;overflow=hidden;connectable=0;fillColor=none;top=0;left=0;bottom=0;right=0;" parent="1Dr5Wn48vp1fXAIpc7qz-38" vertex="1">
          <mxGeometry width="30" height="30" as="geometry">
            <mxRectangle width="30" height="30" as="alternateBounds" />
          </mxGeometry>
        </mxCell>
        <mxCell id="1Dr5Wn48vp1fXAIpc7qz-40" value="NumberOfPlay" style="shape=partialRectangle;overflow=hidden;connectable=0;fillColor=none;top=0;left=0;bottom=0;right=0;align=left;spacingLeft=6;" parent="1Dr5Wn48vp1fXAIpc7qz-38" vertex="1">
          <mxGeometry x="30" width="220" height="30" as="geometry">
            <mxRectangle width="220" height="30" as="alternateBounds" />
          </mxGeometry>
        </mxCell>
        <mxCell id="1Dr5Wn48vp1fXAIpc7qz-51" value="" style="shape=partialRectangle;collapsible=0;dropTarget=0;pointerEvents=0;fillColor=none;points=[[0,0.5],[1,0.5]];portConstraint=eastwest;top=0;left=0;right=0;bottom=0;" parent="C-vyLk0tnHw3VtMMgP7b-13" vertex="1">
          <mxGeometry y="240" width="250" height="30" as="geometry" />
        </mxCell>
        <mxCell id="1Dr5Wn48vp1fXAIpc7qz-52" value="" style="shape=partialRectangle;overflow=hidden;connectable=0;fillColor=none;top=0;left=0;bottom=0;right=0;" parent="1Dr5Wn48vp1fXAIpc7qz-51" vertex="1">
          <mxGeometry width="30" height="30" as="geometry">
            <mxRectangle width="30" height="30" as="alternateBounds" />
          </mxGeometry>
        </mxCell>
        <mxCell id="1Dr5Wn48vp1fXAIpc7qz-53" value="Description" style="shape=partialRectangle;overflow=hidden;connectable=0;fillColor=none;top=0;left=0;bottom=0;right=0;align=left;spacingLeft=6;" parent="1Dr5Wn48vp1fXAIpc7qz-51" vertex="1">
          <mxGeometry x="30" width="220" height="30" as="geometry">
            <mxRectangle width="220" height="30" as="alternateBounds" />
          </mxGeometry>
        </mxCell>
        <mxCell id="1Dr5Wn48vp1fXAIpc7qz-54" value="" style="shape=partialRectangle;collapsible=0;dropTarget=0;pointerEvents=0;fillColor=none;points=[[0,0.5],[1,0.5]];portConstraint=eastwest;top=0;left=0;right=0;bottom=0;" parent="C-vyLk0tnHw3VtMMgP7b-13" vertex="1">
          <mxGeometry y="270" width="250" height="30" as="geometry" />
        </mxCell>
        <mxCell id="1Dr5Wn48vp1fXAIpc7qz-55" value="" style="shape=partialRectangle;overflow=hidden;connectable=0;fillColor=none;top=0;left=0;bottom=0;right=0;" parent="1Dr5Wn48vp1fXAIpc7qz-54" vertex="1">
          <mxGeometry width="30" height="30" as="geometry">
            <mxRectangle width="30" height="30" as="alternateBounds" />
          </mxGeometry>
        </mxCell>
        <mxCell id="1Dr5Wn48vp1fXAIpc7qz-56" value="Platform" style="shape=partialRectangle;overflow=hidden;connectable=0;fillColor=none;top=0;left=0;bottom=0;right=0;align=left;spacingLeft=6;" parent="1Dr5Wn48vp1fXAIpc7qz-54" vertex="1">
          <mxGeometry x="30" width="220" height="30" as="geometry">
            <mxRectangle width="220" height="30" as="alternateBounds" />
          </mxGeometry>
        </mxCell>
        <mxCell id="1Dr5Wn48vp1fXAIpc7qz-60" value="" style="shape=partialRectangle;collapsible=0;dropTarget=0;pointerEvents=0;fillColor=none;points=[[0,0.5],[1,0.5]];portConstraint=eastwest;top=0;left=0;right=0;bottom=0;" parent="C-vyLk0tnHw3VtMMgP7b-13" vertex="1">
          <mxGeometry y="300" width="250" height="30" as="geometry" />
        </mxCell>
        <mxCell id="1Dr5Wn48vp1fXAIpc7qz-61" value="" style="shape=partialRectangle;overflow=hidden;connectable=0;fillColor=none;top=0;left=0;bottom=0;right=0;" parent="1Dr5Wn48vp1fXAIpc7qz-60" vertex="1">
          <mxGeometry width="30" height="30" as="geometry">
            <mxRectangle width="30" height="30" as="alternateBounds" />
          </mxGeometry>
        </mxCell>
        <mxCell id="1Dr5Wn48vp1fXAIpc7qz-62" value="Status" style="shape=partialRectangle;overflow=hidden;connectable=0;fillColor=none;top=0;left=0;bottom=0;right=0;align=left;spacingLeft=6;" parent="1Dr5Wn48vp1fXAIpc7qz-60" vertex="1">
          <mxGeometry x="30" width="220" height="30" as="geometry">
            <mxRectangle width="220" height="30" as="alternateBounds" />
          </mxGeometry>
        </mxCell>
        <mxCell id="1Dr5Wn48vp1fXAIpc7qz-48" value="" style="shape=partialRectangle;collapsible=0;dropTarget=0;pointerEvents=0;fillColor=none;points=[[0,0.5],[1,0.5]];portConstraint=eastwest;top=0;left=0;right=0;bottom=0;" parent="C-vyLk0tnHw3VtMMgP7b-13" vertex="1">
          <mxGeometry y="330" width="250" height="30" as="geometry" />
        </mxCell>
        <mxCell id="1Dr5Wn48vp1fXAIpc7qz-49" value="" style="shape=partialRectangle;overflow=hidden;connectable=0;fillColor=none;top=0;left=0;bottom=0;right=0;" parent="1Dr5Wn48vp1fXAIpc7qz-48" vertex="1">
          <mxGeometry width="30" height="30" as="geometry">
            <mxRectangle width="30" height="30" as="alternateBounds" />
          </mxGeometry>
        </mxCell>
        <mxCell id="1Dr5Wn48vp1fXAIpc7qz-50" value="UpdateAt" style="shape=partialRectangle;overflow=hidden;connectable=0;fillColor=none;top=0;left=0;bottom=0;right=0;align=left;spacingLeft=6;" parent="1Dr5Wn48vp1fXAIpc7qz-48" vertex="1">
          <mxGeometry x="30" width="220" height="30" as="geometry">
            <mxRectangle width="220" height="30" as="alternateBounds" />
          </mxGeometry>
        </mxCell>
        <mxCell id="1Dr5Wn48vp1fXAIpc7qz-45" value="" style="shape=partialRectangle;collapsible=0;dropTarget=0;pointerEvents=0;fillColor=none;points=[[0,0.5],[1,0.5]];portConstraint=eastwest;top=0;left=0;right=0;bottom=0;" parent="C-vyLk0tnHw3VtMMgP7b-13" vertex="1">
          <mxGeometry y="360" width="250" height="30" as="geometry" />
        </mxCell>
        <mxCell id="1Dr5Wn48vp1fXAIpc7qz-46" value="" style="shape=partialRectangle;overflow=hidden;connectable=0;fillColor=none;top=0;left=0;bottom=0;right=0;" parent="1Dr5Wn48vp1fXAIpc7qz-45" vertex="1">
          <mxGeometry width="30" height="30" as="geometry">
            <mxRectangle width="30" height="30" as="alternateBounds" />
          </mxGeometry>
        </mxCell>
        <mxCell id="1Dr5Wn48vp1fXAIpc7qz-47" value="CreateAt" style="shape=partialRectangle;overflow=hidden;connectable=0;fillColor=none;top=0;left=0;bottom=0;right=0;align=left;spacingLeft=6;" parent="1Dr5Wn48vp1fXAIpc7qz-45" vertex="1">
          <mxGeometry x="30" width="220" height="30" as="geometry">
            <mxRectangle width="220" height="30" as="alternateBounds" />
          </mxGeometry>
        </mxCell>
        <mxCell id="1Dr5Wn48vp1fXAIpc7qz-42" value="" style="shape=partialRectangle;collapsible=0;dropTarget=0;pointerEvents=0;fillColor=none;points=[[0,0.5],[1,0.5]];portConstraint=eastwest;top=0;left=0;right=0;bottom=0;" parent="C-vyLk0tnHw3VtMMgP7b-13" vertex="1">
          <mxGeometry y="390" width="250" height="30" as="geometry" />
        </mxCell>
        <mxCell id="1Dr5Wn48vp1fXAIpc7qz-43" value="FK" style="shape=partialRectangle;overflow=hidden;connectable=0;fillColor=none;top=0;left=0;bottom=0;right=0;" parent="1Dr5Wn48vp1fXAIpc7qz-42" vertex="1">
          <mxGeometry width="30" height="30" as="geometry">
            <mxRectangle width="30" height="30" as="alternateBounds" />
          </mxGeometry>
        </mxCell>
        <mxCell id="1Dr5Wn48vp1fXAIpc7qz-44" value="UserId" style="shape=partialRectangle;overflow=hidden;connectable=0;fillColor=none;top=0;left=0;bottom=0;right=0;align=left;spacingLeft=6;" parent="1Dr5Wn48vp1fXAIpc7qz-42" vertex="1">
          <mxGeometry x="30" width="220" height="30" as="geometry">
            <mxRectangle width="220" height="30" as="alternateBounds" />
          </mxGeometry>
        </mxCell>
        <mxCell id="C-vyLk0tnHw3VtMMgP7b-23" value="Users" style="shape=table;startSize=30;container=1;collapsible=1;childLayout=tableLayout;fixedRows=1;rowLines=0;fontStyle=1;align=center;resizeLast=1;" parent="1" vertex="1">
          <mxGeometry x="-1130" y="-500" width="250" height="370" as="geometry" />
        </mxCell>
        <mxCell id="C-vyLk0tnHw3VtMMgP7b-24" value="" style="shape=partialRectangle;collapsible=0;dropTarget=0;pointerEvents=0;fillColor=none;points=[[0,0.5],[1,0.5]];portConstraint=eastwest;top=0;left=0;right=0;bottom=1;" parent="C-vyLk0tnHw3VtMMgP7b-23" vertex="1">
          <mxGeometry y="30" width="250" height="30" as="geometry" />
        </mxCell>
        <mxCell id="C-vyLk0tnHw3VtMMgP7b-25" value="PK" style="shape=partialRectangle;overflow=hidden;connectable=0;fillColor=none;top=0;left=0;bottom=0;right=0;fontStyle=1;" parent="C-vyLk0tnHw3VtMMgP7b-24" vertex="1">
          <mxGeometry width="30" height="30" as="geometry">
            <mxRectangle width="30" height="30" as="alternateBounds" />
          </mxGeometry>
        </mxCell>
        <mxCell id="C-vyLk0tnHw3VtMMgP7b-26" value="Id" style="shape=partialRectangle;overflow=hidden;connectable=0;fillColor=none;top=0;left=0;bottom=0;right=0;align=left;spacingLeft=6;fontStyle=5;" parent="C-vyLk0tnHw3VtMMgP7b-24" vertex="1">
          <mxGeometry x="30" width="220" height="30" as="geometry">
            <mxRectangle width="220" height="30" as="alternateBounds" />
          </mxGeometry>
        </mxCell>
        <mxCell id="C-vyLk0tnHw3VtMMgP7b-27" value="" style="shape=partialRectangle;collapsible=0;dropTarget=0;pointerEvents=0;fillColor=none;points=[[0,0.5],[1,0.5]];portConstraint=eastwest;top=0;left=0;right=0;bottom=0;" parent="C-vyLk0tnHw3VtMMgP7b-23" vertex="1">
          <mxGeometry y="60" width="250" height="30" as="geometry" />
        </mxCell>
        <mxCell id="C-vyLk0tnHw3VtMMgP7b-28" value="" style="shape=partialRectangle;overflow=hidden;connectable=0;fillColor=none;top=0;left=0;bottom=0;right=0;" parent="C-vyLk0tnHw3VtMMgP7b-27" vertex="1">
          <mxGeometry width="30" height="30" as="geometry">
            <mxRectangle width="30" height="30" as="alternateBounds" />
          </mxGeometry>
        </mxCell>
        <mxCell id="C-vyLk0tnHw3VtMMgP7b-29" value="UserName" style="shape=partialRectangle;overflow=hidden;connectable=0;fillColor=none;top=0;left=0;bottom=0;right=0;align=left;spacingLeft=6;" parent="C-vyLk0tnHw3VtMMgP7b-27" vertex="1">
          <mxGeometry x="30" width="220" height="30" as="geometry">
            <mxRectangle width="220" height="30" as="alternateBounds" />
          </mxGeometry>
        </mxCell>
        <mxCell id="aXpIA_H2Vuaz1M_FIlEh-4" value="" style="shape=partialRectangle;collapsible=0;dropTarget=0;pointerEvents=0;fillColor=none;points=[[0,0.5],[1,0.5]];portConstraint=eastwest;top=0;left=0;right=0;bottom=0;" parent="C-vyLk0tnHw3VtMMgP7b-23" vertex="1">
          <mxGeometry y="90" width="250" height="30" as="geometry" />
        </mxCell>
        <mxCell id="aXpIA_H2Vuaz1M_FIlEh-5" value="" style="shape=partialRectangle;overflow=hidden;connectable=0;fillColor=none;top=0;left=0;bottom=0;right=0;" parent="aXpIA_H2Vuaz1M_FIlEh-4" vertex="1">
          <mxGeometry width="30" height="30" as="geometry">
            <mxRectangle width="30" height="30" as="alternateBounds" />
          </mxGeometry>
        </mxCell>
        <mxCell id="aXpIA_H2Vuaz1M_FIlEh-6" value="DisplayName" style="shape=partialRectangle;overflow=hidden;connectable=0;fillColor=none;top=0;left=0;bottom=0;right=0;align=left;spacingLeft=6;" parent="aXpIA_H2Vuaz1M_FIlEh-4" vertex="1">
          <mxGeometry x="30" width="220" height="30" as="geometry">
            <mxRectangle width="220" height="30" as="alternateBounds" />
          </mxGeometry>
        </mxCell>
        <mxCell id="aXpIA_H2Vuaz1M_FIlEh-1" value="" style="shape=partialRectangle;collapsible=0;dropTarget=0;pointerEvents=0;fillColor=none;points=[[0,0.5],[1,0.5]];portConstraint=eastwest;top=0;left=0;right=0;bottom=0;" parent="C-vyLk0tnHw3VtMMgP7b-23" vertex="1">
          <mxGeometry y="120" width="250" height="30" as="geometry" />
        </mxCell>
        <mxCell id="aXpIA_H2Vuaz1M_FIlEh-2" value="" style="shape=partialRectangle;overflow=hidden;connectable=0;fillColor=none;top=0;left=0;bottom=0;right=0;" parent="aXpIA_H2Vuaz1M_FIlEh-1" vertex="1">
          <mxGeometry width="30" height="30" as="geometry">
            <mxRectangle width="30" height="30" as="alternateBounds" />
          </mxGeometry>
        </mxCell>
        <mxCell id="aXpIA_H2Vuaz1M_FIlEh-3" value="Email" style="shape=partialRectangle;overflow=hidden;connectable=0;fillColor=none;top=0;left=0;bottom=0;right=0;align=left;spacingLeft=6;" parent="aXpIA_H2Vuaz1M_FIlEh-1" vertex="1">
          <mxGeometry x="30" width="220" height="30" as="geometry">
            <mxRectangle width="220" height="30" as="alternateBounds" />
          </mxGeometry>
        </mxCell>
        <mxCell id="aXpIA_H2Vuaz1M_FIlEh-7" value="" style="shape=partialRectangle;collapsible=0;dropTarget=0;pointerEvents=0;fillColor=none;points=[[0,0.5],[1,0.5]];portConstraint=eastwest;top=0;left=0;right=0;bottom=0;" parent="C-vyLk0tnHw3VtMMgP7b-23" vertex="1">
          <mxGeometry y="150" width="250" height="30" as="geometry" />
        </mxCell>
        <mxCell id="aXpIA_H2Vuaz1M_FIlEh-8" value="" style="shape=partialRectangle;overflow=hidden;connectable=0;fillColor=none;top=0;left=0;bottom=0;right=0;" parent="aXpIA_H2Vuaz1M_FIlEh-7" vertex="1">
          <mxGeometry width="30" height="30" as="geometry">
            <mxRectangle width="30" height="30" as="alternateBounds" />
          </mxGeometry>
        </mxCell>
        <mxCell id="aXpIA_H2Vuaz1M_FIlEh-9" value="PasswordHash" style="shape=partialRectangle;overflow=hidden;connectable=0;fillColor=none;top=0;left=0;bottom=0;right=0;align=left;spacingLeft=6;" parent="aXpIA_H2Vuaz1M_FIlEh-7" vertex="1">
          <mxGeometry x="30" width="220" height="30" as="geometry">
            <mxRectangle width="220" height="30" as="alternateBounds" />
          </mxGeometry>
        </mxCell>
        <mxCell id="aXpIA_H2Vuaz1M_FIlEh-10" value="" style="shape=partialRectangle;collapsible=0;dropTarget=0;pointerEvents=0;fillColor=none;points=[[0,0.5],[1,0.5]];portConstraint=eastwest;top=0;left=0;right=0;bottom=0;" parent="C-vyLk0tnHw3VtMMgP7b-23" vertex="1">
          <mxGeometry y="180" width="250" height="30" as="geometry" />
        </mxCell>
        <mxCell id="aXpIA_H2Vuaz1M_FIlEh-11" value="" style="shape=partialRectangle;overflow=hidden;connectable=0;fillColor=none;top=0;left=0;bottom=0;right=0;" parent="aXpIA_H2Vuaz1M_FIlEh-10" vertex="1">
          <mxGeometry width="30" height="30" as="geometry">
            <mxRectangle width="30" height="30" as="alternateBounds" />
          </mxGeometry>
        </mxCell>
        <mxCell id="aXpIA_H2Vuaz1M_FIlEh-12" value="Avatar" style="shape=partialRectangle;overflow=hidden;connectable=0;fillColor=none;top=0;left=0;bottom=0;right=0;align=left;spacingLeft=6;" parent="aXpIA_H2Vuaz1M_FIlEh-10" vertex="1">
          <mxGeometry x="30" width="220" height="30" as="geometry">
            <mxRectangle width="220" height="30" as="alternateBounds" />
          </mxGeometry>
        </mxCell>
        <mxCell id="aXpIA_H2Vuaz1M_FIlEh-16" value="" style="shape=partialRectangle;collapsible=0;dropTarget=0;pointerEvents=0;fillColor=none;points=[[0,0.5],[1,0.5]];portConstraint=eastwest;top=0;left=0;right=0;bottom=0;" parent="C-vyLk0tnHw3VtMMgP7b-23" vertex="1">
          <mxGeometry y="210" width="250" height="30" as="geometry" />
        </mxCell>
        <mxCell id="aXpIA_H2Vuaz1M_FIlEh-17" value="" style="shape=partialRectangle;overflow=hidden;connectable=0;fillColor=none;top=0;left=0;bottom=0;right=0;" parent="aXpIA_H2Vuaz1M_FIlEh-16" vertex="1">
          <mxGeometry width="30" height="30" as="geometry">
            <mxRectangle width="30" height="30" as="alternateBounds" />
          </mxGeometry>
        </mxCell>
        <mxCell id="aXpIA_H2Vuaz1M_FIlEh-18" value="Phone" style="shape=partialRectangle;overflow=hidden;connectable=0;fillColor=none;top=0;left=0;bottom=0;right=0;align=left;spacingLeft=6;" parent="aXpIA_H2Vuaz1M_FIlEh-16" vertex="1">
          <mxGeometry x="30" width="220" height="30" as="geometry">
            <mxRectangle width="220" height="30" as="alternateBounds" />
          </mxGeometry>
        </mxCell>
        <mxCell id="1Dr5Wn48vp1fXAIpc7qz-63" value="" style="shape=partialRectangle;collapsible=0;dropTarget=0;pointerEvents=0;fillColor=none;points=[[0,0.5],[1,0.5]];portConstraint=eastwest;top=0;left=0;right=0;bottom=0;" parent="C-vyLk0tnHw3VtMMgP7b-23" vertex="1">
          <mxGeometry y="240" width="250" height="30" as="geometry" />
        </mxCell>
        <mxCell id="1Dr5Wn48vp1fXAIpc7qz-64" value="" style="shape=partialRectangle;overflow=hidden;connectable=0;fillColor=none;top=0;left=0;bottom=0;right=0;" parent="1Dr5Wn48vp1fXAIpc7qz-63" vertex="1">
          <mxGeometry width="30" height="30" as="geometry">
            <mxRectangle width="30" height="30" as="alternateBounds" />
          </mxGeometry>
        </mxCell>
        <mxCell id="1Dr5Wn48vp1fXAIpc7qz-65" value="Status" style="shape=partialRectangle;overflow=hidden;connectable=0;fillColor=none;top=0;left=0;bottom=0;right=0;align=left;spacingLeft=6;" parent="1Dr5Wn48vp1fXAIpc7qz-63" vertex="1">
          <mxGeometry x="30" width="220" height="30" as="geometry">
            <mxRectangle width="220" height="30" as="alternateBounds" />
          </mxGeometry>
        </mxCell>
        <mxCell id="1Dr5Wn48vp1fXAIpc7qz-66" value="" style="shape=partialRectangle;collapsible=0;dropTarget=0;pointerEvents=0;fillColor=none;points=[[0,0.5],[1,0.5]];portConstraint=eastwest;top=0;left=0;right=0;bottom=0;" parent="C-vyLk0tnHw3VtMMgP7b-23" vertex="1">
          <mxGeometry y="270" width="250" height="30" as="geometry" />
        </mxCell>
        <mxCell id="1Dr5Wn48vp1fXAIpc7qz-67" value="" style="shape=partialRectangle;overflow=hidden;connectable=0;fillColor=none;top=0;left=0;bottom=0;right=0;" parent="1Dr5Wn48vp1fXAIpc7qz-66" vertex="1">
          <mxGeometry width="30" height="30" as="geometry">
            <mxRectangle width="30" height="30" as="alternateBounds" />
          </mxGeometry>
        </mxCell>
        <mxCell id="1Dr5Wn48vp1fXAIpc7qz-68" value="EmailConfirmation" style="shape=partialRectangle;overflow=hidden;connectable=0;fillColor=none;top=0;left=0;bottom=0;right=0;align=left;spacingLeft=6;" parent="1Dr5Wn48vp1fXAIpc7qz-66" vertex="1">
          <mxGeometry x="30" width="220" height="30" as="geometry">
            <mxRectangle width="220" height="30" as="alternateBounds" />
          </mxGeometry>
        </mxCell>
        <mxCell id="aXpIA_H2Vuaz1M_FIlEh-19" value="" style="shape=partialRectangle;collapsible=0;dropTarget=0;pointerEvents=0;fillColor=none;points=[[0,0.5],[1,0.5]];portConstraint=eastwest;top=0;left=0;right=0;bottom=0;" parent="C-vyLk0tnHw3VtMMgP7b-23" vertex="1">
          <mxGeometry y="300" width="250" height="30" as="geometry" />
        </mxCell>
        <mxCell id="aXpIA_H2Vuaz1M_FIlEh-20" value="" style="shape=partialRectangle;overflow=hidden;connectable=0;fillColor=none;top=0;left=0;bottom=0;right=0;" parent="aXpIA_H2Vuaz1M_FIlEh-19" vertex="1">
          <mxGeometry width="30" height="30" as="geometry">
            <mxRectangle width="30" height="30" as="alternateBounds" />
          </mxGeometry>
        </mxCell>
        <mxCell id="aXpIA_H2Vuaz1M_FIlEh-21" value="CreateAt" style="shape=partialRectangle;overflow=hidden;connectable=0;fillColor=none;top=0;left=0;bottom=0;right=0;align=left;spacingLeft=6;" parent="aXpIA_H2Vuaz1M_FIlEh-19" vertex="1">
          <mxGeometry x="30" width="220" height="30" as="geometry">
            <mxRectangle width="220" height="30" as="alternateBounds" />
          </mxGeometry>
        </mxCell>
        <mxCell id="1Dr5Wn48vp1fXAIpc7qz-1" value="" style="shape=partialRectangle;collapsible=0;dropTarget=0;pointerEvents=0;fillColor=none;points=[[0,0.5],[1,0.5]];portConstraint=eastwest;top=0;left=0;right=0;bottom=0;" parent="C-vyLk0tnHw3VtMMgP7b-23" vertex="1">
          <mxGeometry y="330" width="250" height="30" as="geometry" />
        </mxCell>
        <mxCell id="1Dr5Wn48vp1fXAIpc7qz-2" value="" style="shape=partialRectangle;overflow=hidden;connectable=0;fillColor=none;top=0;left=0;bottom=0;right=0;" parent="1Dr5Wn48vp1fXAIpc7qz-1" vertex="1">
          <mxGeometry width="30" height="30" as="geometry">
            <mxRectangle width="30" height="30" as="alternateBounds" />
          </mxGeometry>
        </mxCell>
        <mxCell id="1Dr5Wn48vp1fXAIpc7qz-3" value="UpdateAt" style="shape=partialRectangle;overflow=hidden;connectable=0;fillColor=none;top=0;left=0;bottom=0;right=0;align=left;spacingLeft=6;" parent="1Dr5Wn48vp1fXAIpc7qz-1" vertex="1">
          <mxGeometry x="30" width="220" height="30" as="geometry">
            <mxRectangle width="220" height="30" as="alternateBounds" />
          </mxGeometry>
        </mxCell>
        <mxCell id="NhydXZ_Yz9shMUNp317F-11" value="Links" style="shape=table;startSize=30;container=1;collapsible=1;childLayout=tableLayout;fixedRows=1;rowLines=0;fontStyle=1;align=center;resizeLast=1;" parent="1" vertex="1">
          <mxGeometry x="90" y="30" width="250" height="280" as="geometry" />
        </mxCell>
        <mxCell id="NhydXZ_Yz9shMUNp317F-12" value="" style="shape=partialRectangle;collapsible=0;dropTarget=0;pointerEvents=0;fillColor=none;points=[[0,0.5],[1,0.5]];portConstraint=eastwest;top=0;left=0;right=0;bottom=1;" parent="NhydXZ_Yz9shMUNp317F-11" vertex="1">
          <mxGeometry y="30" width="250" height="30" as="geometry" />
        </mxCell>
        <mxCell id="NhydXZ_Yz9shMUNp317F-13" value="PK" style="shape=partialRectangle;overflow=hidden;connectable=0;fillColor=none;top=0;left=0;bottom=0;right=0;fontStyle=1;" parent="NhydXZ_Yz9shMUNp317F-12" vertex="1">
          <mxGeometry width="30" height="30" as="geometry">
            <mxRectangle width="30" height="30" as="alternateBounds" />
          </mxGeometry>
        </mxCell>
        <mxCell id="NhydXZ_Yz9shMUNp317F-14" value="Id" style="shape=partialRectangle;overflow=hidden;connectable=0;fillColor=none;top=0;left=0;bottom=0;right=0;align=left;spacingLeft=6;fontStyle=5;" parent="NhydXZ_Yz9shMUNp317F-12" vertex="1">
          <mxGeometry x="30" width="220" height="30" as="geometry">
            <mxRectangle width="220" height="30" as="alternateBounds" />
          </mxGeometry>
        </mxCell>
        <mxCell id="lQ6aluvmCR328Puw67HA-58" value="" style="shape=partialRectangle;collapsible=0;dropTarget=0;pointerEvents=0;fillColor=none;points=[[0,0.5],[1,0.5]];portConstraint=eastwest;top=0;left=0;right=0;bottom=0;" parent="NhydXZ_Yz9shMUNp317F-11" vertex="1">
          <mxGeometry y="60" width="250" height="30" as="geometry" />
        </mxCell>
        <mxCell id="lQ6aluvmCR328Puw67HA-59" value="" style="shape=partialRectangle;overflow=hidden;connectable=0;fillColor=none;top=0;left=0;bottom=0;right=0;" parent="lQ6aluvmCR328Puw67HA-58" vertex="1">
          <mxGeometry width="30" height="30" as="geometry">
            <mxRectangle width="30" height="30" as="alternateBounds" />
          </mxGeometry>
        </mxCell>
        <mxCell id="lQ6aluvmCR328Puw67HA-60" value="ProviderName" style="shape=partialRectangle;overflow=hidden;connectable=0;fillColor=none;top=0;left=0;bottom=0;right=0;align=left;spacingLeft=6;" parent="lQ6aluvmCR328Puw67HA-58" vertex="1">
          <mxGeometry x="30" width="220" height="30" as="geometry">
            <mxRectangle width="220" height="30" as="alternateBounds" />
          </mxGeometry>
        </mxCell>
        <mxCell id="lQ6aluvmCR328Puw67HA-73" value="" style="shape=partialRectangle;collapsible=0;dropTarget=0;pointerEvents=0;fillColor=none;points=[[0,0.5],[1,0.5]];portConstraint=eastwest;top=0;left=0;right=0;bottom=0;" parent="NhydXZ_Yz9shMUNp317F-11" vertex="1">
          <mxGeometry y="90" width="250" height="30" as="geometry" />
        </mxCell>
        <mxCell id="lQ6aluvmCR328Puw67HA-74" value="" style="shape=partialRectangle;overflow=hidden;connectable=0;fillColor=none;top=0;left=0;bottom=0;right=0;" parent="lQ6aluvmCR328Puw67HA-73" vertex="1">
          <mxGeometry width="30" height="30" as="geometry">
            <mxRectangle width="30" height="30" as="alternateBounds" />
          </mxGeometry>
        </mxCell>
        <mxCell id="lQ6aluvmCR328Puw67HA-75" value="Type" style="shape=partialRectangle;overflow=hidden;connectable=0;fillColor=none;top=0;left=0;bottom=0;right=0;align=left;spacingLeft=6;" parent="lQ6aluvmCR328Puw67HA-73" vertex="1">
          <mxGeometry x="30" width="220" height="30" as="geometry">
            <mxRectangle width="220" height="30" as="alternateBounds" />
          </mxGeometry>
        </mxCell>
        <mxCell id="NhydXZ_Yz9shMUNp317F-18" value="" style="shape=partialRectangle;collapsible=0;dropTarget=0;pointerEvents=0;fillColor=none;points=[[0,0.5],[1,0.5]];portConstraint=eastwest;top=0;left=0;right=0;bottom=0;" parent="NhydXZ_Yz9shMUNp317F-11" vertex="1">
          <mxGeometry y="120" width="250" height="30" as="geometry" />
        </mxCell>
        <mxCell id="NhydXZ_Yz9shMUNp317F-19" value="" style="shape=partialRectangle;overflow=hidden;connectable=0;fillColor=none;top=0;left=0;bottom=0;right=0;" parent="NhydXZ_Yz9shMUNp317F-18" vertex="1">
          <mxGeometry width="30" height="30" as="geometry">
            <mxRectangle width="30" height="30" as="alternateBounds" />
          </mxGeometry>
        </mxCell>
        <mxCell id="NhydXZ_Yz9shMUNp317F-20" value="URL" style="shape=partialRectangle;overflow=hidden;connectable=0;fillColor=none;top=0;left=0;bottom=0;right=0;align=left;spacingLeft=6;" parent="NhydXZ_Yz9shMUNp317F-18" vertex="1">
          <mxGeometry x="30" width="220" height="30" as="geometry">
            <mxRectangle width="220" height="30" as="alternateBounds" />
          </mxGeometry>
        </mxCell>
        <mxCell id="NhydXZ_Yz9shMUNp317F-81" value="" style="shape=partialRectangle;collapsible=0;dropTarget=0;pointerEvents=0;fillColor=none;points=[[0,0.5],[1,0.5]];portConstraint=eastwest;top=0;left=0;right=0;bottom=0;" parent="NhydXZ_Yz9shMUNp317F-11" vertex="1">
          <mxGeometry y="150" width="250" height="30" as="geometry" />
        </mxCell>
        <mxCell id="NhydXZ_Yz9shMUNp317F-82" value="" style="shape=partialRectangle;overflow=hidden;connectable=0;fillColor=none;top=0;left=0;bottom=0;right=0;" parent="NhydXZ_Yz9shMUNp317F-81" vertex="1">
          <mxGeometry width="30" height="30" as="geometry">
            <mxRectangle width="30" height="30" as="alternateBounds" />
          </mxGeometry>
        </mxCell>
        <mxCell id="NhydXZ_Yz9shMUNp317F-83" value="Status" style="shape=partialRectangle;overflow=hidden;connectable=0;fillColor=none;top=0;left=0;bottom=0;right=0;align=left;spacingLeft=6;" parent="NhydXZ_Yz9shMUNp317F-81" vertex="1">
          <mxGeometry x="30" width="220" height="30" as="geometry">
            <mxRectangle width="220" height="30" as="alternateBounds" />
          </mxGeometry>
        </mxCell>
        <mxCell id="NhydXZ_Yz9shMUNp317F-84" value="" style="shape=partialRectangle;collapsible=0;dropTarget=0;pointerEvents=0;fillColor=none;points=[[0,0.5],[1,0.5]];portConstraint=eastwest;top=0;left=0;right=0;bottom=0;" parent="NhydXZ_Yz9shMUNp317F-11" vertex="1">
          <mxGeometry y="180" width="250" height="30" as="geometry" />
        </mxCell>
        <mxCell id="NhydXZ_Yz9shMUNp317F-85" value="" style="shape=partialRectangle;overflow=hidden;connectable=0;fillColor=none;top=0;left=0;bottom=0;right=0;" parent="NhydXZ_Yz9shMUNp317F-84" vertex="1">
          <mxGeometry width="30" height="30" as="geometry">
            <mxRectangle width="30" height="30" as="alternateBounds" />
          </mxGeometry>
        </mxCell>
        <mxCell id="NhydXZ_Yz9shMUNp317F-86" value="CreateAt" style="shape=partialRectangle;overflow=hidden;connectable=0;fillColor=none;top=0;left=0;bottom=0;right=0;align=left;spacingLeft=6;" parent="NhydXZ_Yz9shMUNp317F-84" vertex="1">
          <mxGeometry x="30" width="220" height="30" as="geometry">
            <mxRectangle width="220" height="30" as="alternateBounds" />
          </mxGeometry>
        </mxCell>
        <mxCell id="NhydXZ_Yz9shMUNp317F-87" value="" style="shape=partialRectangle;collapsible=0;dropTarget=0;pointerEvents=0;fillColor=none;points=[[0,0.5],[1,0.5]];portConstraint=eastwest;top=0;left=0;right=0;bottom=0;" parent="NhydXZ_Yz9shMUNp317F-11" vertex="1">
          <mxGeometry y="210" width="250" height="30" as="geometry" />
        </mxCell>
        <mxCell id="NhydXZ_Yz9shMUNp317F-88" value="" style="shape=partialRectangle;overflow=hidden;connectable=0;fillColor=none;top=0;left=0;bottom=0;right=0;" parent="NhydXZ_Yz9shMUNp317F-87" vertex="1">
          <mxGeometry width="30" height="30" as="geometry">
            <mxRectangle width="30" height="30" as="alternateBounds" />
          </mxGeometry>
        </mxCell>
        <mxCell id="NhydXZ_Yz9shMUNp317F-89" value="UpdateAt" style="shape=partialRectangle;overflow=hidden;connectable=0;fillColor=none;top=0;left=0;bottom=0;right=0;align=left;spacingLeft=6;" parent="NhydXZ_Yz9shMUNp317F-87" vertex="1">
          <mxGeometry x="30" width="220" height="30" as="geometry">
            <mxRectangle width="220" height="30" as="alternateBounds" />
          </mxGeometry>
        </mxCell>
        <mxCell id="lQ6aluvmCR328Puw67HA-76" value="" style="shape=partialRectangle;collapsible=0;dropTarget=0;pointerEvents=0;fillColor=none;points=[[0,0.5],[1,0.5]];portConstraint=eastwest;top=0;left=0;right=0;bottom=0;" parent="NhydXZ_Yz9shMUNp317F-11" vertex="1">
          <mxGeometry y="240" width="250" height="30" as="geometry" />
        </mxCell>
        <mxCell id="lQ6aluvmCR328Puw67HA-77" value="FK" style="shape=partialRectangle;overflow=hidden;connectable=0;fillColor=none;top=0;left=0;bottom=0;right=0;" parent="lQ6aluvmCR328Puw67HA-76" vertex="1">
          <mxGeometry width="30" height="30" as="geometry">
            <mxRectangle width="30" height="30" as="alternateBounds" />
          </mxGeometry>
        </mxCell>
        <mxCell id="lQ6aluvmCR328Puw67HA-78" value="ProductId" style="shape=partialRectangle;overflow=hidden;connectable=0;fillColor=none;top=0;left=0;bottom=0;right=0;align=left;spacingLeft=6;" parent="lQ6aluvmCR328Puw67HA-76" vertex="1">
          <mxGeometry x="30" width="220" height="30" as="geometry">
            <mxRectangle width="220" height="30" as="alternateBounds" />
          </mxGeometry>
        </mxCell>
        <mxCell id="NhydXZ_Yz9shMUNp317F-21" value="Roles" style="shape=table;startSize=30;container=1;collapsible=1;childLayout=tableLayout;fixedRows=1;rowLines=0;fontStyle=1;align=center;resizeLast=1;" parent="1" vertex="1">
          <mxGeometry x="-1560" y="-350" width="250" height="100" as="geometry" />
        </mxCell>
        <mxCell id="NhydXZ_Yz9shMUNp317F-22" value="" style="shape=partialRectangle;collapsible=0;dropTarget=0;pointerEvents=0;fillColor=none;points=[[0,0.5],[1,0.5]];portConstraint=eastwest;top=0;left=0;right=0;bottom=1;" parent="NhydXZ_Yz9shMUNp317F-21" vertex="1">
          <mxGeometry y="30" width="250" height="30" as="geometry" />
        </mxCell>
        <mxCell id="NhydXZ_Yz9shMUNp317F-23" value="PK" style="shape=partialRectangle;overflow=hidden;connectable=0;fillColor=none;top=0;left=0;bottom=0;right=0;fontStyle=1;" parent="NhydXZ_Yz9shMUNp317F-22" vertex="1">
          <mxGeometry width="30" height="30" as="geometry">
            <mxRectangle width="30" height="30" as="alternateBounds" />
          </mxGeometry>
        </mxCell>
        <mxCell id="NhydXZ_Yz9shMUNp317F-24" value="Id" style="shape=partialRectangle;overflow=hidden;connectable=0;fillColor=none;top=0;left=0;bottom=0;right=0;align=left;spacingLeft=6;fontStyle=5;" parent="NhydXZ_Yz9shMUNp317F-22" vertex="1">
          <mxGeometry x="30" width="220" height="30" as="geometry">
            <mxRectangle width="220" height="30" as="alternateBounds" />
          </mxGeometry>
        </mxCell>
        <mxCell id="NhydXZ_Yz9shMUNp317F-25" value="" style="shape=partialRectangle;collapsible=0;dropTarget=0;pointerEvents=0;fillColor=none;points=[[0,0.5],[1,0.5]];portConstraint=eastwest;top=0;left=0;right=0;bottom=0;" parent="NhydXZ_Yz9shMUNp317F-21" vertex="1">
          <mxGeometry y="60" width="250" height="30" as="geometry" />
        </mxCell>
        <mxCell id="NhydXZ_Yz9shMUNp317F-26" value="" style="shape=partialRectangle;overflow=hidden;connectable=0;fillColor=none;top=0;left=0;bottom=0;right=0;" parent="NhydXZ_Yz9shMUNp317F-25" vertex="1">
          <mxGeometry width="30" height="30" as="geometry">
            <mxRectangle width="30" height="30" as="alternateBounds" />
          </mxGeometry>
        </mxCell>
        <mxCell id="NhydXZ_Yz9shMUNp317F-27" value="RoleName" style="shape=partialRectangle;overflow=hidden;connectable=0;fillColor=none;top=0;left=0;bottom=0;right=0;align=left;spacingLeft=6;" parent="NhydXZ_Yz9shMUNp317F-25" vertex="1">
          <mxGeometry x="30" width="220" height="30" as="geometry">
            <mxRectangle width="220" height="30" as="alternateBounds" />
          </mxGeometry>
        </mxCell>
        <mxCell id="NhydXZ_Yz9shMUNp317F-31" value="Categories" style="shape=table;startSize=30;container=1;collapsible=1;childLayout=tableLayout;fixedRows=1;rowLines=0;fontStyle=1;align=center;resizeLast=1;" parent="1" vertex="1">
          <mxGeometry x="450" y="-240" width="250" height="160" as="geometry" />
        </mxCell>
        <mxCell id="NhydXZ_Yz9shMUNp317F-32" value="" style="shape=partialRectangle;collapsible=0;dropTarget=0;pointerEvents=0;fillColor=none;points=[[0,0.5],[1,0.5]];portConstraint=eastwest;top=0;left=0;right=0;bottom=1;" parent="NhydXZ_Yz9shMUNp317F-31" vertex="1">
          <mxGeometry y="30" width="250" height="30" as="geometry" />
        </mxCell>
        <mxCell id="NhydXZ_Yz9shMUNp317F-33" value="PK" style="shape=partialRectangle;overflow=hidden;connectable=0;fillColor=none;top=0;left=0;bottom=0;right=0;fontStyle=1;" parent="NhydXZ_Yz9shMUNp317F-32" vertex="1">
          <mxGeometry width="30" height="30" as="geometry">
            <mxRectangle width="30" height="30" as="alternateBounds" />
          </mxGeometry>
        </mxCell>
        <mxCell id="NhydXZ_Yz9shMUNp317F-34" value="Id" style="shape=partialRectangle;overflow=hidden;connectable=0;fillColor=none;top=0;left=0;bottom=0;right=0;align=left;spacingLeft=6;fontStyle=5;" parent="NhydXZ_Yz9shMUNp317F-32" vertex="1">
          <mxGeometry x="30" width="220" height="30" as="geometry">
            <mxRectangle width="220" height="30" as="alternateBounds" />
          </mxGeometry>
        </mxCell>
        <mxCell id="NhydXZ_Yz9shMUNp317F-35" value="" style="shape=partialRectangle;collapsible=0;dropTarget=0;pointerEvents=0;fillColor=none;points=[[0,0.5],[1,0.5]];portConstraint=eastwest;top=0;left=0;right=0;bottom=0;" parent="NhydXZ_Yz9shMUNp317F-31" vertex="1">
          <mxGeometry y="60" width="250" height="30" as="geometry" />
        </mxCell>
        <mxCell id="NhydXZ_Yz9shMUNp317F-36" value="" style="shape=partialRectangle;overflow=hidden;connectable=0;fillColor=none;top=0;left=0;bottom=0;right=0;" parent="NhydXZ_Yz9shMUNp317F-35" vertex="1">
          <mxGeometry width="30" height="30" as="geometry">
            <mxRectangle width="30" height="30" as="alternateBounds" />
          </mxGeometry>
        </mxCell>
        <mxCell id="NhydXZ_Yz9shMUNp317F-37" value="Name" style="shape=partialRectangle;overflow=hidden;connectable=0;fillColor=none;top=0;left=0;bottom=0;right=0;align=left;spacingLeft=6;" parent="NhydXZ_Yz9shMUNp317F-35" vertex="1">
          <mxGeometry x="30" width="220" height="30" as="geometry">
            <mxRectangle width="220" height="30" as="alternateBounds" />
          </mxGeometry>
        </mxCell>
        <mxCell id="NhydXZ_Yz9shMUNp317F-38" value="" style="shape=partialRectangle;collapsible=0;dropTarget=0;pointerEvents=0;fillColor=none;points=[[0,0.5],[1,0.5]];portConstraint=eastwest;top=0;left=0;right=0;bottom=0;" parent="NhydXZ_Yz9shMUNp317F-31" vertex="1">
          <mxGeometry y="90" width="250" height="30" as="geometry" />
        </mxCell>
        <mxCell id="NhydXZ_Yz9shMUNp317F-39" value="" style="shape=partialRectangle;overflow=hidden;connectable=0;fillColor=none;top=0;left=0;bottom=0;right=0;" parent="NhydXZ_Yz9shMUNp317F-38" vertex="1">
          <mxGeometry width="30" height="30" as="geometry">
            <mxRectangle width="30" height="30" as="alternateBounds" />
          </mxGeometry>
        </mxCell>
        <mxCell id="NhydXZ_Yz9shMUNp317F-40" value="Description" style="shape=partialRectangle;overflow=hidden;connectable=0;fillColor=none;top=0;left=0;bottom=0;right=0;align=left;spacingLeft=6;" parent="NhydXZ_Yz9shMUNp317F-38" vertex="1">
          <mxGeometry x="30" width="220" height="30" as="geometry">
            <mxRectangle width="220" height="30" as="alternateBounds" />
          </mxGeometry>
        </mxCell>
        <mxCell id="lQ6aluvmCR328Puw67HA-27" value="" style="shape=partialRectangle;collapsible=0;dropTarget=0;pointerEvents=0;fillColor=none;points=[[0,0.5],[1,0.5]];portConstraint=eastwest;top=0;left=0;right=0;bottom=0;" parent="NhydXZ_Yz9shMUNp317F-31" vertex="1">
          <mxGeometry y="120" width="250" height="30" as="geometry" />
        </mxCell>
        <mxCell id="lQ6aluvmCR328Puw67HA-28" value="" style="shape=partialRectangle;overflow=hidden;connectable=0;fillColor=none;top=0;left=0;bottom=0;right=0;" parent="lQ6aluvmCR328Puw67HA-27" vertex="1">
          <mxGeometry width="30" height="30" as="geometry">
            <mxRectangle width="30" height="30" as="alternateBounds" />
          </mxGeometry>
        </mxCell>
        <mxCell id="lQ6aluvmCR328Puw67HA-29" value="Status" style="shape=partialRectangle;overflow=hidden;connectable=0;fillColor=none;top=0;left=0;bottom=0;right=0;align=left;spacingLeft=6;" parent="lQ6aluvmCR328Puw67HA-27" vertex="1">
          <mxGeometry x="30" width="220" height="30" as="geometry">
            <mxRectangle width="220" height="30" as="alternateBounds" />
          </mxGeometry>
        </mxCell>
        <mxCell id="aXpIA_H2Vuaz1M_FIlEh-22" value="Collections" style="shape=table;startSize=30;container=1;collapsible=1;childLayout=tableLayout;fixedRows=1;rowLines=0;fontStyle=1;align=center;resizeLast=1;" parent="1" vertex="1">
          <mxGeometry x="-400" y="-640" width="250" height="310" as="geometry" />
        </mxCell>
        <mxCell id="aXpIA_H2Vuaz1M_FIlEh-23" value="" style="shape=partialRectangle;collapsible=0;dropTarget=0;pointerEvents=0;fillColor=none;points=[[0,0.5],[1,0.5]];portConstraint=eastwest;top=0;left=0;right=0;bottom=1;" parent="aXpIA_H2Vuaz1M_FIlEh-22" vertex="1">
          <mxGeometry y="30" width="250" height="30" as="geometry" />
        </mxCell>
        <mxCell id="aXpIA_H2Vuaz1M_FIlEh-24" value="PK" style="shape=partialRectangle;overflow=hidden;connectable=0;fillColor=none;top=0;left=0;bottom=0;right=0;fontStyle=1;" parent="aXpIA_H2Vuaz1M_FIlEh-23" vertex="1">
          <mxGeometry width="30" height="30" as="geometry">
            <mxRectangle width="30" height="30" as="alternateBounds" />
          </mxGeometry>
        </mxCell>
        <mxCell id="aXpIA_H2Vuaz1M_FIlEh-25" value="Id" style="shape=partialRectangle;overflow=hidden;connectable=0;fillColor=none;top=0;left=0;bottom=0;right=0;align=left;spacingLeft=6;fontStyle=5;" parent="aXpIA_H2Vuaz1M_FIlEh-23" vertex="1">
          <mxGeometry x="30" width="220" height="30" as="geometry">
            <mxRectangle width="220" height="30" as="alternateBounds" />
          </mxGeometry>
        </mxCell>
        <mxCell id="eQx8lhbRaFwLMaLD7q7s-1" value="" style="shape=partialRectangle;collapsible=0;dropTarget=0;pointerEvents=0;fillColor=none;points=[[0,0.5],[1,0.5]];portConstraint=eastwest;top=0;left=0;right=0;bottom=0;" parent="aXpIA_H2Vuaz1M_FIlEh-22" vertex="1">
          <mxGeometry y="60" width="250" height="30" as="geometry" />
        </mxCell>
        <mxCell id="eQx8lhbRaFwLMaLD7q7s-2" value="" style="shape=partialRectangle;overflow=hidden;connectable=0;fillColor=none;top=0;left=0;bottom=0;right=0;" parent="eQx8lhbRaFwLMaLD7q7s-1" vertex="1">
          <mxGeometry width="30" height="30" as="geometry">
            <mxRectangle width="30" height="30" as="alternateBounds" />
          </mxGeometry>
        </mxCell>
        <mxCell id="eQx8lhbRaFwLMaLD7q7s-3" value="Name" style="shape=partialRectangle;overflow=hidden;connectable=0;fillColor=none;top=0;left=0;bottom=0;right=0;align=left;spacingLeft=6;" parent="eQx8lhbRaFwLMaLD7q7s-1" vertex="1">
          <mxGeometry x="30" width="220" height="30" as="geometry">
            <mxRectangle width="220" height="30" as="alternateBounds" />
          </mxGeometry>
        </mxCell>
        <mxCell id="1Dr5Wn48vp1fXAIpc7qz-17" value="" style="shape=partialRectangle;collapsible=0;dropTarget=0;pointerEvents=0;fillColor=none;points=[[0,0.5],[1,0.5]];portConstraint=eastwest;top=0;left=0;right=0;bottom=0;" parent="aXpIA_H2Vuaz1M_FIlEh-22" vertex="1">
          <mxGeometry y="90" width="250" height="30" as="geometry" />
        </mxCell>
        <mxCell id="1Dr5Wn48vp1fXAIpc7qz-18" value="" style="shape=partialRectangle;overflow=hidden;connectable=0;fillColor=none;top=0;left=0;bottom=0;right=0;" parent="1Dr5Wn48vp1fXAIpc7qz-17" vertex="1">
          <mxGeometry width="30" height="30" as="geometry">
            <mxRectangle width="30" height="30" as="alternateBounds" />
          </mxGeometry>
        </mxCell>
        <mxCell id="1Dr5Wn48vp1fXAIpc7qz-19" value="Type" style="shape=partialRectangle;overflow=hidden;connectable=0;fillColor=none;top=0;left=0;bottom=0;right=0;align=left;spacingLeft=6;" parent="1Dr5Wn48vp1fXAIpc7qz-17" vertex="1">
          <mxGeometry x="30" width="220" height="30" as="geometry">
            <mxRectangle width="220" height="30" as="alternateBounds" />
          </mxGeometry>
        </mxCell>
        <mxCell id="lQ6aluvmCR328Puw67HA-39" value="" style="shape=partialRectangle;collapsible=0;dropTarget=0;pointerEvents=0;fillColor=none;points=[[0,0.5],[1,0.5]];portConstraint=eastwest;top=0;left=0;right=0;bottom=0;" parent="aXpIA_H2Vuaz1M_FIlEh-22" vertex="1">
          <mxGeometry y="120" width="250" height="30" as="geometry" />
        </mxCell>
        <mxCell id="lQ6aluvmCR328Puw67HA-40" value="" style="shape=partialRectangle;overflow=hidden;connectable=0;fillColor=none;top=0;left=0;bottom=0;right=0;" parent="lQ6aluvmCR328Puw67HA-39" vertex="1">
          <mxGeometry width="30" height="30" as="geometry">
            <mxRectangle width="30" height="30" as="alternateBounds" />
          </mxGeometry>
        </mxCell>
        <mxCell id="lQ6aluvmCR328Puw67HA-41" value="Status" style="shape=partialRectangle;overflow=hidden;connectable=0;fillColor=none;top=0;left=0;bottom=0;right=0;align=left;spacingLeft=6;" parent="lQ6aluvmCR328Puw67HA-39" vertex="1">
          <mxGeometry x="30" width="220" height="30" as="geometry">
            <mxRectangle width="220" height="30" as="alternateBounds" />
          </mxGeometry>
        </mxCell>
        <mxCell id="aXpIA_H2Vuaz1M_FIlEh-47" value="" style="shape=partialRectangle;collapsible=0;dropTarget=0;pointerEvents=0;fillColor=none;points=[[0,0.5],[1,0.5]];portConstraint=eastwest;top=0;left=0;right=0;bottom=0;" parent="aXpIA_H2Vuaz1M_FIlEh-22" vertex="1">
          <mxGeometry y="150" width="250" height="30" as="geometry" />
        </mxCell>
        <mxCell id="aXpIA_H2Vuaz1M_FIlEh-48" value="" style="shape=partialRectangle;overflow=hidden;connectable=0;fillColor=none;top=0;left=0;bottom=0;right=0;" parent="aXpIA_H2Vuaz1M_FIlEh-47" vertex="1">
          <mxGeometry width="30" height="30" as="geometry">
            <mxRectangle width="30" height="30" as="alternateBounds" />
          </mxGeometry>
        </mxCell>
        <mxCell id="aXpIA_H2Vuaz1M_FIlEh-49" value="CreateAt" style="shape=partialRectangle;overflow=hidden;connectable=0;fillColor=none;top=0;left=0;bottom=0;right=0;align=left;spacingLeft=6;" parent="aXpIA_H2Vuaz1M_FIlEh-47" vertex="1">
          <mxGeometry x="30" width="220" height="30" as="geometry">
            <mxRectangle width="220" height="30" as="alternateBounds" />
          </mxGeometry>
        </mxCell>
        <mxCell id="1Dr5Wn48vp1fXAIpc7qz-20" value="" style="shape=partialRectangle;collapsible=0;dropTarget=0;pointerEvents=0;fillColor=none;points=[[0,0.5],[1,0.5]];portConstraint=eastwest;top=0;left=0;right=0;bottom=0;" parent="aXpIA_H2Vuaz1M_FIlEh-22" vertex="1">
          <mxGeometry y="180" width="250" height="30" as="geometry" />
        </mxCell>
        <mxCell id="1Dr5Wn48vp1fXAIpc7qz-21" value="" style="shape=partialRectangle;overflow=hidden;connectable=0;fillColor=none;top=0;left=0;bottom=0;right=0;" parent="1Dr5Wn48vp1fXAIpc7qz-20" vertex="1">
          <mxGeometry width="30" height="30" as="geometry">
            <mxRectangle width="30" height="30" as="alternateBounds" />
          </mxGeometry>
        </mxCell>
        <mxCell id="1Dr5Wn48vp1fXAIpc7qz-22" value="UpdateAt" style="shape=partialRectangle;overflow=hidden;connectable=0;fillColor=none;top=0;left=0;bottom=0;right=0;align=left;spacingLeft=6;" parent="1Dr5Wn48vp1fXAIpc7qz-20" vertex="1">
          <mxGeometry x="30" width="220" height="30" as="geometry">
            <mxRectangle width="220" height="30" as="alternateBounds" />
          </mxGeometry>
        </mxCell>
        <mxCell id="lQ6aluvmCR328Puw67HA-115" value="" style="shape=partialRectangle;collapsible=0;dropTarget=0;pointerEvents=0;fillColor=none;points=[[0,0.5],[1,0.5]];portConstraint=eastwest;top=0;left=0;right=0;bottom=0;" parent="aXpIA_H2Vuaz1M_FIlEh-22" vertex="1">
          <mxGeometry y="210" width="250" height="30" as="geometry" />
        </mxCell>
        <mxCell id="lQ6aluvmCR328Puw67HA-116" value="" style="shape=partialRectangle;overflow=hidden;connectable=0;fillColor=none;top=0;left=0;bottom=0;right=0;" parent="lQ6aluvmCR328Puw67HA-115" vertex="1">
          <mxGeometry width="30" height="30" as="geometry">
            <mxRectangle width="30" height="30" as="alternateBounds" />
          </mxGeometry>
        </mxCell>
        <mxCell id="lQ6aluvmCR328Puw67HA-117" value="Quantity" style="shape=partialRectangle;overflow=hidden;connectable=0;fillColor=none;top=0;left=0;bottom=0;right=0;align=left;spacingLeft=6;" parent="lQ6aluvmCR328Puw67HA-115" vertex="1">
          <mxGeometry x="30" width="220" height="30" as="geometry">
            <mxRectangle width="220" height="30" as="alternateBounds" />
          </mxGeometry>
        </mxCell>
        <mxCell id="aXpIA_H2Vuaz1M_FIlEh-44" value="" style="shape=partialRectangle;collapsible=0;dropTarget=0;pointerEvents=0;fillColor=none;points=[[0,0.5],[1,0.5]];portConstraint=eastwest;top=0;left=0;right=0;bottom=0;" parent="aXpIA_H2Vuaz1M_FIlEh-22" vertex="1">
          <mxGeometry y="240" width="250" height="30" as="geometry" />
        </mxCell>
        <mxCell id="aXpIA_H2Vuaz1M_FIlEh-45" value="FK" style="shape=partialRectangle;overflow=hidden;connectable=0;fillColor=none;top=0;left=0;bottom=0;right=0;" parent="aXpIA_H2Vuaz1M_FIlEh-44" vertex="1">
          <mxGeometry width="30" height="30" as="geometry">
            <mxRectangle width="30" height="30" as="alternateBounds" />
          </mxGeometry>
        </mxCell>
        <mxCell id="aXpIA_H2Vuaz1M_FIlEh-46" value="UserId" style="shape=partialRectangle;overflow=hidden;connectable=0;fillColor=none;top=0;left=0;bottom=0;right=0;align=left;spacingLeft=6;" parent="aXpIA_H2Vuaz1M_FIlEh-44" vertex="1">
          <mxGeometry x="30" width="220" height="30" as="geometry">
            <mxRectangle width="220" height="30" as="alternateBounds" />
          </mxGeometry>
        </mxCell>
        <mxCell id="1Dr5Wn48vp1fXAIpc7qz-23" value="" style="shape=partialRectangle;collapsible=0;dropTarget=0;pointerEvents=0;fillColor=none;points=[[0,0.5],[1,0.5]];portConstraint=eastwest;top=0;left=0;right=0;bottom=0;" parent="aXpIA_H2Vuaz1M_FIlEh-22" vertex="1">
          <mxGeometry y="270" width="250" height="30" as="geometry" />
        </mxCell>
        <mxCell id="1Dr5Wn48vp1fXAIpc7qz-24" value="FK" style="shape=partialRectangle;overflow=hidden;connectable=0;fillColor=none;top=0;left=0;bottom=0;right=0;" parent="1Dr5Wn48vp1fXAIpc7qz-23" vertex="1">
          <mxGeometry width="30" height="30" as="geometry">
            <mxRectangle width="30" height="30" as="alternateBounds" />
          </mxGeometry>
        </mxCell>
        <mxCell id="1Dr5Wn48vp1fXAIpc7qz-25" value="ProductId" style="shape=partialRectangle;overflow=hidden;connectable=0;fillColor=none;top=0;left=0;bottom=0;right=0;align=left;spacingLeft=6;" parent="1Dr5Wn48vp1fXAIpc7qz-23" vertex="1">
          <mxGeometry x="30" width="220" height="30" as="geometry">
            <mxRectangle width="220" height="30" as="alternateBounds" />
          </mxGeometry>
        </mxCell>
        <mxCell id="mRnEDXr1XP2CcGiVnwVz-19" value="Comments" style="shape=table;startSize=30;container=1;collapsible=1;childLayout=tableLayout;fixedRows=1;rowLines=0;fontStyle=1;align=center;resizeLast=1;" parent="1" vertex="1">
          <mxGeometry x="-290" y="-1060" width="250" height="340" as="geometry" />
        </mxCell>
        <mxCell id="mRnEDXr1XP2CcGiVnwVz-20" value="" style="shape=partialRectangle;collapsible=0;dropTarget=0;pointerEvents=0;fillColor=none;points=[[0,0.5],[1,0.5]];portConstraint=eastwest;top=0;left=0;right=0;bottom=1;" parent="mRnEDXr1XP2CcGiVnwVz-19" vertex="1">
          <mxGeometry y="30" width="250" height="30" as="geometry" />
        </mxCell>
        <mxCell id="mRnEDXr1XP2CcGiVnwVz-21" value="PK" style="shape=partialRectangle;overflow=hidden;connectable=0;fillColor=none;top=0;left=0;bottom=0;right=0;fontStyle=1;" parent="mRnEDXr1XP2CcGiVnwVz-20" vertex="1">
          <mxGeometry width="30" height="30" as="geometry">
            <mxRectangle width="30" height="30" as="alternateBounds" />
          </mxGeometry>
        </mxCell>
        <mxCell id="mRnEDXr1XP2CcGiVnwVz-22" value="Id" style="shape=partialRectangle;overflow=hidden;connectable=0;fillColor=none;top=0;left=0;bottom=0;right=0;align=left;spacingLeft=6;fontStyle=5;" parent="mRnEDXr1XP2CcGiVnwVz-20" vertex="1">
          <mxGeometry x="30" width="220" height="30" as="geometry">
            <mxRectangle width="220" height="30" as="alternateBounds" />
          </mxGeometry>
        </mxCell>
        <mxCell id="mRnEDXr1XP2CcGiVnwVz-23" value="" style="shape=partialRectangle;collapsible=0;dropTarget=0;pointerEvents=0;fillColor=none;points=[[0,0.5],[1,0.5]];portConstraint=eastwest;top=0;left=0;right=0;bottom=0;" parent="mRnEDXr1XP2CcGiVnwVz-19" vertex="1">
          <mxGeometry y="60" width="250" height="30" as="geometry" />
        </mxCell>
        <mxCell id="mRnEDXr1XP2CcGiVnwVz-24" value="" style="shape=partialRectangle;overflow=hidden;connectable=0;fillColor=none;top=0;left=0;bottom=0;right=0;" parent="mRnEDXr1XP2CcGiVnwVz-23" vertex="1">
          <mxGeometry width="30" height="30" as="geometry">
            <mxRectangle width="30" height="30" as="alternateBounds" />
          </mxGeometry>
        </mxCell>
        <mxCell id="mRnEDXr1XP2CcGiVnwVz-25" value="Content" style="shape=partialRectangle;overflow=hidden;connectable=0;fillColor=none;top=0;left=0;bottom=0;right=0;align=left;spacingLeft=6;" parent="mRnEDXr1XP2CcGiVnwVz-23" vertex="1">
          <mxGeometry x="30" width="220" height="30" as="geometry">
            <mxRectangle width="220" height="30" as="alternateBounds" />
          </mxGeometry>
        </mxCell>
        <mxCell id="dG1rvmGHPo0hxSBDHyah-1" value="" style="shape=partialRectangle;collapsible=0;dropTarget=0;pointerEvents=0;fillColor=none;points=[[0,0.5],[1,0.5]];portConstraint=eastwest;top=0;left=0;right=0;bottom=0;" parent="mRnEDXr1XP2CcGiVnwVz-19" vertex="1">
          <mxGeometry y="90" width="250" height="30" as="geometry" />
        </mxCell>
        <mxCell id="dG1rvmGHPo0hxSBDHyah-2" value="" style="shape=partialRectangle;overflow=hidden;connectable=0;fillColor=none;top=0;left=0;bottom=0;right=0;" parent="dG1rvmGHPo0hxSBDHyah-1" vertex="1">
          <mxGeometry width="30" height="30" as="geometry">
            <mxRectangle width="30" height="30" as="alternateBounds" />
          </mxGeometry>
        </mxCell>
        <mxCell id="dG1rvmGHPo0hxSBDHyah-3" value="NumberOfLike" style="shape=partialRectangle;overflow=hidden;connectable=0;fillColor=none;top=0;left=0;bottom=0;right=0;align=left;spacingLeft=6;" parent="dG1rvmGHPo0hxSBDHyah-1" vertex="1">
          <mxGeometry x="30" width="220" height="30" as="geometry">
            <mxRectangle width="220" height="30" as="alternateBounds" />
          </mxGeometry>
        </mxCell>
        <mxCell id="lQ6aluvmCR328Puw67HA-36" value="" style="shape=partialRectangle;collapsible=0;dropTarget=0;pointerEvents=0;fillColor=none;points=[[0,0.5],[1,0.5]];portConstraint=eastwest;top=0;left=0;right=0;bottom=0;" parent="mRnEDXr1XP2CcGiVnwVz-19" vertex="1">
          <mxGeometry y="120" width="250" height="30" as="geometry" />
        </mxCell>
        <mxCell id="lQ6aluvmCR328Puw67HA-37" value="" style="shape=partialRectangle;overflow=hidden;connectable=0;fillColor=none;top=0;left=0;bottom=0;right=0;" parent="lQ6aluvmCR328Puw67HA-36" vertex="1">
          <mxGeometry width="30" height="30" as="geometry">
            <mxRectangle width="30" height="30" as="alternateBounds" />
          </mxGeometry>
        </mxCell>
        <mxCell id="lQ6aluvmCR328Puw67HA-38" value="Status" style="shape=partialRectangle;overflow=hidden;connectable=0;fillColor=none;top=0;left=0;bottom=0;right=0;align=left;spacingLeft=6;" parent="lQ6aluvmCR328Puw67HA-36" vertex="1">
          <mxGeometry x="30" width="220" height="30" as="geometry">
            <mxRectangle width="220" height="30" as="alternateBounds" />
          </mxGeometry>
        </mxCell>
        <mxCell id="lQ6aluvmCR328Puw67HA-97" value="" style="shape=partialRectangle;collapsible=0;dropTarget=0;pointerEvents=0;fillColor=none;points=[[0,0.5],[1,0.5]];portConstraint=eastwest;top=0;left=0;right=0;bottom=0;" parent="mRnEDXr1XP2CcGiVnwVz-19" vertex="1">
          <mxGeometry y="150" width="250" height="30" as="geometry" />
        </mxCell>
        <mxCell id="lQ6aluvmCR328Puw67HA-98" value="" style="shape=partialRectangle;overflow=hidden;connectable=0;fillColor=none;top=0;left=0;bottom=0;right=0;" parent="lQ6aluvmCR328Puw67HA-97" vertex="1">
          <mxGeometry width="30" height="30" as="geometry">
            <mxRectangle width="30" height="30" as="alternateBounds" />
          </mxGeometry>
        </mxCell>
        <mxCell id="lQ6aluvmCR328Puw67HA-99" value="CreateAt" style="shape=partialRectangle;overflow=hidden;connectable=0;fillColor=none;top=0;left=0;bottom=0;right=0;align=left;spacingLeft=6;" parent="lQ6aluvmCR328Puw67HA-97" vertex="1">
          <mxGeometry x="30" width="220" height="30" as="geometry">
            <mxRectangle width="220" height="30" as="alternateBounds" />
          </mxGeometry>
        </mxCell>
        <mxCell id="lQ6aluvmCR328Puw67HA-100" value="" style="shape=partialRectangle;collapsible=0;dropTarget=0;pointerEvents=0;fillColor=none;points=[[0,0.5],[1,0.5]];portConstraint=eastwest;top=0;left=0;right=0;bottom=0;" parent="mRnEDXr1XP2CcGiVnwVz-19" vertex="1">
          <mxGeometry y="180" width="250" height="30" as="geometry" />
        </mxCell>
        <mxCell id="lQ6aluvmCR328Puw67HA-101" value="" style="shape=partialRectangle;overflow=hidden;connectable=0;fillColor=none;top=0;left=0;bottom=0;right=0;" parent="lQ6aluvmCR328Puw67HA-100" vertex="1">
          <mxGeometry width="30" height="30" as="geometry">
            <mxRectangle width="30" height="30" as="alternateBounds" />
          </mxGeometry>
        </mxCell>
        <mxCell id="lQ6aluvmCR328Puw67HA-102" value="UpdateAt" style="shape=partialRectangle;overflow=hidden;connectable=0;fillColor=none;top=0;left=0;bottom=0;right=0;align=left;spacingLeft=6;" parent="lQ6aluvmCR328Puw67HA-100" vertex="1">
          <mxGeometry x="30" width="220" height="30" as="geometry">
            <mxRectangle width="220" height="30" as="alternateBounds" />
          </mxGeometry>
        </mxCell>
        <mxCell id="mRnEDXr1XP2CcGiVnwVz-26" value="" style="shape=partialRectangle;collapsible=0;dropTarget=0;pointerEvents=0;fillColor=none;points=[[0,0.5],[1,0.5]];portConstraint=eastwest;top=0;left=0;right=0;bottom=0;" parent="mRnEDXr1XP2CcGiVnwVz-19" vertex="1">
          <mxGeometry y="210" width="250" height="30" as="geometry" />
        </mxCell>
        <mxCell id="mRnEDXr1XP2CcGiVnwVz-27" value="FK" style="shape=partialRectangle;overflow=hidden;connectable=0;fillColor=none;top=0;left=0;bottom=0;right=0;" parent="mRnEDXr1XP2CcGiVnwVz-26" vertex="1">
          <mxGeometry width="30" height="30" as="geometry">
            <mxRectangle width="30" height="30" as="alternateBounds" />
          </mxGeometry>
        </mxCell>
        <mxCell id="mRnEDXr1XP2CcGiVnwVz-28" value="ParentId" style="shape=partialRectangle;overflow=hidden;connectable=0;fillColor=none;top=0;left=0;bottom=0;right=0;align=left;spacingLeft=6;" parent="mRnEDXr1XP2CcGiVnwVz-26" vertex="1">
          <mxGeometry x="30" width="220" height="30" as="geometry">
            <mxRectangle width="220" height="30" as="alternateBounds" />
          </mxGeometry>
        </mxCell>
        <mxCell id="1Dr5Wn48vp1fXAIpc7qz-100" value="" style="shape=partialRectangle;collapsible=0;dropTarget=0;pointerEvents=0;fillColor=none;points=[[0,0.5],[1,0.5]];portConstraint=eastwest;top=0;left=0;right=0;bottom=0;" parent="mRnEDXr1XP2CcGiVnwVz-19" vertex="1">
          <mxGeometry y="240" width="250" height="30" as="geometry" />
        </mxCell>
        <mxCell id="1Dr5Wn48vp1fXAIpc7qz-101" value="FK" style="shape=partialRectangle;overflow=hidden;connectable=0;fillColor=none;top=0;left=0;bottom=0;right=0;" parent="1Dr5Wn48vp1fXAIpc7qz-100" vertex="1">
          <mxGeometry width="30" height="30" as="geometry">
            <mxRectangle width="30" height="30" as="alternateBounds" />
          </mxGeometry>
        </mxCell>
        <mxCell id="1Dr5Wn48vp1fXAIpc7qz-102" value="UserId" style="shape=partialRectangle;overflow=hidden;connectable=0;fillColor=none;top=0;left=0;bottom=0;right=0;align=left;spacingLeft=6;" parent="1Dr5Wn48vp1fXAIpc7qz-100" vertex="1">
          <mxGeometry x="30" width="220" height="30" as="geometry">
            <mxRectangle width="220" height="30" as="alternateBounds" />
          </mxGeometry>
        </mxCell>
        <mxCell id="lQ6aluvmCR328Puw67HA-126" value="" style="edgeStyle=entityRelationEdgeStyle;fontSize=12;html=1;endArrow=ERzeroToOne;endFill=1;rounded=0;" parent="mRnEDXr1XP2CcGiVnwVz-19" source="mRnEDXr1XP2CcGiVnwVz-20" target="mRnEDXr1XP2CcGiVnwVz-26" edge="1">
          <mxGeometry width="100" height="100" relative="1" as="geometry">
            <mxPoint x="390" y="210" as="sourcePoint" />
            <mxPoint x="440" y="210" as="targetPoint" />
          </mxGeometry>
        </mxCell>
        <mxCell id="hXMM107f48ifyoNF37Yd-4" value="" style="shape=partialRectangle;collapsible=0;dropTarget=0;pointerEvents=0;fillColor=none;points=[[0,0.5],[1,0.5]];portConstraint=eastwest;top=0;left=0;right=0;bottom=0;" vertex="1" parent="mRnEDXr1XP2CcGiVnwVz-19">
          <mxGeometry y="270" width="250" height="30" as="geometry" />
        </mxCell>
        <mxCell id="hXMM107f48ifyoNF37Yd-5" value="" style="shape=partialRectangle;overflow=hidden;connectable=0;fillColor=none;top=0;left=0;bottom=0;right=0;" vertex="1" parent="hXMM107f48ifyoNF37Yd-4">
          <mxGeometry width="30" height="30" as="geometry">
            <mxRectangle width="30" height="30" as="alternateBounds" />
          </mxGeometry>
        </mxCell>
        <mxCell id="hXMM107f48ifyoNF37Yd-6" value="ProductId" style="shape=partialRectangle;overflow=hidden;connectable=0;fillColor=none;top=0;left=0;bottom=0;right=0;align=left;spacingLeft=6;" vertex="1" parent="hXMM107f48ifyoNF37Yd-4">
          <mxGeometry x="30" width="220" height="30" as="geometry">
            <mxRectangle width="220" height="30" as="alternateBounds" />
          </mxGeometry>
        </mxCell>
        <mxCell id="hXMM107f48ifyoNF37Yd-7" value="" style="shape=partialRectangle;collapsible=0;dropTarget=0;pointerEvents=0;fillColor=none;points=[[0,0.5],[1,0.5]];portConstraint=eastwest;top=0;left=0;right=0;bottom=0;" vertex="1" parent="mRnEDXr1XP2CcGiVnwVz-19">
          <mxGeometry y="300" width="250" height="30" as="geometry" />
        </mxCell>
        <mxCell id="hXMM107f48ifyoNF37Yd-8" value="" style="shape=partialRectangle;overflow=hidden;connectable=0;fillColor=none;top=0;left=0;bottom=0;right=0;" vertex="1" parent="hXMM107f48ifyoNF37Yd-7">
          <mxGeometry width="30" height="30" as="geometry">
            <mxRectangle width="30" height="30" as="alternateBounds" />
          </mxGeometry>
        </mxCell>
        <mxCell id="hXMM107f48ifyoNF37Yd-9" value="PostId" style="shape=partialRectangle;overflow=hidden;connectable=0;fillColor=none;top=0;left=0;bottom=0;right=0;align=left;spacingLeft=6;" vertex="1" parent="hXMM107f48ifyoNF37Yd-7">
          <mxGeometry x="30" width="220" height="30" as="geometry">
            <mxRectangle width="220" height="30" as="alternateBounds" />
          </mxGeometry>
        </mxCell>
        <mxCell id="1Dr5Wn48vp1fXAIpc7qz-4" value="UserRoles" style="shape=table;startSize=30;container=1;collapsible=1;childLayout=tableLayout;fixedRows=1;rowLines=0;fontStyle=1;align=center;resizeLast=1;html=1;whiteSpace=wrap;" parent="1" vertex="1">
          <mxGeometry x="-1510" y="-515" width="180" height="90" as="geometry" />
        </mxCell>
        <mxCell id="1Dr5Wn48vp1fXAIpc7qz-8" value="" style="shape=tableRow;horizontal=0;startSize=0;swimlaneHead=0;swimlaneBody=0;fillColor=none;collapsible=0;dropTarget=0;points=[[0,0.5],[1,0.5]];portConstraint=eastwest;top=0;left=0;right=0;bottom=1;html=1;" parent="1Dr5Wn48vp1fXAIpc7qz-4" vertex="1">
          <mxGeometry y="30" width="180" height="30" as="geometry" />
        </mxCell>
        <mxCell id="1Dr5Wn48vp1fXAIpc7qz-9" value="PK,FK" style="shape=partialRectangle;connectable=0;fillColor=none;top=0;left=0;bottom=0;right=0;fontStyle=1;overflow=hidden;html=1;whiteSpace=wrap;" parent="1Dr5Wn48vp1fXAIpc7qz-8" vertex="1">
          <mxGeometry width="60" height="30" as="geometry">
            <mxRectangle width="60" height="30" as="alternateBounds" />
          </mxGeometry>
        </mxCell>
        <mxCell id="1Dr5Wn48vp1fXAIpc7qz-10" value="UserId" style="shape=partialRectangle;connectable=0;fillColor=none;top=0;left=0;bottom=0;right=0;align=left;spacingLeft=6;fontStyle=5;overflow=hidden;html=1;whiteSpace=wrap;" parent="1Dr5Wn48vp1fXAIpc7qz-8" vertex="1">
          <mxGeometry x="60" width="120" height="30" as="geometry">
            <mxRectangle width="120" height="30" as="alternateBounds" />
          </mxGeometry>
        </mxCell>
        <mxCell id="1Dr5Wn48vp1fXAIpc7qz-5" value="" style="shape=tableRow;horizontal=0;startSize=0;swimlaneHead=0;swimlaneBody=0;fillColor=none;collapsible=0;dropTarget=0;points=[[0,0.5],[1,0.5]];portConstraint=eastwest;top=0;left=0;right=0;bottom=0;html=1;" parent="1Dr5Wn48vp1fXAIpc7qz-4" vertex="1">
          <mxGeometry y="60" width="180" height="30" as="geometry" />
        </mxCell>
        <mxCell id="1Dr5Wn48vp1fXAIpc7qz-6" value="PK,FK" style="shape=partialRectangle;connectable=0;fillColor=none;top=0;left=0;bottom=0;right=0;fontStyle=1;overflow=hidden;html=1;whiteSpace=wrap;" parent="1Dr5Wn48vp1fXAIpc7qz-5" vertex="1">
          <mxGeometry width="60" height="30" as="geometry">
            <mxRectangle width="60" height="30" as="alternateBounds" />
          </mxGeometry>
        </mxCell>
        <mxCell id="1Dr5Wn48vp1fXAIpc7qz-7" value="RoleId" style="shape=partialRectangle;connectable=0;fillColor=none;top=0;left=0;bottom=0;right=0;align=left;spacingLeft=6;fontStyle=5;overflow=hidden;html=1;whiteSpace=wrap;" parent="1Dr5Wn48vp1fXAIpc7qz-5" vertex="1">
          <mxGeometry x="60" width="120" height="30" as="geometry">
            <mxRectangle width="120" height="30" as="alternateBounds" />
          </mxGeometry>
        </mxCell>
        <mxCell id="1Dr5Wn48vp1fXAIpc7qz-69" value="Reports" style="shape=table;startSize=30;container=1;collapsible=1;childLayout=tableLayout;fixedRows=1;rowLines=0;fontStyle=1;align=center;resizeLast=1;html=1;" parent="1" vertex="1">
          <mxGeometry x="-750" y="-1110" width="180" height="300" as="geometry" />
        </mxCell>
        <mxCell id="1Dr5Wn48vp1fXAIpc7qz-70" value="" style="shape=tableRow;horizontal=0;startSize=0;swimlaneHead=0;swimlaneBody=0;fillColor=none;collapsible=0;dropTarget=0;points=[[0,0.5],[1,0.5]];portConstraint=eastwest;top=0;left=0;right=0;bottom=1;" parent="1Dr5Wn48vp1fXAIpc7qz-69" vertex="1">
          <mxGeometry y="30" width="180" height="30" as="geometry" />
        </mxCell>
        <mxCell id="1Dr5Wn48vp1fXAIpc7qz-71" value="PK" style="shape=partialRectangle;connectable=0;fillColor=none;top=0;left=0;bottom=0;right=0;fontStyle=1;overflow=hidden;whiteSpace=wrap;html=1;" parent="1Dr5Wn48vp1fXAIpc7qz-70" vertex="1">
          <mxGeometry width="30" height="30" as="geometry">
            <mxRectangle width="30" height="30" as="alternateBounds" />
          </mxGeometry>
        </mxCell>
        <mxCell id="1Dr5Wn48vp1fXAIpc7qz-72" value="Id" style="shape=partialRectangle;connectable=0;fillColor=none;top=0;left=0;bottom=0;right=0;align=left;spacingLeft=6;fontStyle=5;overflow=hidden;whiteSpace=wrap;html=1;" parent="1Dr5Wn48vp1fXAIpc7qz-70" vertex="1">
          <mxGeometry x="30" width="150" height="30" as="geometry">
            <mxRectangle width="150" height="30" as="alternateBounds" />
          </mxGeometry>
        </mxCell>
        <mxCell id="1Dr5Wn48vp1fXAIpc7qz-73" value="" style="shape=tableRow;horizontal=0;startSize=0;swimlaneHead=0;swimlaneBody=0;fillColor=none;collapsible=0;dropTarget=0;points=[[0,0.5],[1,0.5]];portConstraint=eastwest;top=0;left=0;right=0;bottom=0;" parent="1Dr5Wn48vp1fXAIpc7qz-69" vertex="1">
          <mxGeometry y="60" width="180" height="30" as="geometry" />
        </mxCell>
        <mxCell id="1Dr5Wn48vp1fXAIpc7qz-74" value="" style="shape=partialRectangle;connectable=0;fillColor=none;top=0;left=0;bottom=0;right=0;editable=1;overflow=hidden;whiteSpace=wrap;html=1;" parent="1Dr5Wn48vp1fXAIpc7qz-73" vertex="1">
          <mxGeometry width="30" height="30" as="geometry">
            <mxRectangle width="30" height="30" as="alternateBounds" />
          </mxGeometry>
        </mxCell>
        <mxCell id="1Dr5Wn48vp1fXAIpc7qz-75" value="Title" style="shape=partialRectangle;connectable=0;fillColor=none;top=0;left=0;bottom=0;right=0;align=left;spacingLeft=6;overflow=hidden;whiteSpace=wrap;html=1;" parent="1Dr5Wn48vp1fXAIpc7qz-73" vertex="1">
          <mxGeometry x="30" width="150" height="30" as="geometry">
            <mxRectangle width="150" height="30" as="alternateBounds" />
          </mxGeometry>
        </mxCell>
        <mxCell id="1Dr5Wn48vp1fXAIpc7qz-76" value="" style="shape=tableRow;horizontal=0;startSize=0;swimlaneHead=0;swimlaneBody=0;fillColor=none;collapsible=0;dropTarget=0;points=[[0,0.5],[1,0.5]];portConstraint=eastwest;top=0;left=0;right=0;bottom=0;" parent="1Dr5Wn48vp1fXAIpc7qz-69" vertex="1">
          <mxGeometry y="90" width="180" height="30" as="geometry" />
        </mxCell>
        <mxCell id="1Dr5Wn48vp1fXAIpc7qz-77" value="" style="shape=partialRectangle;connectable=0;fillColor=none;top=0;left=0;bottom=0;right=0;editable=1;overflow=hidden;whiteSpace=wrap;html=1;" parent="1Dr5Wn48vp1fXAIpc7qz-76" vertex="1">
          <mxGeometry width="30" height="30" as="geometry">
            <mxRectangle width="30" height="30" as="alternateBounds" />
          </mxGeometry>
        </mxCell>
        <mxCell id="1Dr5Wn48vp1fXAIpc7qz-78" value="Reason" style="shape=partialRectangle;connectable=0;fillColor=none;top=0;left=0;bottom=0;right=0;align=left;spacingLeft=6;overflow=hidden;whiteSpace=wrap;html=1;" parent="1Dr5Wn48vp1fXAIpc7qz-76" vertex="1">
          <mxGeometry x="30" width="150" height="30" as="geometry">
            <mxRectangle width="150" height="30" as="alternateBounds" />
          </mxGeometry>
        </mxCell>
        <mxCell id="1Dr5Wn48vp1fXAIpc7qz-79" value="" style="shape=tableRow;horizontal=0;startSize=0;swimlaneHead=0;swimlaneBody=0;fillColor=none;collapsible=0;dropTarget=0;points=[[0,0.5],[1,0.5]];portConstraint=eastwest;top=0;left=0;right=0;bottom=0;" parent="1Dr5Wn48vp1fXAIpc7qz-69" vertex="1">
          <mxGeometry y="120" width="180" height="30" as="geometry" />
        </mxCell>
        <mxCell id="1Dr5Wn48vp1fXAIpc7qz-80" value="" style="shape=partialRectangle;connectable=0;fillColor=none;top=0;left=0;bottom=0;right=0;editable=1;overflow=hidden;whiteSpace=wrap;html=1;" parent="1Dr5Wn48vp1fXAIpc7qz-79" vertex="1">
          <mxGeometry width="30" height="30" as="geometry">
            <mxRectangle width="30" height="30" as="alternateBounds" />
          </mxGeometry>
        </mxCell>
        <mxCell id="1Dr5Wn48vp1fXAIpc7qz-81" value="Description" style="shape=partialRectangle;connectable=0;fillColor=none;top=0;left=0;bottom=0;right=0;align=left;spacingLeft=6;overflow=hidden;whiteSpace=wrap;html=1;" parent="1Dr5Wn48vp1fXAIpc7qz-79" vertex="1">
          <mxGeometry x="30" width="150" height="30" as="geometry">
            <mxRectangle width="150" height="30" as="alternateBounds" />
          </mxGeometry>
        </mxCell>
        <mxCell id="1Dr5Wn48vp1fXAIpc7qz-91" value="" style="shape=tableRow;horizontal=0;startSize=0;swimlaneHead=0;swimlaneBody=0;fillColor=none;collapsible=0;dropTarget=0;points=[[0,0.5],[1,0.5]];portConstraint=eastwest;top=0;left=0;right=0;bottom=0;" parent="1Dr5Wn48vp1fXAIpc7qz-69" vertex="1">
          <mxGeometry y="150" width="180" height="30" as="geometry" />
        </mxCell>
        <mxCell id="1Dr5Wn48vp1fXAIpc7qz-92" value="" style="shape=partialRectangle;connectable=0;fillColor=none;top=0;left=0;bottom=0;right=0;editable=1;overflow=hidden;whiteSpace=wrap;html=1;" parent="1Dr5Wn48vp1fXAIpc7qz-91" vertex="1">
          <mxGeometry width="30" height="30" as="geometry">
            <mxRectangle width="30" height="30" as="alternateBounds" />
          </mxGeometry>
        </mxCell>
        <mxCell id="1Dr5Wn48vp1fXAIpc7qz-93" value="Status" style="shape=partialRectangle;connectable=0;fillColor=none;top=0;left=0;bottom=0;right=0;align=left;spacingLeft=6;overflow=hidden;whiteSpace=wrap;html=1;" parent="1Dr5Wn48vp1fXAIpc7qz-91" vertex="1">
          <mxGeometry x="30" width="150" height="30" as="geometry">
            <mxRectangle width="150" height="30" as="alternateBounds" />
          </mxGeometry>
        </mxCell>
        <mxCell id="1Dr5Wn48vp1fXAIpc7qz-94" value="" style="shape=tableRow;horizontal=0;startSize=0;swimlaneHead=0;swimlaneBody=0;fillColor=none;collapsible=0;dropTarget=0;points=[[0,0.5],[1,0.5]];portConstraint=eastwest;top=0;left=0;right=0;bottom=0;" parent="1Dr5Wn48vp1fXAIpc7qz-69" vertex="1">
          <mxGeometry y="180" width="180" height="30" as="geometry" />
        </mxCell>
        <mxCell id="1Dr5Wn48vp1fXAIpc7qz-95" value="" style="shape=partialRectangle;connectable=0;fillColor=none;top=0;left=0;bottom=0;right=0;editable=1;overflow=hidden;whiteSpace=wrap;html=1;" parent="1Dr5Wn48vp1fXAIpc7qz-94" vertex="1">
          <mxGeometry width="30" height="30" as="geometry">
            <mxRectangle width="30" height="30" as="alternateBounds" />
          </mxGeometry>
        </mxCell>
        <mxCell id="1Dr5Wn48vp1fXAIpc7qz-96" value="CreateAt" style="shape=partialRectangle;connectable=0;fillColor=none;top=0;left=0;bottom=0;right=0;align=left;spacingLeft=6;overflow=hidden;whiteSpace=wrap;html=1;" parent="1Dr5Wn48vp1fXAIpc7qz-94" vertex="1">
          <mxGeometry x="30" width="150" height="30" as="geometry">
            <mxRectangle width="150" height="30" as="alternateBounds" />
          </mxGeometry>
        </mxCell>
        <mxCell id="1Dr5Wn48vp1fXAIpc7qz-85" value="" style="shape=tableRow;horizontal=0;startSize=0;swimlaneHead=0;swimlaneBody=0;fillColor=none;collapsible=0;dropTarget=0;points=[[0,0.5],[1,0.5]];portConstraint=eastwest;top=0;left=0;right=0;bottom=0;" parent="1Dr5Wn48vp1fXAIpc7qz-69" vertex="1">
          <mxGeometry y="210" width="180" height="30" as="geometry" />
        </mxCell>
        <mxCell id="1Dr5Wn48vp1fXAIpc7qz-86" value="FK" style="shape=partialRectangle;connectable=0;fillColor=none;top=0;left=0;bottom=0;right=0;editable=1;overflow=hidden;whiteSpace=wrap;html=1;" parent="1Dr5Wn48vp1fXAIpc7qz-85" vertex="1">
          <mxGeometry width="30" height="30" as="geometry">
            <mxRectangle width="30" height="30" as="alternateBounds" />
          </mxGeometry>
        </mxCell>
        <mxCell id="1Dr5Wn48vp1fXAIpc7qz-87" value="CommentId" style="shape=partialRectangle;connectable=0;fillColor=none;top=0;left=0;bottom=0;right=0;align=left;spacingLeft=6;overflow=hidden;whiteSpace=wrap;html=1;" parent="1Dr5Wn48vp1fXAIpc7qz-85" vertex="1">
          <mxGeometry x="30" width="150" height="30" as="geometry">
            <mxRectangle width="150" height="30" as="alternateBounds" />
          </mxGeometry>
        </mxCell>
        <mxCell id="1Dr5Wn48vp1fXAIpc7qz-88" value="" style="shape=tableRow;horizontal=0;startSize=0;swimlaneHead=0;swimlaneBody=0;fillColor=none;collapsible=0;dropTarget=0;points=[[0,0.5],[1,0.5]];portConstraint=eastwest;top=0;left=0;right=0;bottom=0;" parent="1Dr5Wn48vp1fXAIpc7qz-69" vertex="1">
          <mxGeometry y="240" width="180" height="30" as="geometry" />
        </mxCell>
        <mxCell id="1Dr5Wn48vp1fXAIpc7qz-89" value="FK" style="shape=partialRectangle;connectable=0;fillColor=none;top=0;left=0;bottom=0;right=0;editable=1;overflow=hidden;whiteSpace=wrap;html=1;" parent="1Dr5Wn48vp1fXAIpc7qz-88" vertex="1">
          <mxGeometry width="30" height="30" as="geometry">
            <mxRectangle width="30" height="30" as="alternateBounds" />
          </mxGeometry>
        </mxCell>
        <mxCell id="1Dr5Wn48vp1fXAIpc7qz-90" value="ProductId" style="shape=partialRectangle;connectable=0;fillColor=none;top=0;left=0;bottom=0;right=0;align=left;spacingLeft=6;overflow=hidden;whiteSpace=wrap;html=1;" parent="1Dr5Wn48vp1fXAIpc7qz-88" vertex="1">
          <mxGeometry x="30" width="150" height="30" as="geometry">
            <mxRectangle width="150" height="30" as="alternateBounds" />
          </mxGeometry>
        </mxCell>
        <mxCell id="1Dr5Wn48vp1fXAIpc7qz-82" value="" style="shape=tableRow;horizontal=0;startSize=0;swimlaneHead=0;swimlaneBody=0;fillColor=none;collapsible=0;dropTarget=0;points=[[0,0.5],[1,0.5]];portConstraint=eastwest;top=0;left=0;right=0;bottom=0;" parent="1Dr5Wn48vp1fXAIpc7qz-69" vertex="1">
          <mxGeometry y="270" width="180" height="30" as="geometry" />
        </mxCell>
        <mxCell id="1Dr5Wn48vp1fXAIpc7qz-83" value="FK" style="shape=partialRectangle;connectable=0;fillColor=none;top=0;left=0;bottom=0;right=0;editable=1;overflow=hidden;whiteSpace=wrap;html=1;" parent="1Dr5Wn48vp1fXAIpc7qz-82" vertex="1">
          <mxGeometry width="30" height="30" as="geometry">
            <mxRectangle width="30" height="30" as="alternateBounds" />
          </mxGeometry>
        </mxCell>
        <mxCell id="1Dr5Wn48vp1fXAIpc7qz-84" value="UserId" style="shape=partialRectangle;connectable=0;fillColor=none;top=0;left=0;bottom=0;right=0;align=left;spacingLeft=6;overflow=hidden;whiteSpace=wrap;html=1;" parent="1Dr5Wn48vp1fXAIpc7qz-82" vertex="1">
          <mxGeometry x="30" width="150" height="30" as="geometry">
            <mxRectangle width="150" height="30" as="alternateBounds" />
          </mxGeometry>
        </mxCell>
        <mxCell id="1Dr5Wn48vp1fXAIpc7qz-103" value="Posts" style="shape=table;startSize=30;container=1;collapsible=1;childLayout=tableLayout;fixedRows=1;rowLines=0;fontStyle=1;align=center;resizeLast=1;" parent="1" vertex="1">
          <mxGeometry x="-1190" y="-1110" width="250" height="400" as="geometry" />
        </mxCell>
        <mxCell id="1Dr5Wn48vp1fXAIpc7qz-104" value="" style="shape=partialRectangle;collapsible=0;dropTarget=0;pointerEvents=0;fillColor=none;points=[[0,0.5],[1,0.5]];portConstraint=eastwest;top=0;left=0;right=0;bottom=1;" parent="1Dr5Wn48vp1fXAIpc7qz-103" vertex="1">
          <mxGeometry y="30" width="250" height="30" as="geometry" />
        </mxCell>
        <mxCell id="1Dr5Wn48vp1fXAIpc7qz-105" value="PK" style="shape=partialRectangle;overflow=hidden;connectable=0;fillColor=none;top=0;left=0;bottom=0;right=0;fontStyle=1;" parent="1Dr5Wn48vp1fXAIpc7qz-104" vertex="1">
          <mxGeometry width="30" height="30" as="geometry">
            <mxRectangle width="30" height="30" as="alternateBounds" />
          </mxGeometry>
        </mxCell>
        <mxCell id="1Dr5Wn48vp1fXAIpc7qz-106" value="Id" style="shape=partialRectangle;overflow=hidden;connectable=0;fillColor=none;top=0;left=0;bottom=0;right=0;align=left;spacingLeft=6;fontStyle=5;" parent="1Dr5Wn48vp1fXAIpc7qz-104" vertex="1">
          <mxGeometry x="30" width="220" height="30" as="geometry">
            <mxRectangle width="220" height="30" as="alternateBounds" />
          </mxGeometry>
        </mxCell>
        <mxCell id="1Dr5Wn48vp1fXAIpc7qz-107" value="" style="shape=partialRectangle;collapsible=0;dropTarget=0;pointerEvents=0;fillColor=none;points=[[0,0.5],[1,0.5]];portConstraint=eastwest;top=0;left=0;right=0;bottom=0;" parent="1Dr5Wn48vp1fXAIpc7qz-103" vertex="1">
          <mxGeometry y="60" width="250" height="30" as="geometry" />
        </mxCell>
        <mxCell id="1Dr5Wn48vp1fXAIpc7qz-108" value="" style="shape=partialRectangle;overflow=hidden;connectable=0;fillColor=none;top=0;left=0;bottom=0;right=0;" parent="1Dr5Wn48vp1fXAIpc7qz-107" vertex="1">
          <mxGeometry width="30" height="30" as="geometry">
            <mxRectangle width="30" height="30" as="alternateBounds" />
          </mxGeometry>
        </mxCell>
        <mxCell id="1Dr5Wn48vp1fXAIpc7qz-109" value="Title" style="shape=partialRectangle;overflow=hidden;connectable=0;fillColor=none;top=0;left=0;bottom=0;right=0;align=left;spacingLeft=6;" parent="1Dr5Wn48vp1fXAIpc7qz-107" vertex="1">
          <mxGeometry x="30" width="220" height="30" as="geometry">
            <mxRectangle width="220" height="30" as="alternateBounds" />
          </mxGeometry>
        </mxCell>
        <mxCell id="t-x6DculrCber3R86kBJ-1" value="" style="shape=partialRectangle;collapsible=0;dropTarget=0;pointerEvents=0;fillColor=none;points=[[0,0.5],[1,0.5]];portConstraint=eastwest;top=0;left=0;right=0;bottom=0;" parent="1Dr5Wn48vp1fXAIpc7qz-103" vertex="1">
          <mxGeometry y="90" width="250" height="30" as="geometry" />
        </mxCell>
        <mxCell id="t-x6DculrCber3R86kBJ-2" value="" style="shape=partialRectangle;overflow=hidden;connectable=0;fillColor=none;top=0;left=0;bottom=0;right=0;" parent="t-x6DculrCber3R86kBJ-1" vertex="1">
          <mxGeometry width="30" height="30" as="geometry">
            <mxRectangle width="30" height="30" as="alternateBounds" />
          </mxGeometry>
        </mxCell>
        <mxCell id="t-x6DculrCber3R86kBJ-3" value="Content" style="shape=partialRectangle;overflow=hidden;connectable=0;fillColor=none;top=0;left=0;bottom=0;right=0;align=left;spacingLeft=6;" parent="t-x6DculrCber3R86kBJ-1" vertex="1">
          <mxGeometry x="30" width="220" height="30" as="geometry">
            <mxRectangle width="220" height="30" as="alternateBounds" />
          </mxGeometry>
        </mxCell>
        <mxCell id="t-x6DculrCber3R86kBJ-4" value="" style="shape=partialRectangle;collapsible=0;dropTarget=0;pointerEvents=0;fillColor=none;points=[[0,0.5],[1,0.5]];portConstraint=eastwest;top=0;left=0;right=0;bottom=0;" parent="1Dr5Wn48vp1fXAIpc7qz-103" vertex="1">
          <mxGeometry y="120" width="250" height="30" as="geometry" />
        </mxCell>
        <mxCell id="t-x6DculrCber3R86kBJ-5" value="" style="shape=partialRectangle;overflow=hidden;connectable=0;fillColor=none;top=0;left=0;bottom=0;right=0;" parent="t-x6DculrCber3R86kBJ-4" vertex="1">
          <mxGeometry width="30" height="30" as="geometry">
            <mxRectangle width="30" height="30" as="alternateBounds" />
          </mxGeometry>
        </mxCell>
        <mxCell id="t-x6DculrCber3R86kBJ-6" value="CreateAt" style="shape=partialRectangle;overflow=hidden;connectable=0;fillColor=none;top=0;left=0;bottom=0;right=0;align=left;spacingLeft=6;" parent="t-x6DculrCber3R86kBJ-4" vertex="1">
          <mxGeometry x="30" width="220" height="30" as="geometry">
            <mxRectangle width="220" height="30" as="alternateBounds" />
          </mxGeometry>
        </mxCell>
        <mxCell id="t-x6DculrCber3R86kBJ-7" value="" style="shape=partialRectangle;collapsible=0;dropTarget=0;pointerEvents=0;fillColor=none;points=[[0,0.5],[1,0.5]];portConstraint=eastwest;top=0;left=0;right=0;bottom=0;" parent="1Dr5Wn48vp1fXAIpc7qz-103" vertex="1">
          <mxGeometry y="150" width="250" height="30" as="geometry" />
        </mxCell>
        <mxCell id="t-x6DculrCber3R86kBJ-8" value="" style="shape=partialRectangle;overflow=hidden;connectable=0;fillColor=none;top=0;left=0;bottom=0;right=0;" parent="t-x6DculrCber3R86kBJ-7" vertex="1">
          <mxGeometry width="30" height="30" as="geometry">
            <mxRectangle width="30" height="30" as="alternateBounds" />
          </mxGeometry>
        </mxCell>
        <mxCell id="t-x6DculrCber3R86kBJ-9" value="UpdateAt" style="shape=partialRectangle;overflow=hidden;connectable=0;fillColor=none;top=0;left=0;bottom=0;right=0;align=left;spacingLeft=6;" parent="t-x6DculrCber3R86kBJ-7" vertex="1">
          <mxGeometry x="30" width="220" height="30" as="geometry">
            <mxRectangle width="220" height="30" as="alternateBounds" />
          </mxGeometry>
        </mxCell>
        <mxCell id="t-x6DculrCber3R86kBJ-10" value="" style="shape=partialRectangle;collapsible=0;dropTarget=0;pointerEvents=0;fillColor=none;points=[[0,0.5],[1,0.5]];portConstraint=eastwest;top=0;left=0;right=0;bottom=0;" parent="1Dr5Wn48vp1fXAIpc7qz-103" vertex="1">
          <mxGeometry y="180" width="250" height="30" as="geometry" />
        </mxCell>
        <mxCell id="t-x6DculrCber3R86kBJ-11" value="" style="shape=partialRectangle;overflow=hidden;connectable=0;fillColor=none;top=0;left=0;bottom=0;right=0;" parent="t-x6DculrCber3R86kBJ-10" vertex="1">
          <mxGeometry width="30" height="30" as="geometry">
            <mxRectangle width="30" height="30" as="alternateBounds" />
          </mxGeometry>
        </mxCell>
        <mxCell id="t-x6DculrCber3R86kBJ-12" value="Type" style="shape=partialRectangle;overflow=hidden;connectable=0;fillColor=none;top=0;left=0;bottom=0;right=0;align=left;spacingLeft=6;" parent="t-x6DculrCber3R86kBJ-10" vertex="1">
          <mxGeometry x="30" width="220" height="30" as="geometry">
            <mxRectangle width="220" height="30" as="alternateBounds" />
          </mxGeometry>
        </mxCell>
        <mxCell id="t-x6DculrCber3R86kBJ-16" value="" style="shape=partialRectangle;collapsible=0;dropTarget=0;pointerEvents=0;fillColor=none;points=[[0,0.5],[1,0.5]];portConstraint=eastwest;top=0;left=0;right=0;bottom=0;" parent="1Dr5Wn48vp1fXAIpc7qz-103" vertex="1">
          <mxGeometry y="210" width="250" height="30" as="geometry" />
        </mxCell>
        <mxCell id="t-x6DculrCber3R86kBJ-17" value="" style="shape=partialRectangle;overflow=hidden;connectable=0;fillColor=none;top=0;left=0;bottom=0;right=0;" parent="t-x6DculrCber3R86kBJ-16" vertex="1">
          <mxGeometry width="30" height="30" as="geometry">
            <mxRectangle width="30" height="30" as="alternateBounds" />
          </mxGeometry>
        </mxCell>
        <mxCell id="t-x6DculrCber3R86kBJ-18" value="NumberOfLike" style="shape=partialRectangle;overflow=hidden;connectable=0;fillColor=none;top=0;left=0;bottom=0;right=0;align=left;spacingLeft=6;" parent="t-x6DculrCber3R86kBJ-16" vertex="1">
          <mxGeometry x="30" width="220" height="30" as="geometry">
            <mxRectangle width="220" height="30" as="alternateBounds" />
          </mxGeometry>
        </mxCell>
        <mxCell id="dG1rvmGHPo0hxSBDHyah-8" value="" style="shape=partialRectangle;collapsible=0;dropTarget=0;pointerEvents=0;fillColor=none;points=[[0,0.5],[1,0.5]];portConstraint=eastwest;top=0;left=0;right=0;bottom=0;" parent="1Dr5Wn48vp1fXAIpc7qz-103" vertex="1">
          <mxGeometry y="240" width="250" height="30" as="geometry" />
        </mxCell>
        <mxCell id="dG1rvmGHPo0hxSBDHyah-9" value="" style="shape=partialRectangle;overflow=hidden;connectable=0;fillColor=none;top=0;left=0;bottom=0;right=0;" parent="dG1rvmGHPo0hxSBDHyah-8" vertex="1">
          <mxGeometry width="30" height="30" as="geometry">
            <mxRectangle width="30" height="30" as="alternateBounds" />
          </mxGeometry>
        </mxCell>
        <mxCell id="dG1rvmGHPo0hxSBDHyah-10" value="NumberOfView" style="shape=partialRectangle;overflow=hidden;connectable=0;fillColor=none;top=0;left=0;bottom=0;right=0;align=left;spacingLeft=6;" parent="dG1rvmGHPo0hxSBDHyah-8" vertex="1">
          <mxGeometry x="30" width="220" height="30" as="geometry">
            <mxRectangle width="220" height="30" as="alternateBounds" />
          </mxGeometry>
        </mxCell>
        <mxCell id="lQ6aluvmCR328Puw67HA-33" value="" style="shape=partialRectangle;collapsible=0;dropTarget=0;pointerEvents=0;fillColor=none;points=[[0,0.5],[1,0.5]];portConstraint=eastwest;top=0;left=0;right=0;bottom=0;" parent="1Dr5Wn48vp1fXAIpc7qz-103" vertex="1">
          <mxGeometry y="270" width="250" height="30" as="geometry" />
        </mxCell>
        <mxCell id="lQ6aluvmCR328Puw67HA-34" value="" style="shape=partialRectangle;overflow=hidden;connectable=0;fillColor=none;top=0;left=0;bottom=0;right=0;" parent="lQ6aluvmCR328Puw67HA-33" vertex="1">
          <mxGeometry width="30" height="30" as="geometry">
            <mxRectangle width="30" height="30" as="alternateBounds" />
          </mxGeometry>
        </mxCell>
        <mxCell id="lQ6aluvmCR328Puw67HA-35" value="Status" style="shape=partialRectangle;overflow=hidden;connectable=0;fillColor=none;top=0;left=0;bottom=0;right=0;align=left;spacingLeft=6;" parent="lQ6aluvmCR328Puw67HA-33" vertex="1">
          <mxGeometry x="30" width="220" height="30" as="geometry">
            <mxRectangle width="220" height="30" as="alternateBounds" />
          </mxGeometry>
        </mxCell>
        <mxCell id="lQ6aluvmCR328Puw67HA-79" value="" style="shape=partialRectangle;collapsible=0;dropTarget=0;pointerEvents=0;fillColor=none;points=[[0,0.5],[1,0.5]];portConstraint=eastwest;top=0;left=0;right=0;bottom=0;" parent="1Dr5Wn48vp1fXAIpc7qz-103" vertex="1">
          <mxGeometry y="300" width="250" height="30" as="geometry" />
        </mxCell>
        <mxCell id="lQ6aluvmCR328Puw67HA-80" value="" style="shape=partialRectangle;overflow=hidden;connectable=0;fillColor=none;top=0;left=0;bottom=0;right=0;" parent="lQ6aluvmCR328Puw67HA-79" vertex="1">
          <mxGeometry width="30" height="30" as="geometry">
            <mxRectangle width="30" height="30" as="alternateBounds" />
          </mxGeometry>
        </mxCell>
        <mxCell id="lQ6aluvmCR328Puw67HA-81" value="CreateAt" style="shape=partialRectangle;overflow=hidden;connectable=0;fillColor=none;top=0;left=0;bottom=0;right=0;align=left;spacingLeft=6;" parent="lQ6aluvmCR328Puw67HA-79" vertex="1">
          <mxGeometry x="30" width="220" height="30" as="geometry">
            <mxRectangle width="220" height="30" as="alternateBounds" />
          </mxGeometry>
        </mxCell>
        <mxCell id="lQ6aluvmCR328Puw67HA-82" value="" style="shape=partialRectangle;collapsible=0;dropTarget=0;pointerEvents=0;fillColor=none;points=[[0,0.5],[1,0.5]];portConstraint=eastwest;top=0;left=0;right=0;bottom=0;" parent="1Dr5Wn48vp1fXAIpc7qz-103" vertex="1">
          <mxGeometry y="330" width="250" height="30" as="geometry" />
        </mxCell>
        <mxCell id="lQ6aluvmCR328Puw67HA-83" value="" style="shape=partialRectangle;overflow=hidden;connectable=0;fillColor=none;top=0;left=0;bottom=0;right=0;" parent="lQ6aluvmCR328Puw67HA-82" vertex="1">
          <mxGeometry width="30" height="30" as="geometry">
            <mxRectangle width="30" height="30" as="alternateBounds" />
          </mxGeometry>
        </mxCell>
        <mxCell id="lQ6aluvmCR328Puw67HA-84" value="UpdateAt" style="shape=partialRectangle;overflow=hidden;connectable=0;fillColor=none;top=0;left=0;bottom=0;right=0;align=left;spacingLeft=6;" parent="lQ6aluvmCR328Puw67HA-82" vertex="1">
          <mxGeometry x="30" width="220" height="30" as="geometry">
            <mxRectangle width="220" height="30" as="alternateBounds" />
          </mxGeometry>
        </mxCell>
        <mxCell id="1Dr5Wn48vp1fXAIpc7qz-113" value="" style="shape=partialRectangle;collapsible=0;dropTarget=0;pointerEvents=0;fillColor=none;points=[[0,0.5],[1,0.5]];portConstraint=eastwest;top=0;left=0;right=0;bottom=0;" parent="1Dr5Wn48vp1fXAIpc7qz-103" vertex="1">
          <mxGeometry y="360" width="250" height="30" as="geometry" />
        </mxCell>
        <mxCell id="1Dr5Wn48vp1fXAIpc7qz-114" value="FK" style="shape=partialRectangle;overflow=hidden;connectable=0;fillColor=none;top=0;left=0;bottom=0;right=0;" parent="1Dr5Wn48vp1fXAIpc7qz-113" vertex="1">
          <mxGeometry width="30" height="30" as="geometry">
            <mxRectangle width="30" height="30" as="alternateBounds" />
          </mxGeometry>
        </mxCell>
        <mxCell id="1Dr5Wn48vp1fXAIpc7qz-115" value="UserId" style="shape=partialRectangle;overflow=hidden;connectable=0;fillColor=none;top=0;left=0;bottom=0;right=0;align=left;spacingLeft=6;" parent="1Dr5Wn48vp1fXAIpc7qz-113" vertex="1">
          <mxGeometry x="30" width="220" height="30" as="geometry">
            <mxRectangle width="220" height="30" as="alternateBounds" />
          </mxGeometry>
        </mxCell>
        <mxCell id="lQ6aluvmCR328Puw67HA-17" value="CategoryDetails" style="shape=table;startSize=30;container=1;collapsible=1;childLayout=tableLayout;fixedRows=1;rowLines=0;fontStyle=1;align=center;resizeLast=1;html=1;whiteSpace=wrap;" parent="1" vertex="1">
          <mxGeometry x="30" y="-170" width="180" height="90" as="geometry" />
        </mxCell>
        <mxCell id="lQ6aluvmCR328Puw67HA-18" value="" style="shape=tableRow;horizontal=0;startSize=0;swimlaneHead=0;swimlaneBody=0;fillColor=none;collapsible=0;dropTarget=0;points=[[0,0.5],[1,0.5]];portConstraint=eastwest;top=0;left=0;right=0;bottom=0;html=1;" parent="lQ6aluvmCR328Puw67HA-17" vertex="1">
          <mxGeometry y="30" width="180" height="30" as="geometry" />
        </mxCell>
        <mxCell id="lQ6aluvmCR328Puw67HA-19" value="PK,FK" style="shape=partialRectangle;connectable=0;fillColor=none;top=0;left=0;bottom=0;right=0;fontStyle=1;overflow=hidden;html=1;whiteSpace=wrap;" parent="lQ6aluvmCR328Puw67HA-18" vertex="1">
          <mxGeometry width="60" height="30" as="geometry">
            <mxRectangle width="60" height="30" as="alternateBounds" />
          </mxGeometry>
        </mxCell>
        <mxCell id="lQ6aluvmCR328Puw67HA-20" value="CategoryId" style="shape=partialRectangle;connectable=0;fillColor=none;top=0;left=0;bottom=0;right=0;align=left;spacingLeft=6;fontStyle=5;overflow=hidden;html=1;whiteSpace=wrap;" parent="lQ6aluvmCR328Puw67HA-18" vertex="1">
          <mxGeometry x="60" width="120" height="30" as="geometry">
            <mxRectangle width="120" height="30" as="alternateBounds" />
          </mxGeometry>
        </mxCell>
        <mxCell id="lQ6aluvmCR328Puw67HA-21" value="" style="shape=tableRow;horizontal=0;startSize=0;swimlaneHead=0;swimlaneBody=0;fillColor=none;collapsible=0;dropTarget=0;points=[[0,0.5],[1,0.5]];portConstraint=eastwest;top=0;left=0;right=0;bottom=1;html=1;" parent="lQ6aluvmCR328Puw67HA-17" vertex="1">
          <mxGeometry y="60" width="180" height="30" as="geometry" />
        </mxCell>
        <mxCell id="lQ6aluvmCR328Puw67HA-22" value="PK,FK" style="shape=partialRectangle;connectable=0;fillColor=none;top=0;left=0;bottom=0;right=0;fontStyle=1;overflow=hidden;html=1;whiteSpace=wrap;" parent="lQ6aluvmCR328Puw67HA-21" vertex="1">
          <mxGeometry width="60" height="30" as="geometry">
            <mxRectangle width="60" height="30" as="alternateBounds" />
          </mxGeometry>
        </mxCell>
        <mxCell id="lQ6aluvmCR328Puw67HA-23" value="ProductId" style="shape=partialRectangle;connectable=0;fillColor=none;top=0;left=0;bottom=0;right=0;align=left;spacingLeft=6;fontStyle=5;overflow=hidden;html=1;whiteSpace=wrap;" parent="lQ6aluvmCR328Puw67HA-21" vertex="1">
          <mxGeometry x="60" width="120" height="30" as="geometry">
            <mxRectangle width="120" height="30" as="alternateBounds" />
          </mxGeometry>
        </mxCell>
        <mxCell id="lQ6aluvmCR328Puw67HA-103" value="" style="edgeStyle=entityRelationEdgeStyle;fontSize=12;html=1;endArrow=ERoneToMany;startArrow=ERmandOne;rounded=0;exitX=0;exitY=0.5;exitDx=0;exitDy=0;" parent="1" source="C-vyLk0tnHw3VtMMgP7b-24" target="1Dr5Wn48vp1fXAIpc7qz-8" edge="1">
          <mxGeometry width="100" height="100" relative="1" as="geometry">
            <mxPoint x="-1190" y="-70" as="sourcePoint" />
            <mxPoint x="-1090" y="-170" as="targetPoint" />
          </mxGeometry>
        </mxCell>
        <mxCell id="lQ6aluvmCR328Puw67HA-104" value="" style="edgeStyle=entityRelationEdgeStyle;fontSize=12;html=1;endArrow=ERoneToMany;startArrow=ERmandOne;rounded=0;" parent="1" source="NhydXZ_Yz9shMUNp317F-22" target="1Dr5Wn48vp1fXAIpc7qz-5" edge="1">
          <mxGeometry width="100" height="100" relative="1" as="geometry">
            <mxPoint x="-1470" y="-465" as="sourcePoint" />
            <mxPoint x="-990" y="-245" as="targetPoint" />
          </mxGeometry>
        </mxCell>
        <mxCell id="lQ6aluvmCR328Puw67HA-107" value="" style="edgeStyle=entityRelationEdgeStyle;fontSize=12;html=1;endArrow=ERzeroToMany;startArrow=ERmandOne;rounded=0;" parent="1" source="C-vyLk0tnHw3VtMMgP7b-24" target="1Dr5Wn48vp1fXAIpc7qz-42" edge="1">
          <mxGeometry width="100" height="100" relative="1" as="geometry">
            <mxPoint x="-550" y="-110" as="sourcePoint" />
            <mxPoint x="-450" y="-210" as="targetPoint" />
          </mxGeometry>
        </mxCell>
        <mxCell id="lQ6aluvmCR328Puw67HA-108" value="" style="edgeStyle=entityRelationEdgeStyle;fontSize=12;html=1;endArrow=ERoneToMany;startArrow=ERmandOne;rounded=0;" parent="1" source="C-vyLk0tnHw3VtMMgP7b-14" target="1Dr5Wn48vp1fXAIpc7qz-23" edge="1">
          <mxGeometry width="100" height="100" relative="1" as="geometry">
            <mxPoint x="-40" y="-90" as="sourcePoint" />
            <mxPoint x="-145" y="460" as="targetPoint" />
          </mxGeometry>
        </mxCell>
        <mxCell id="lQ6aluvmCR328Puw67HA-109" value="" style="edgeStyle=entityRelationEdgeStyle;fontSize=12;html=1;endArrow=ERoneToMany;startArrow=ERmandOne;rounded=0;" parent="1" source="C-vyLk0tnHw3VtMMgP7b-14" target="lQ6aluvmCR328Puw67HA-76" edge="1">
          <mxGeometry width="100" height="100" relative="1" as="geometry">
            <mxPoint x="130" y="-260" as="sourcePoint" />
            <mxPoint x="-680" y="130" as="targetPoint" />
          </mxGeometry>
        </mxCell>
        <mxCell id="lQ6aluvmCR328Puw67HA-110" value="" style="edgeStyle=entityRelationEdgeStyle;fontSize=12;html=1;endArrow=ERoneToMany;startArrow=ERmandOne;rounded=0;exitX=0;exitY=0.5;exitDx=0;exitDy=0;entryX=1;entryY=0.5;entryDx=0;entryDy=0;" parent="1" source="NhydXZ_Yz9shMUNp317F-32" target="lQ6aluvmCR328Puw67HA-18" edge="1">
          <mxGeometry width="100" height="100" relative="1" as="geometry">
            <mxPoint x="110" y="-255" as="sourcePoint" />
            <mxPoint x="540" y="-270" as="targetPoint" />
          </mxGeometry>
        </mxCell>
        <mxCell id="lQ6aluvmCR328Puw67HA-111" value="" style="edgeStyle=entityRelationEdgeStyle;fontSize=12;html=1;endArrow=ERoneToMany;startArrow=ERmandOne;rounded=0;entryX=0;entryY=0.5;entryDx=0;entryDy=0;" parent="1" source="C-vyLk0tnHw3VtMMgP7b-14" target="lQ6aluvmCR328Puw67HA-21" edge="1">
          <mxGeometry width="100" height="100" relative="1" as="geometry">
            <mxPoint x="520" y="-460" as="sourcePoint" />
            <mxPoint x="390" y="-410" as="targetPoint" />
          </mxGeometry>
        </mxCell>
        <mxCell id="lQ6aluvmCR328Puw67HA-123" value="" style="edgeStyle=entityRelationEdgeStyle;fontSize=12;html=1;endArrow=ERzeroToMany;startArrow=ERmandOne;rounded=0;" parent="1" source="C-vyLk0tnHw3VtMMgP7b-24" target="1Dr5Wn48vp1fXAIpc7qz-113" edge="1">
          <mxGeometry width="100" height="100" relative="1" as="geometry">
            <mxPoint x="-1540" y="-670" as="sourcePoint" />
            <mxPoint x="-1440" y="-770" as="targetPoint" />
          </mxGeometry>
        </mxCell>
        <mxCell id="lQ6aluvmCR328Puw67HA-124" value="" style="edgeStyle=entityRelationEdgeStyle;fontSize=12;html=1;endArrow=ERzeroToMany;startArrow=ERmandOne;rounded=0;entryX=0;entryY=0.5;entryDx=0;entryDy=0;" parent="1" source="C-vyLk0tnHw3VtMMgP7b-24" target="1Dr5Wn48vp1fXAIpc7qz-82" edge="1">
          <mxGeometry width="100" height="100" relative="1" as="geometry">
            <mxPoint x="-870" y="-445" as="sourcePoint" />
            <mxPoint x="-930" y="-725" as="targetPoint" />
          </mxGeometry>
        </mxCell>
        <mxCell id="lQ6aluvmCR328Puw67HA-125" value="" style="edgeStyle=entityRelationEdgeStyle;fontSize=12;html=1;endArrow=ERzeroToMany;startArrow=ERmandOne;rounded=0;entryX=0;entryY=0.5;entryDx=0;entryDy=0;" parent="1" source="C-vyLk0tnHw3VtMMgP7b-24" target="1Dr5Wn48vp1fXAIpc7qz-100" edge="1">
          <mxGeometry width="100" height="100" relative="1" as="geometry">
            <mxPoint x="-870" y="-445" as="sourcePoint" />
            <mxPoint x="-680" y="-705" as="targetPoint" />
          </mxGeometry>
        </mxCell>
        <mxCell id="lQ6aluvmCR328Puw67HA-127" value="" style="edgeStyle=entityRelationEdgeStyle;fontSize=12;html=1;endArrow=ERzeroToMany;startArrow=ERmandOne;rounded=0;" parent="1" source="C-vyLk0tnHw3VtMMgP7b-24" target="aXpIA_H2Vuaz1M_FIlEh-44" edge="1">
          <mxGeometry width="100" height="100" relative="1" as="geometry">
            <mxPoint x="-870" y="-445" as="sourcePoint" />
            <mxPoint x="-350" y="-715" as="targetPoint" />
          </mxGeometry>
        </mxCell>
        <mxCell id="lQ6aluvmCR328Puw67HA-128" value="" style="edgeStyle=entityRelationEdgeStyle;fontSize=12;html=1;endArrow=ERmandOne;startArrow=ERmandOne;rounded=0;" parent="1" source="aXpIA_H2Vuaz1M_FIlEh-23" target="lQ6aluvmCR328Puw67HA-119" edge="1">
          <mxGeometry width="100" height="100" relative="1" as="geometry">
            <mxPoint x="-70" y="-340" as="sourcePoint" />
            <mxPoint x="30" y="-440" as="targetPoint" />
          </mxGeometry>
        </mxCell>
        <mxCell id="lQ6aluvmCR328Puw67HA-131" value="" style="edgeStyle=entityRelationEdgeStyle;fontSize=12;html=1;endArrow=ERzeroToOne;startArrow=ERmandOne;rounded=0;" parent="1" source="C-vyLk0tnHw3VtMMgP7b-14" target="1Dr5Wn48vp1fXAIpc7qz-88" edge="1">
          <mxGeometry width="100" height="100" relative="1" as="geometry">
            <mxPoint x="-650" y="-180" as="sourcePoint" />
            <mxPoint x="-510" y="-560" as="targetPoint" />
          </mxGeometry>
        </mxCell>
        <mxCell id="lQ6aluvmCR328Puw67HA-132" value="" style="edgeStyle=entityRelationEdgeStyle;fontSize=12;html=1;endArrow=ERzeroToOne;startArrow=ERmandOne;rounded=0;" parent="1" source="mRnEDXr1XP2CcGiVnwVz-20" target="1Dr5Wn48vp1fXAIpc7qz-85" edge="1">
          <mxGeometry width="100" height="100" relative="1" as="geometry">
            <mxPoint x="-260" y="-155" as="sourcePoint" />
            <mxPoint x="-500" y="-735" as="targetPoint" />
          </mxGeometry>
        </mxCell>
      </root>
    </mxGraphModel>
  </diagram>
  <diagram name="Class Driagram" id="aspW0xgQOPaV4zoqWbR8">
    <mxGraphModel dx="2587" dy="1531" grid="1" gridSize="10" guides="1" tooltips="1" connect="1" arrows="1" fold="1" page="1" pageScale="1" pageWidth="827" pageHeight="1169" math="0" shadow="0">
      <root>
        <mxCell id="0" />
        <mxCell id="1" parent="0" />
        <mxCell id="8apjI4VvJdJm8n3pOVWq-5" value="Users" style="swimlane;fontStyle=1;align=center;verticalAlign=top;childLayout=stackLayout;horizontal=1;startSize=26;horizontalStack=0;resizeParent=1;resizeParentMax=0;resizeLast=0;collapsible=1;marginBottom=0;whiteSpace=wrap;html=1;" parent="1" vertex="1">
          <mxGeometry x="-400" y="-440" width="280" height="606" as="geometry" />
        </mxCell>
        <mxCell id="8apjI4VvJdJm8n3pOVWq-6" value="+ &lt;span style=&quot;text-wrap: nowrap;&quot;&gt;Id&lt;/span&gt;: GUID" style="text;strokeColor=none;fillColor=none;align=left;verticalAlign=top;spacingLeft=4;spacingRight=4;overflow=hidden;rotatable=0;points=[[0,0.5],[1,0.5]];portConstraint=eastwest;whiteSpace=wrap;html=1;fontStyle=0;labelBackgroundColor=none;fontColor=#f50a0a;" parent="8apjI4VvJdJm8n3pOVWq-5" vertex="1">
          <mxGeometry y="26" width="280" height="26" as="geometry" />
        </mxCell>
        <mxCell id="1quKUc_NqbWNeFptT3rC-43" value="+ UserName:&amp;nbsp;nvarchar(32)" style="text;strokeColor=none;fillColor=none;align=left;verticalAlign=top;spacingLeft=4;spacingRight=4;overflow=hidden;rotatable=0;points=[[0,0.5],[1,0.5]];portConstraint=eastwest;whiteSpace=wrap;html=1;fontStyle=0;labelBackgroundColor=none;fontColor=#e60a0a;" parent="8apjI4VvJdJm8n3pOVWq-5" vertex="1">
          <mxGeometry y="52" width="280" height="26" as="geometry" />
        </mxCell>
        <mxCell id="1quKUc_NqbWNeFptT3rC-42" value="+ DisplayName:&amp;nbsp;nvarchar(256)" style="text;strokeColor=none;fillColor=none;align=left;verticalAlign=top;spacingLeft=4;spacingRight=4;overflow=hidden;rotatable=0;points=[[0,0.5],[1,0.5]];portConstraint=eastwest;whiteSpace=wrap;html=1;" parent="8apjI4VvJdJm8n3pOVWq-5" vertex="1">
          <mxGeometry y="78" width="280" height="26" as="geometry" />
        </mxCell>
        <mxCell id="1quKUc_NqbWNeFptT3rC-41" value="+ Email:&amp;nbsp;nvarchar(320)" style="text;strokeColor=none;fillColor=none;align=left;verticalAlign=top;spacingLeft=4;spacingRight=4;overflow=hidden;rotatable=0;points=[[0,0.5],[1,0.5]];portConstraint=eastwest;whiteSpace=wrap;html=1;fontStyle=0;fontColor=#f70808;" parent="8apjI4VvJdJm8n3pOVWq-5" vertex="1">
          <mxGeometry y="104" width="280" height="26" as="geometry" />
        </mxCell>
        <mxCell id="1quKUc_NqbWNeFptT3rC-40" value="+ PasswordHash:&amp;nbsp;nvarchar(MAX)" style="text;strokeColor=none;fillColor=none;align=left;verticalAlign=top;spacingLeft=4;spacingRight=4;overflow=hidden;rotatable=0;points=[[0,0.5],[1,0.5]];portConstraint=eastwest;whiteSpace=wrap;html=1;fontStyle=0;fontColor=#dd0e0e;" parent="8apjI4VvJdJm8n3pOVWq-5" vertex="1">
          <mxGeometry y="130" width="280" height="26" as="geometry" />
        </mxCell>
        <mxCell id="1quKUc_NqbWNeFptT3rC-39" value="+ Avatar:&amp;nbsp;nvarchar(MAX)" style="text;strokeColor=none;fillColor=none;align=left;verticalAlign=top;spacingLeft=4;spacingRight=4;overflow=hidden;rotatable=0;points=[[0,0.5],[1,0.5]];portConstraint=eastwest;whiteSpace=wrap;html=1;fontStyle=0" parent="8apjI4VvJdJm8n3pOVWq-5" vertex="1">
          <mxGeometry y="156" width="280" height="26" as="geometry" />
        </mxCell>
        <mxCell id="1quKUc_NqbWNeFptT3rC-46" value="+&lt;span style=&quot;text-wrap: nowrap;&quot;&gt;&amp;nbsp;PhoneNumber:&amp;nbsp;nvarchar(15)&lt;/span&gt;" style="text;strokeColor=none;fillColor=none;align=left;verticalAlign=top;spacingLeft=4;spacingRight=4;overflow=hidden;rotatable=0;points=[[0,0.5],[1,0.5]];portConstraint=eastwest;whiteSpace=wrap;html=1;fontStyle=0;fontColor=#e81717;" parent="8apjI4VvJdJm8n3pOVWq-5" vertex="1">
          <mxGeometry y="182" width="280" height="26" as="geometry" />
        </mxCell>
        <mxCell id="1quKUc_NqbWNeFptT3rC-48" value="&lt;font color=&quot;#ff0000&quot;&gt;+ &lt;span style=&quot;text-wrap: nowrap;&quot;&gt;Status:&amp;nbsp;int&lt;/span&gt;&lt;/font&gt;" style="text;strokeColor=none;fillColor=none;align=left;verticalAlign=top;spacingLeft=4;spacingRight=4;overflow=hidden;rotatable=0;points=[[0,0.5],[1,0.5]];portConstraint=eastwest;whiteSpace=wrap;html=1;" parent="8apjI4VvJdJm8n3pOVWq-5" vertex="1">
          <mxGeometry y="208" width="280" height="26" as="geometry" />
        </mxCell>
        <mxCell id="1quKUc_NqbWNeFptT3rC-49" value="+&amp;nbsp;EmailConfirmed:&amp;nbsp;bit" style="text;strokeColor=none;fillColor=none;align=left;verticalAlign=top;spacingLeft=4;spacingRight=4;overflow=hidden;rotatable=0;points=[[0,0.5],[1,0.5]];portConstraint=eastwest;whiteSpace=wrap;html=1;fontColor=#e70d0d;" parent="8apjI4VvJdJm8n3pOVWq-5" vertex="1">
          <mxGeometry y="234" width="280" height="26" as="geometry" />
        </mxCell>
        <mxCell id="1quKUc_NqbWNeFptT3rC-50" value="+ &lt;span style=&quot;text-wrap: nowrap;&quot;&gt;CreateAt:&amp;nbsp;datetime2(7)&lt;/span&gt;" style="text;strokeColor=none;fillColor=none;align=left;verticalAlign=top;spacingLeft=4;spacingRight=4;overflow=hidden;rotatable=0;points=[[0,0.5],[1,0.5]];portConstraint=eastwest;whiteSpace=wrap;html=1;" parent="8apjI4VvJdJm8n3pOVWq-5" vertex="1">
          <mxGeometry y="260" width="280" height="26" as="geometry" />
        </mxCell>
        <mxCell id="1quKUc_NqbWNeFptT3rC-51" value="+ &lt;span style=&quot;text-wrap: nowrap;&quot;&gt;UpdateAt:&amp;nbsp;datetime2(7)&lt;/span&gt;" style="text;strokeColor=none;fillColor=none;align=left;verticalAlign=top;spacingLeft=4;spacingRight=4;overflow=hidden;rotatable=0;points=[[0,0.5],[1,0.5]];portConstraint=eastwest;whiteSpace=wrap;html=1;" parent="8apjI4VvJdJm8n3pOVWq-5" vertex="1">
          <mxGeometry y="286" width="280" height="26" as="geometry" />
        </mxCell>
        <mxCell id="8apjI4VvJdJm8n3pOVWq-7" value="" style="line;strokeWidth=1;fillColor=none;align=left;verticalAlign=middle;spacingTop=-1;spacingLeft=3;spacingRight=3;rotatable=0;labelPosition=right;points=[];portConstraint=eastwest;strokeColor=inherit;" parent="8apjI4VvJdJm8n3pOVWq-5" vertex="1">
          <mxGeometry y="312" width="280" height="8" as="geometry" />
        </mxCell>
        <mxCell id="8apjI4VvJdJm8n3pOVWq-8" value="+ Login(): void" style="text;strokeColor=none;fillColor=none;align=left;verticalAlign=top;spacingLeft=4;spacingRight=4;overflow=hidden;rotatable=0;points=[[0,0.5],[1,0.5]];portConstraint=eastwest;whiteSpace=wrap;html=1;" parent="8apjI4VvJdJm8n3pOVWq-5" vertex="1">
          <mxGeometry y="320" width="280" height="26" as="geometry" />
        </mxCell>
        <mxCell id="1quKUc_NqbWNeFptT3rC-57" value="+ Register(): void" style="text;strokeColor=none;fillColor=none;align=left;verticalAlign=top;spacingLeft=4;spacingRight=4;overflow=hidden;rotatable=0;points=[[0,0.5],[1,0.5]];portConstraint=eastwest;whiteSpace=wrap;html=1;" parent="8apjI4VvJdJm8n3pOVWq-5" vertex="1">
          <mxGeometry y="346" width="280" height="26" as="geometry" />
        </mxCell>
        <mxCell id="1quKUc_NqbWNeFptT3rC-56" value="+ ChangePassword(): void" style="text;strokeColor=none;fillColor=none;align=left;verticalAlign=top;spacingLeft=4;spacingRight=4;overflow=hidden;rotatable=0;points=[[0,0.5],[1,0.5]];portConstraint=eastwest;whiteSpace=wrap;html=1;" parent="8apjI4VvJdJm8n3pOVWq-5" vertex="1">
          <mxGeometry y="372" width="280" height="26" as="geometry" />
        </mxCell>
        <mxCell id="1quKUc_NqbWNeFptT3rC-55" value="+ ForgotPassword(): void" style="text;strokeColor=none;fillColor=none;align=left;verticalAlign=top;spacingLeft=4;spacingRight=4;overflow=hidden;rotatable=0;points=[[0,0.5],[1,0.5]];portConstraint=eastwest;whiteSpace=wrap;html=1;" parent="8apjI4VvJdJm8n3pOVWq-5" vertex="1">
          <mxGeometry y="398" width="280" height="26" as="geometry" />
        </mxCell>
        <mxCell id="1quKUc_NqbWNeFptT3rC-52" value="+ LoginWithGG(): void" style="text;strokeColor=none;fillColor=none;align=left;verticalAlign=top;spacingLeft=4;spacingRight=4;overflow=hidden;rotatable=0;points=[[0,0.5],[1,0.5]];portConstraint=eastwest;whiteSpace=wrap;html=1;" parent="8apjI4VvJdJm8n3pOVWq-5" vertex="1">
          <mxGeometry y="424" width="280" height="26" as="geometry" />
        </mxCell>
        <mxCell id="ornGjPiPLZXC5NBVku-S-5" value="+ (CRUD)_User(): void" style="text;strokeColor=none;fillColor=none;align=left;verticalAlign=top;spacingLeft=4;spacingRight=4;overflow=hidden;rotatable=0;points=[[0,0.5],[1,0.5]];portConstraint=eastwest;whiteSpace=wrap;html=1;" parent="8apjI4VvJdJm8n3pOVWq-5" vertex="1">
          <mxGeometry y="450" width="280" height="26" as="geometry" />
        </mxCell>
        <mxCell id="iOtx_4MhGi3p2n4ZiA7R-120" value="+ FindUserById(Guid id): GUID" style="text;strokeColor=none;fillColor=none;align=left;verticalAlign=top;spacingLeft=4;spacingRight=4;overflow=hidden;rotatable=0;points=[[0,0.5],[1,0.5]];portConstraint=eastwest;whiteSpace=wrap;html=1;" parent="8apjI4VvJdJm8n3pOVWq-5" vertex="1">
          <mxGeometry y="476" width="280" height="26" as="geometry" />
        </mxCell>
        <mxCell id="9G57J4pVl6Bl1tD5o5WJ-1" value="+ FindByName(string username): string" style="text;strokeColor=none;fillColor=none;align=left;verticalAlign=top;spacingLeft=4;spacingRight=4;overflow=hidden;rotatable=0;points=[[0,0.5],[1,0.5]];portConstraint=eastwest;whiteSpace=wrap;html=1;" parent="8apjI4VvJdJm8n3pOVWq-5" vertex="1">
          <mxGeometry y="502" width="280" height="26" as="geometry" />
        </mxCell>
        <mxCell id="9G57J4pVl6Bl1tD5o5WJ-2" value="+ FindByEmail(string email): string" style="text;strokeColor=none;fillColor=none;align=left;verticalAlign=top;spacingLeft=4;spacingRight=4;overflow=hidden;rotatable=0;points=[[0,0.5],[1,0.5]];portConstraint=eastwest;whiteSpace=wrap;html=1;" parent="8apjI4VvJdJm8n3pOVWq-5" vertex="1">
          <mxGeometry y="528" width="280" height="26" as="geometry" />
        </mxCell>
        <mxCell id="9G57J4pVl6Bl1tD5o5WJ-3" value="+ FindByPhone(string phone): string" style="text;strokeColor=none;fillColor=none;align=left;verticalAlign=top;spacingLeft=4;spacingRight=4;overflow=hidden;rotatable=0;points=[[0,0.5],[1,0.5]];portConstraint=eastwest;whiteSpace=wrap;html=1;" parent="8apjI4VvJdJm8n3pOVWq-5" vertex="1">
          <mxGeometry y="554" width="280" height="26" as="geometry" />
        </mxCell>
        <mxCell id="DgXVLJGT-iipQnpZu61F-50" value="+ GetAllCommentHistory: void" style="text;strokeColor=none;fillColor=none;align=left;verticalAlign=top;spacingLeft=4;spacingRight=4;overflow=hidden;rotatable=0;points=[[0,0.5],[1,0.5]];portConstraint=eastwest;whiteSpace=wrap;html=1;fontColor=#080808;" parent="8apjI4VvJdJm8n3pOVWq-5" vertex="1">
          <mxGeometry y="580" width="280" height="26" as="geometry" />
        </mxCell>
        <mxCell id="hHd0Z3waEogptwmeNchr-1" value="&lt;font color=&quot;#000000&quot;&gt;Roles&lt;/font&gt;" style="swimlane;fontStyle=1;align=center;verticalAlign=top;childLayout=stackLayout;horizontal=1;startSize=26;horizontalStack=0;resizeParent=1;resizeParentMax=0;resizeLast=0;collapsible=1;marginBottom=0;whiteSpace=wrap;html=1;fontColor=#e11414;" parent="1" vertex="1">
          <mxGeometry x="360" y="-440" width="160" height="112" as="geometry" />
        </mxCell>
        <mxCell id="hHd0Z3waEogptwmeNchr-2" value="+ Id:&amp;nbsp;&lt;span style=&quot;color: rgb(225, 9, 9);&quot;&gt;GUID&lt;/span&gt;" style="text;strokeColor=none;fillColor=none;align=left;verticalAlign=top;spacingLeft=4;spacingRight=4;overflow=hidden;rotatable=0;points=[[0,0.5],[1,0.5]];portConstraint=eastwest;whiteSpace=wrap;html=1;fontColor=#ec0404;" parent="hHd0Z3waEogptwmeNchr-1" vertex="1">
          <mxGeometry y="26" width="160" height="26" as="geometry" />
        </mxCell>
        <mxCell id="ornGjPiPLZXC5NBVku-S-1" value="+ Name:&amp;nbsp;nvarchar(30)" style="text;strokeColor=none;fillColor=none;align=left;verticalAlign=top;spacingLeft=4;spacingRight=4;overflow=hidden;rotatable=0;points=[[0,0.5],[1,0.5]];portConstraint=eastwest;whiteSpace=wrap;html=1;fontColor=#e81111;" parent="hHd0Z3waEogptwmeNchr-1" vertex="1">
          <mxGeometry y="52" width="160" height="26" as="geometry" />
        </mxCell>
        <mxCell id="hHd0Z3waEogptwmeNchr-3" value="" style="line;strokeWidth=1;fillColor=none;align=left;verticalAlign=middle;spacingTop=-1;spacingLeft=3;spacingRight=3;rotatable=0;labelPosition=right;points=[];portConstraint=eastwest;strokeColor=inherit;" parent="hHd0Z3waEogptwmeNchr-1" vertex="1">
          <mxGeometry y="78" width="160" height="8" as="geometry" />
        </mxCell>
        <mxCell id="89nSSqHbLM_ZFlrvV-uV-5" value="+ (CRUD)_Roles(): void" style="text;strokeColor=none;fillColor=none;align=left;verticalAlign=top;spacingLeft=4;spacingRight=4;overflow=hidden;rotatable=0;points=[[0,0.5],[1,0.5]];portConstraint=eastwest;whiteSpace=wrap;html=1;" parent="hHd0Z3waEogptwmeNchr-1" vertex="1">
          <mxGeometry y="86" width="160" height="26" as="geometry" />
        </mxCell>
        <mxCell id="P8FBeckHNYNT2yGD4hBQ-12" value="&lt;font color=&quot;#000000&quot;&gt;UserRoles&lt;/font&gt;" style="swimlane;fontStyle=1;align=center;verticalAlign=top;childLayout=stackLayout;horizontal=1;startSize=26;horizontalStack=0;resizeParent=1;resizeParentMax=0;resizeLast=0;collapsible=1;marginBottom=0;whiteSpace=wrap;html=1;fontColor=#f10909;" parent="1" vertex="1">
          <mxGeometry y="-453" width="160" height="138" as="geometry" />
        </mxCell>
        <mxCell id="P8FBeckHNYNT2yGD4hBQ-13" value="+&amp;nbsp;&lt;span style=&quot;&quot;&gt;UserId&lt;/span&gt;:&amp;nbsp;GUID" style="text;strokeColor=none;fillColor=none;align=left;verticalAlign=top;spacingLeft=4;spacingRight=4;overflow=hidden;rotatable=0;points=[[0,0.5],[1,0.5]];portConstraint=eastwest;whiteSpace=wrap;html=1;fontColor=#e10909;fontStyle=0" parent="P8FBeckHNYNT2yGD4hBQ-12" vertex="1">
          <mxGeometry y="26" width="160" height="26" as="geometry" />
        </mxCell>
        <mxCell id="P8FBeckHNYNT2yGD4hBQ-16" value="+&amp;nbsp;&lt;span style=&quot;&quot;&gt;RoleId&lt;/span&gt;:&amp;nbsp;&lt;span style=&quot;color: rgb(225, 9, 9);&quot;&gt;GUID&lt;/span&gt;" style="text;strokeColor=none;fillColor=none;align=left;verticalAlign=top;spacingLeft=4;spacingRight=4;overflow=hidden;rotatable=0;points=[[0,0.5],[1,0.5]];portConstraint=eastwest;whiteSpace=wrap;html=1;fontColor=#d81818;fontStyle=0" parent="P8FBeckHNYNT2yGD4hBQ-12" vertex="1">
          <mxGeometry y="52" width="160" height="26" as="geometry" />
        </mxCell>
        <mxCell id="P8FBeckHNYNT2yGD4hBQ-14" value="" style="line;strokeWidth=1;fillColor=none;align=left;verticalAlign=middle;spacingTop=-1;spacingLeft=3;spacingRight=3;rotatable=0;labelPosition=right;points=[];portConstraint=eastwest;strokeColor=inherit;" parent="P8FBeckHNYNT2yGD4hBQ-12" vertex="1">
          <mxGeometry y="78" width="160" height="8" as="geometry" />
        </mxCell>
        <mxCell id="P8FBeckHNYNT2yGD4hBQ-15" value="+ UpdateUserRoles(): void" style="text;strokeColor=none;fillColor=none;align=left;verticalAlign=top;spacingLeft=4;spacingRight=4;overflow=hidden;rotatable=0;points=[[0,0.5],[1,0.5]];portConstraint=eastwest;whiteSpace=wrap;html=1;fontColor=#080808;" parent="P8FBeckHNYNT2yGD4hBQ-12" vertex="1">
          <mxGeometry y="86" width="160" height="26" as="geometry" />
        </mxCell>
        <mxCell id="iOtx_4MhGi3p2n4ZiA7R-121" value="+ GetCurrentRoles(): void" style="text;strokeColor=none;fillColor=none;align=left;verticalAlign=top;spacingLeft=4;spacingRight=4;overflow=hidden;rotatable=0;points=[[0,0.5],[1,0.5]];portConstraint=eastwest;whiteSpace=wrap;html=1;fontColor=#080808;" parent="P8FBeckHNYNT2yGD4hBQ-12" vertex="1">
          <mxGeometry y="112" width="160" height="26" as="geometry" />
        </mxCell>
        <mxCell id="iOtx_4MhGi3p2n4ZiA7R-77" value="&lt;span style=&quot;text-wrap: nowrap;&quot;&gt;&lt;font color=&quot;#000000&quot;&gt;Collections&lt;/font&gt;&lt;/span&gt;" style="swimlane;fontStyle=1;align=center;verticalAlign=top;childLayout=stackLayout;horizontal=1;startSize=26;horizontalStack=0;resizeParent=1;resizeParentMax=0;resizeLast=0;collapsible=1;marginBottom=0;whiteSpace=wrap;html=1;fontColor=#f10909;" parent="1" vertex="1">
          <mxGeometry x="-950" y="-440" width="290" height="320" as="geometry" />
        </mxCell>
        <mxCell id="DgXVLJGT-iipQnpZu61F-29" value="+ &lt;span&gt;&lt;span&gt;Id: GUID&lt;/span&gt;&lt;/span&gt;" style="text;strokeColor=none;fillColor=none;align=left;verticalAlign=top;spacingLeft=4;spacingRight=4;overflow=hidden;rotatable=0;points=[[0,0.5],[1,0.5]];portConstraint=eastwest;whiteSpace=wrap;html=1;fontColor=#e10909;fontStyle=0" parent="iOtx_4MhGi3p2n4ZiA7R-77" vertex="1">
          <mxGeometry y="26" width="290" height="26" as="geometry" />
        </mxCell>
        <mxCell id="DgXVLJGT-iipQnpZu61F-35" value="+ &lt;span&gt;&lt;span&gt;Name: nvachar(256)&lt;/span&gt;&lt;/span&gt;" style="text;strokeColor=none;fillColor=none;align=left;verticalAlign=top;spacingLeft=4;spacingRight=4;overflow=hidden;rotatable=0;points=[[0,0.5],[1,0.5]];portConstraint=eastwest;whiteSpace=wrap;html=1;fontColor=#e10909;fontStyle=0" parent="iOtx_4MhGi3p2n4ZiA7R-77" vertex="1">
          <mxGeometry y="52" width="290" height="26" as="geometry" />
        </mxCell>
        <mxCell id="DgXVLJGT-iipQnpZu61F-30" value="+ Type: int" style="text;strokeColor=none;fillColor=none;align=left;verticalAlign=top;spacingLeft=4;spacingRight=4;overflow=hidden;rotatable=0;points=[[0,0.5],[1,0.5]];portConstraint=eastwest;whiteSpace=wrap;html=1;fontColor=#e10909;" parent="iOtx_4MhGi3p2n4ZiA7R-77" vertex="1">
          <mxGeometry y="78" width="290" height="26" as="geometry" />
        </mxCell>
        <mxCell id="DgXVLJGT-iipQnpZu61F-33" value="+ &lt;span&gt;&lt;span&gt;Status: int&lt;/span&gt;&lt;/span&gt;" style="text;strokeColor=none;fillColor=none;align=left;verticalAlign=top;spacingLeft=4;spacingRight=4;overflow=hidden;rotatable=0;points=[[0,0.5],[1,0.5]];portConstraint=eastwest;whiteSpace=wrap;html=1;fontColor=#e10909;fontStyle=0" parent="iOtx_4MhGi3p2n4ZiA7R-77" vertex="1">
          <mxGeometry y="104" width="290" height="26" as="geometry" />
        </mxCell>
        <mxCell id="DgXVLJGT-iipQnpZu61F-37" value="&lt;font color=&quot;#000000&quot;&gt;+ Quantity: int&lt;/font&gt;" style="text;strokeColor=none;fillColor=none;align=left;verticalAlign=top;spacingLeft=4;spacingRight=4;overflow=hidden;rotatable=0;points=[[0,0.5],[1,0.5]];portConstraint=eastwest;whiteSpace=wrap;html=1;fontColor=#e10909;" parent="iOtx_4MhGi3p2n4ZiA7R-77" vertex="1">
          <mxGeometry y="130" width="290" height="26" as="geometry" />
        </mxCell>
        <mxCell id="DgXVLJGT-iipQnpZu61F-36" value="+ &lt;span&gt;&lt;span&gt;UserId: GUID&lt;/span&gt;&lt;/span&gt;" style="text;strokeColor=none;fillColor=none;align=left;verticalAlign=top;spacingLeft=4;spacingRight=4;overflow=hidden;rotatable=0;points=[[0,0.5],[1,0.5]];portConstraint=eastwest;whiteSpace=wrap;html=1;fontColor=#e10909;fontStyle=0" parent="iOtx_4MhGi3p2n4ZiA7R-77" vertex="1">
          <mxGeometry y="156" width="290" height="26" as="geometry" />
        </mxCell>
        <mxCell id="iOtx_4MhGi3p2n4ZiA7R-78" value="+ &lt;span&gt;&lt;span&gt;ProductId: GUID&lt;/span&gt;&lt;/span&gt;" style="text;strokeColor=none;fillColor=none;align=left;verticalAlign=top;spacingLeft=4;spacingRight=4;overflow=hidden;rotatable=0;points=[[0,0.5],[1,0.5]];portConstraint=eastwest;whiteSpace=wrap;html=1;fontColor=#000000;fontStyle=0" parent="iOtx_4MhGi3p2n4ZiA7R-77" vertex="1">
          <mxGeometry y="182" width="290" height="26" as="geometry" />
        </mxCell>
        <mxCell id="DgXVLJGT-iipQnpZu61F-32" value="+ &lt;span&gt;&lt;span&gt;CreateAt: datetime2(7)&lt;/span&gt;&lt;/span&gt;" style="text;strokeColor=none;fillColor=none;align=left;verticalAlign=top;spacingLeft=4;spacingRight=4;overflow=hidden;rotatable=0;points=[[0,0.5],[1,0.5]];portConstraint=eastwest;whiteSpace=wrap;html=1;fontColor=#e10909;fontStyle=0" parent="iOtx_4MhGi3p2n4ZiA7R-77" vertex="1">
          <mxGeometry y="208" width="290" height="26" as="geometry" />
        </mxCell>
        <mxCell id="DgXVLJGT-iipQnpZu61F-31" value="+ &lt;span&gt;&lt;span&gt;UpdateAt:&amp;nbsp;&lt;/span&gt;&lt;/span&gt;datetime2(7)" style="text;strokeColor=none;fillColor=none;align=left;verticalAlign=top;spacingLeft=4;spacingRight=4;overflow=hidden;rotatable=0;points=[[0,0.5],[1,0.5]];portConstraint=eastwest;whiteSpace=wrap;html=1;fontColor=#e10909;fontStyle=0" parent="iOtx_4MhGi3p2n4ZiA7R-77" vertex="1">
          <mxGeometry y="234" width="290" height="26" as="geometry" />
        </mxCell>
        <mxCell id="iOtx_4MhGi3p2n4ZiA7R-80" value="" style="line;strokeWidth=1;fillColor=none;align=left;verticalAlign=middle;spacingTop=-1;spacingLeft=3;spacingRight=3;rotatable=0;labelPosition=right;points=[];portConstraint=eastwest;strokeColor=inherit;" parent="iOtx_4MhGi3p2n4ZiA7R-77" vertex="1">
          <mxGeometry y="260" width="290" height="8" as="geometry" />
        </mxCell>
        <mxCell id="iOtx_4MhGi3p2n4ZiA7R-81" value="+ (CRUD)_Collections: void" style="text;strokeColor=none;fillColor=none;align=left;verticalAlign=top;spacingLeft=4;spacingRight=4;overflow=hidden;rotatable=0;points=[[0,0.5],[1,0.5]];portConstraint=eastwest;whiteSpace=wrap;html=1;fontColor=#080808;" parent="iOtx_4MhGi3p2n4ZiA7R-77" vertex="1">
          <mxGeometry y="268" width="290" height="26" as="geometry" />
        </mxCell>
        <mxCell id="iOtx_4MhGi3p2n4ZiA7R-118" value="- GetSumPrice(): void" style="text;strokeColor=none;fillColor=none;align=left;verticalAlign=top;spacingLeft=4;spacingRight=4;overflow=hidden;rotatable=0;points=[[0,0.5],[1,0.5]];portConstraint=eastwest;whiteSpace=wrap;html=1;fontColor=#080808;" parent="iOtx_4MhGi3p2n4ZiA7R-77" vertex="1">
          <mxGeometry y="294" width="290" height="26" as="geometry" />
        </mxCell>
        <mxCell id="DgXVLJGT-iipQnpZu61F-38" value="&lt;span style=&quot;text-wrap: nowrap;&quot;&gt;&lt;font color=&quot;#000000&quot;&gt;Comments&lt;/font&gt;&lt;/span&gt;" style="swimlane;fontStyle=1;align=center;verticalAlign=top;childLayout=stackLayout;horizontal=1;startSize=26;horizontalStack=0;resizeParent=1;resizeParentMax=0;resizeLast=0;collapsible=1;marginBottom=0;whiteSpace=wrap;html=1;fontColor=#f10909;" parent="1" vertex="1">
          <mxGeometry x="-950" y="-82" width="290" height="346" as="geometry" />
        </mxCell>
        <mxCell id="DgXVLJGT-iipQnpZu61F-39" value="+ &lt;span&gt;&lt;span&gt;Id: GUID&lt;/span&gt;&lt;/span&gt;" style="text;strokeColor=none;fillColor=none;align=left;verticalAlign=top;spacingLeft=4;spacingRight=4;overflow=hidden;rotatable=0;points=[[0,0.5],[1,0.5]];portConstraint=eastwest;whiteSpace=wrap;html=1;fontColor=#e10909;fontStyle=0" parent="DgXVLJGT-iipQnpZu61F-38" vertex="1">
          <mxGeometry y="26" width="290" height="26" as="geometry" />
        </mxCell>
        <mxCell id="DgXVLJGT-iipQnpZu61F-40" value="+ Content&lt;span&gt;&lt;span&gt;: nvachar(10000)&lt;/span&gt;&lt;/span&gt;" style="text;strokeColor=none;fillColor=none;align=left;verticalAlign=top;spacingLeft=4;spacingRight=4;overflow=hidden;rotatable=0;points=[[0,0.5],[1,0.5]];portConstraint=eastwest;whiteSpace=wrap;html=1;fontColor=#e10909;fontStyle=0" parent="DgXVLJGT-iipQnpZu61F-38" vertex="1">
          <mxGeometry y="52" width="290" height="26" as="geometry" />
        </mxCell>
        <mxCell id="DgXVLJGT-iipQnpZu61F-42" value="+ &lt;span&gt;&lt;span&gt;Status: int&lt;/span&gt;&lt;/span&gt;" style="text;strokeColor=none;fillColor=none;align=left;verticalAlign=top;spacingLeft=4;spacingRight=4;overflow=hidden;rotatable=0;points=[[0,0.5],[1,0.5]];portConstraint=eastwest;whiteSpace=wrap;html=1;fontColor=#e10909;fontStyle=0" parent="DgXVLJGT-iipQnpZu61F-38" vertex="1">
          <mxGeometry y="78" width="290" height="26" as="geometry" />
        </mxCell>
        <mxCell id="DgXVLJGT-iipQnpZu61F-53" value="&lt;font&gt;+ NumberOfLike: int&lt;/font&gt;" style="text;strokeColor=none;fillColor=none;align=left;verticalAlign=top;spacingLeft=4;spacingRight=4;overflow=hidden;rotatable=0;points=[[0,0.5],[1,0.5]];portConstraint=eastwest;whiteSpace=wrap;html=1;fontColor=#E10909;" parent="DgXVLJGT-iipQnpZu61F-38" vertex="1">
          <mxGeometry y="104" width="290" height="26" as="geometry" />
        </mxCell>
        <mxCell id="DgXVLJGT-iipQnpZu61F-44" value="+ &lt;span&gt;&lt;span&gt;UserId: GUID&lt;/span&gt;&lt;/span&gt;" style="text;strokeColor=none;fillColor=none;align=left;verticalAlign=top;spacingLeft=4;spacingRight=4;overflow=hidden;rotatable=0;points=[[0,0.5],[1,0.5]];portConstraint=eastwest;whiteSpace=wrap;html=1;fontColor=#e10909;fontStyle=0" parent="DgXVLJGT-iipQnpZu61F-38" vertex="1">
          <mxGeometry y="130" width="290" height="26" as="geometry" />
        </mxCell>
        <mxCell id="DgXVLJGT-iipQnpZu61F-45" value="+ &lt;span&gt;&lt;span&gt;ParentId: GUID&lt;/span&gt;&lt;/span&gt;" style="text;strokeColor=none;fillColor=none;align=left;verticalAlign=top;spacingLeft=4;spacingRight=4;overflow=hidden;rotatable=0;points=[[0,0.5],[1,0.5]];portConstraint=eastwest;whiteSpace=wrap;html=1;fontColor=#000000;fontStyle=0" parent="DgXVLJGT-iipQnpZu61F-38" vertex="1">
          <mxGeometry y="156" width="290" height="26" as="geometry" />
        </mxCell>
        <mxCell id="DgXVLJGT-iipQnpZu61F-46" value="+ &lt;span&gt;&lt;span&gt;CreateAt: datetime2(7)&lt;/span&gt;&lt;/span&gt;" style="text;strokeColor=none;fillColor=none;align=left;verticalAlign=top;spacingLeft=4;spacingRight=4;overflow=hidden;rotatable=0;points=[[0,0.5],[1,0.5]];portConstraint=eastwest;whiteSpace=wrap;html=1;fontColor=#e10909;fontStyle=0" parent="DgXVLJGT-iipQnpZu61F-38" vertex="1">
          <mxGeometry y="182" width="290" height="26" as="geometry" />
        </mxCell>
        <mxCell id="DgXVLJGT-iipQnpZu61F-47" value="+ &lt;span&gt;&lt;span&gt;UpdateAt:&amp;nbsp;&lt;/span&gt;&lt;/span&gt;datetime2(7)" style="text;strokeColor=none;fillColor=none;align=left;verticalAlign=top;spacingLeft=4;spacingRight=4;overflow=hidden;rotatable=0;points=[[0,0.5],[1,0.5]];portConstraint=eastwest;whiteSpace=wrap;html=1;fontColor=#e10909;fontStyle=0" parent="DgXVLJGT-iipQnpZu61F-38" vertex="1">
          <mxGeometry y="208" width="290" height="26" as="geometry" />
        </mxCell>
        <mxCell id="DgXVLJGT-iipQnpZu61F-48" value="" style="line;strokeWidth=1;fillColor=none;align=left;verticalAlign=middle;spacingTop=-1;spacingLeft=3;spacingRight=3;rotatable=0;labelPosition=right;points=[];portConstraint=eastwest;strokeColor=inherit;" parent="DgXVLJGT-iipQnpZu61F-38" vertex="1">
          <mxGeometry y="234" width="290" height="8" as="geometry" />
        </mxCell>
        <mxCell id="DgXVLJGT-iipQnpZu61F-49" value="+ (CRUD)_Comment: void" style="text;strokeColor=none;fillColor=none;align=left;verticalAlign=top;spacingLeft=4;spacingRight=4;overflow=hidden;rotatable=0;points=[[0,0.5],[1,0.5]];portConstraint=eastwest;whiteSpace=wrap;html=1;fontColor=#080808;" parent="DgXVLJGT-iipQnpZu61F-38" vertex="1">
          <mxGeometry y="242" width="290" height="26" as="geometry" />
        </mxCell>
        <mxCell id="DgXVLJGT-iipQnpZu61F-54" value="+ (CRUD)_Reply: void" style="text;strokeColor=none;fillColor=none;align=left;verticalAlign=top;spacingLeft=4;spacingRight=4;overflow=hidden;rotatable=0;points=[[0,0.5],[1,0.5]];portConstraint=eastwest;whiteSpace=wrap;html=1;fontColor=#080808;" parent="DgXVLJGT-iipQnpZu61F-38" vertex="1">
          <mxGeometry y="268" width="290" height="26" as="geometry" />
        </mxCell>
        <mxCell id="DgXVLJGT-iipQnpZu61F-55" value="+ Report: void" style="text;strokeColor=none;fillColor=none;align=left;verticalAlign=top;spacingLeft=4;spacingRight=4;overflow=hidden;rotatable=0;points=[[0,0.5],[1,0.5]];portConstraint=eastwest;whiteSpace=wrap;html=1;fontColor=#080808;" parent="DgXVLJGT-iipQnpZu61F-38" vertex="1">
          <mxGeometry y="294" width="290" height="26" as="geometry" />
        </mxCell>
        <mxCell id="DgXVLJGT-iipQnpZu61F-56" value="+ GetNumberOfLike(): void" style="text;strokeColor=none;fillColor=none;align=left;verticalAlign=top;spacingLeft=4;spacingRight=4;overflow=hidden;rotatable=0;points=[[0,0.5],[1,0.5]];portConstraint=eastwest;whiteSpace=wrap;html=1;fontColor=#080808;" parent="DgXVLJGT-iipQnpZu61F-38" vertex="1">
          <mxGeometry y="320" width="290" height="26" as="geometry" />
        </mxCell>
        <mxCell id="DgXVLJGT-iipQnpZu61F-57" value="&lt;span style=&quot;text-wrap: nowrap;&quot;&gt;&lt;font&gt;Orders&lt;/font&gt;&lt;/span&gt;" style="swimlane;fontStyle=1;align=center;verticalAlign=top;childLayout=stackLayout;horizontal=1;startSize=26;horizontalStack=0;resizeParent=1;resizeParentMax=0;resizeLast=0;collapsible=1;marginBottom=0;whiteSpace=wrap;html=1;fontColor=#000000;" parent="1" vertex="1">
          <mxGeometry x="295" y="-290" width="290" height="502" as="geometry" />
        </mxCell>
        <mxCell id="DgXVLJGT-iipQnpZu61F-58" value="+ &lt;span&gt;&lt;span&gt;Id: GUID&lt;/span&gt;&lt;/span&gt;" style="text;strokeColor=none;fillColor=none;align=left;verticalAlign=top;spacingLeft=4;spacingRight=4;overflow=hidden;rotatable=0;points=[[0,0.5],[1,0.5]];portConstraint=eastwest;whiteSpace=wrap;html=1;fontColor=#e10909;fontStyle=0" parent="DgXVLJGT-iipQnpZu61F-57" vertex="1">
          <mxGeometry y="26" width="290" height="26" as="geometry" />
        </mxCell>
        <mxCell id="DgXVLJGT-iipQnpZu61F-59" value="+ TotalPrice: float" style="text;strokeColor=none;fillColor=none;align=left;verticalAlign=top;spacingLeft=4;spacingRight=4;overflow=hidden;rotatable=0;points=[[0,0.5],[1,0.5]];portConstraint=eastwest;whiteSpace=wrap;html=1;fontColor=#e10909;fontStyle=0" parent="DgXVLJGT-iipQnpZu61F-57" vertex="1">
          <mxGeometry y="52" width="290" height="26" as="geometry" />
        </mxCell>
        <mxCell id="XSjV4ejiBnHlv2oE7BWK-2" value="+ &lt;span&gt;&lt;span&gt;ProductId: GUID&lt;/span&gt;&lt;/span&gt;" style="text;strokeColor=none;fillColor=none;align=left;verticalAlign=top;spacingLeft=4;spacingRight=4;overflow=hidden;rotatable=0;points=[[0,0.5],[1,0.5]];portConstraint=eastwest;whiteSpace=wrap;html=1;fontColor=#e10909;fontStyle=0" parent="DgXVLJGT-iipQnpZu61F-57" vertex="1">
          <mxGeometry y="78" width="290" height="26" as="geometry" />
        </mxCell>
        <mxCell id="DgXVLJGT-iipQnpZu61F-62" value="+ &lt;span&gt;&lt;span&gt;PaymentMethod: nvarchar(64)&lt;/span&gt;&lt;/span&gt;" style="text;strokeColor=none;fillColor=none;align=left;verticalAlign=top;spacingLeft=4;spacingRight=4;overflow=hidden;rotatable=0;points=[[0,0.5],[1,0.5]];portConstraint=eastwest;whiteSpace=wrap;html=1;fontColor=#e10909;fontStyle=0" parent="DgXVLJGT-iipQnpZu61F-57" vertex="1">
          <mxGeometry y="104" width="290" height="26" as="geometry" />
        </mxCell>
        <mxCell id="XSjV4ejiBnHlv2oE7BWK-1" value="+ Payment&lt;span&gt;&lt;span&gt;Status: int&lt;/span&gt;&lt;/span&gt;" style="text;strokeColor=none;fillColor=none;align=left;verticalAlign=top;spacingLeft=4;spacingRight=4;overflow=hidden;rotatable=0;points=[[0,0.5],[1,0.5]];portConstraint=eastwest;whiteSpace=wrap;html=1;fontColor=#e10909;fontStyle=0" parent="DgXVLJGT-iipQnpZu61F-57" vertex="1">
          <mxGeometry y="130" width="290" height="26" as="geometry" />
        </mxCell>
        <mxCell id="DgXVLJGT-iipQnpZu61F-60" value="+ Order&lt;span&gt;&lt;span&gt;Status: int&lt;/span&gt;&lt;/span&gt;" style="text;strokeColor=none;fillColor=none;align=left;verticalAlign=top;spacingLeft=4;spacingRight=4;overflow=hidden;rotatable=0;points=[[0,0.5],[1,0.5]];portConstraint=eastwest;whiteSpace=wrap;html=1;fontColor=#e10909;fontStyle=0" parent="DgXVLJGT-iipQnpZu61F-57" vertex="1">
          <mxGeometry y="156" width="290" height="26" as="geometry" />
        </mxCell>
        <mxCell id="DgXVLJGT-iipQnpZu61F-64" value="+ &lt;span&gt;&lt;span&gt;CreateAt: datetime2(7)&lt;/span&gt;&lt;/span&gt;" style="text;strokeColor=none;fillColor=none;align=left;verticalAlign=top;spacingLeft=4;spacingRight=4;overflow=hidden;rotatable=0;points=[[0,0.5],[1,0.5]];portConstraint=eastwest;whiteSpace=wrap;html=1;fontColor=#e10909;fontStyle=0" parent="DgXVLJGT-iipQnpZu61F-57" vertex="1">
          <mxGeometry y="182" width="290" height="26" as="geometry" />
        </mxCell>
        <mxCell id="XSjV4ejiBnHlv2oE7BWK-3" value="+ &lt;span&gt;&lt;span&gt;CartId: GUID&lt;/span&gt;&lt;/span&gt;" style="text;strokeColor=none;fillColor=none;align=left;verticalAlign=top;spacingLeft=4;spacingRight=4;overflow=hidden;rotatable=0;points=[[0,0.5],[1,0.5]];portConstraint=eastwest;whiteSpace=wrap;html=1;fontColor=#e10909;fontStyle=0" parent="DgXVLJGT-iipQnpZu61F-57" vertex="1">
          <mxGeometry y="208" width="290" height="26" as="geometry" />
        </mxCell>
        <mxCell id="DgXVLJGT-iipQnpZu61F-66" value="" style="line;strokeWidth=1;fillColor=none;align=left;verticalAlign=middle;spacingTop=-1;spacingLeft=3;spacingRight=3;rotatable=0;labelPosition=right;points=[];portConstraint=eastwest;strokeColor=inherit;" parent="DgXVLJGT-iipQnpZu61F-57" vertex="1">
          <mxGeometry y="234" width="290" height="8" as="geometry" />
        </mxCell>
        <mxCell id="DgXVLJGT-iipQnpZu61F-67" value="+ Create Order: void" style="text;strokeColor=none;fillColor=none;align=left;verticalAlign=top;spacingLeft=4;spacingRight=4;overflow=hidden;rotatable=0;points=[[0,0.5],[1,0.5]];portConstraint=eastwest;whiteSpace=wrap;html=1;fontColor=#080808;" parent="DgXVLJGT-iipQnpZu61F-57" vertex="1">
          <mxGeometry y="242" width="290" height="26" as="geometry" />
        </mxCell>
        <mxCell id="XSjV4ejiBnHlv2oE7BWK-8" value="+ GetAll: void" style="text;strokeColor=none;fillColor=none;align=left;verticalAlign=top;spacingLeft=4;spacingRight=4;overflow=hidden;rotatable=0;points=[[0,0.5],[1,0.5]];portConstraint=eastwest;whiteSpace=wrap;html=1;fontColor=#080808;" parent="DgXVLJGT-iipQnpZu61F-57" vertex="1">
          <mxGeometry y="268" width="290" height="26" as="geometry" />
        </mxCell>
        <mxCell id="DgXVLJGT-iipQnpZu61F-68" value="+ UpdateOrderStatus: void" style="text;strokeColor=none;fillColor=none;align=left;verticalAlign=top;spacingLeft=4;spacingRight=4;overflow=hidden;rotatable=0;points=[[0,0.5],[1,0.5]];portConstraint=eastwest;whiteSpace=wrap;html=1;fontColor=#080808;" parent="DgXVLJGT-iipQnpZu61F-57" vertex="1">
          <mxGeometry y="294" width="290" height="26" as="geometry" />
        </mxCell>
        <mxCell id="DgXVLJGT-iipQnpZu61F-69" value="+ UpdatePaymentStatus: void" style="text;strokeColor=none;fillColor=none;align=left;verticalAlign=top;spacingLeft=4;spacingRight=4;overflow=hidden;rotatable=0;points=[[0,0.5],[1,0.5]];portConstraint=eastwest;whiteSpace=wrap;html=1;fontColor=#080808;" parent="DgXVLJGT-iipQnpZu61F-57" vertex="1">
          <mxGeometry y="320" width="290" height="26" as="geometry" />
        </mxCell>
        <mxCell id="DgXVLJGT-iipQnpZu61F-70" value="+ Checkout: void" style="text;strokeColor=none;fillColor=none;align=left;verticalAlign=top;spacingLeft=4;spacingRight=4;overflow=hidden;rotatable=0;points=[[0,0.5],[1,0.5]];portConstraint=eastwest;whiteSpace=wrap;html=1;fontColor=#080808;" parent="DgXVLJGT-iipQnpZu61F-57" vertex="1">
          <mxGeometry y="346" width="290" height="26" as="geometry" />
        </mxCell>
        <mxCell id="XSjV4ejiBnHlv2oE7BWK-4" value="+ PaymentWithMoMo: void" style="text;strokeColor=none;fillColor=none;align=left;verticalAlign=top;spacingLeft=4;spacingRight=4;overflow=hidden;rotatable=0;points=[[0,0.5],[1,0.5]];portConstraint=eastwest;whiteSpace=wrap;html=1;fontColor=#080808;" parent="DgXVLJGT-iipQnpZu61F-57" vertex="1">
          <mxGeometry y="372" width="290" height="26" as="geometry" />
        </mxCell>
        <mxCell id="XSjV4ejiBnHlv2oE7BWK-6" value="+ PaymentWithVnPay: void" style="text;strokeColor=none;fillColor=none;align=left;verticalAlign=top;spacingLeft=4;spacingRight=4;overflow=hidden;rotatable=0;points=[[0,0.5],[1,0.5]];portConstraint=eastwest;whiteSpace=wrap;html=1;fontColor=#080808;" parent="DgXVLJGT-iipQnpZu61F-57" vertex="1">
          <mxGeometry y="398" width="290" height="26" as="geometry" />
        </mxCell>
        <mxCell id="XSjV4ejiBnHlv2oE7BWK-5" value="+ Checkout: void" style="text;strokeColor=none;fillColor=none;align=left;verticalAlign=top;spacingLeft=4;spacingRight=4;overflow=hidden;rotatable=0;points=[[0,0.5],[1,0.5]];portConstraint=eastwest;whiteSpace=wrap;html=1;fontColor=#080808;" parent="DgXVLJGT-iipQnpZu61F-57" vertex="1">
          <mxGeometry y="424" width="290" height="26" as="geometry" />
        </mxCell>
        <mxCell id="XSjV4ejiBnHlv2oE7BWK-7" value="+ FindById(guid id): void" style="text;strokeColor=none;fillColor=none;align=left;verticalAlign=top;spacingLeft=4;spacingRight=4;overflow=hidden;rotatable=0;points=[[0,0.5],[1,0.5]];portConstraint=eastwest;whiteSpace=wrap;html=1;fontColor=#080808;" parent="DgXVLJGT-iipQnpZu61F-57" vertex="1">
          <mxGeometry y="450" width="290" height="26" as="geometry" />
        </mxCell>
        <mxCell id="XSjV4ejiBnHlv2oE7BWK-10" value="+ CancelOrder: void" style="text;strokeColor=none;fillColor=none;align=left;verticalAlign=top;spacingLeft=4;spacingRight=4;overflow=hidden;rotatable=0;points=[[0,0.5],[1,0.5]];portConstraint=eastwest;whiteSpace=wrap;html=1;fontColor=#080808;" parent="DgXVLJGT-iipQnpZu61F-57" vertex="1">
          <mxGeometry y="476" width="290" height="26" as="geometry" />
        </mxCell>
        <mxCell id="ciZr0pM28KXiDhxyGCiv-1" value="&lt;span style=&quot;text-wrap: nowrap;&quot;&gt;Products&lt;/span&gt;" style="swimlane;fontStyle=1;align=center;verticalAlign=top;childLayout=stackLayout;horizontal=1;startSize=26;horizontalStack=0;resizeParent=1;resizeParentMax=0;resizeLast=0;collapsible=1;marginBottom=0;whiteSpace=wrap;html=1;" parent="1" vertex="1">
          <mxGeometry x="970" y="-350" width="280" height="736" as="geometry">
            <mxRectangle x="-400" y="160" width="90" height="30" as="alternateBounds" />
          </mxGeometry>
        </mxCell>
        <mxCell id="ciZr0pM28KXiDhxyGCiv-2" value="+ ID: GUID" style="text;strokeColor=none;fillColor=none;align=left;verticalAlign=top;spacingLeft=4;spacingRight=4;overflow=hidden;rotatable=0;points=[[0,0.5],[1,0.5]];portConstraint=eastwest;whiteSpace=wrap;html=1;fontColor=#ff0000;" parent="ciZr0pM28KXiDhxyGCiv-1" vertex="1">
          <mxGeometry y="26" width="280" height="26" as="geometry" />
        </mxCell>
        <mxCell id="ciZr0pM28KXiDhxyGCiv-3" value="+&amp;nbsp;&lt;span style=&quot;text-wrap: nowrap;&quot;&gt;Name: nvarchar(256)&lt;/span&gt;" style="text;strokeColor=none;fillColor=none;align=left;verticalAlign=top;spacingLeft=4;spacingRight=4;overflow=hidden;rotatable=0;points=[[0,0.5],[1,0.5]];portConstraint=eastwest;whiteSpace=wrap;html=1;fontColor=#ff0000;" parent="ciZr0pM28KXiDhxyGCiv-1" vertex="1">
          <mxGeometry y="52" width="280" height="26" as="geometry" />
        </mxCell>
        <mxCell id="ciZr0pM28KXiDhxyGCiv-4" value="+&amp;nbsp;&lt;span style=&quot;text-wrap: nowrap;&quot;&gt;Price: float&lt;/span&gt;" style="text;strokeColor=none;fillColor=none;align=left;verticalAlign=top;spacingLeft=4;spacingRight=4;overflow=hidden;rotatable=0;points=[[0,0.5],[1,0.5]];portConstraint=eastwest;whiteSpace=wrap;html=1;fontColor=#ff0000;" parent="ciZr0pM28KXiDhxyGCiv-1" vertex="1">
          <mxGeometry y="78" width="280" height="26" as="geometry" />
        </mxCell>
        <mxCell id="ciZr0pM28KXiDhxyGCiv-5" value="+&amp;nbsp;&lt;span style=&quot;text-wrap: nowrap;&quot;&gt;Discount: float&lt;/span&gt;" style="text;strokeColor=none;fillColor=none;align=left;verticalAlign=top;spacingLeft=4;spacingRight=4;overflow=hidden;rotatable=0;points=[[0,0.5],[1,0.5]];portConstraint=eastwest;whiteSpace=wrap;html=1;fontColor=#ff0000;" parent="ciZr0pM28KXiDhxyGCiv-1" vertex="1">
          <mxGeometry y="104" width="280" height="26" as="geometry" />
        </mxCell>
        <mxCell id="ciZr0pM28KXiDhxyGCiv-6" value="+&amp;nbsp;&lt;span style=&quot;text-wrap: nowrap;&quot;&gt;NumberOfLike: int&lt;/span&gt;" style="text;strokeColor=none;fillColor=none;align=left;verticalAlign=top;spacingLeft=4;spacingRight=4;overflow=hidden;rotatable=0;points=[[0,0.5],[1,0.5]];portConstraint=eastwest;whiteSpace=wrap;html=1;fontColor=#ff0000;" parent="ciZr0pM28KXiDhxyGCiv-1" vertex="1">
          <mxGeometry y="130" width="280" height="26" as="geometry" />
        </mxCell>
        <mxCell id="ciZr0pM28KXiDhxyGCiv-7" value="+&amp;nbsp;&lt;span style=&quot;text-wrap: nowrap;&quot;&gt;NumberOfView: int&lt;/span&gt;" style="text;strokeColor=none;fillColor=none;align=left;verticalAlign=top;spacingLeft=4;spacingRight=4;overflow=hidden;rotatable=0;points=[[0,0.5],[1,0.5]];portConstraint=eastwest;whiteSpace=wrap;html=1;fontColor=#ff0000;" parent="ciZr0pM28KXiDhxyGCiv-1" vertex="1">
          <mxGeometry y="156" width="280" height="26" as="geometry" />
        </mxCell>
        <mxCell id="ciZr0pM28KXiDhxyGCiv-8" value="+&amp;nbsp;&lt;span style=&quot;text-wrap: nowrap;&quot;&gt;NumberOfPlay: int&lt;/span&gt;" style="text;strokeColor=none;fillColor=none;align=left;verticalAlign=top;spacingLeft=4;spacingRight=4;overflow=hidden;rotatable=0;points=[[0,0.5],[1,0.5]];portConstraint=eastwest;whiteSpace=wrap;html=1;fontColor=#ff0000;" parent="ciZr0pM28KXiDhxyGCiv-1" vertex="1">
          <mxGeometry y="182" width="280" height="26" as="geometry" />
        </mxCell>
        <mxCell id="ciZr0pM28KXiDhxyGCiv-9" value="+&amp;nbsp;&lt;span style=&quot;text-wrap: nowrap;&quot;&gt;Description: nvarchar(10000)&lt;/span&gt;" style="text;strokeColor=none;fillColor=none;align=left;verticalAlign=top;spacingLeft=4;spacingRight=4;overflow=hidden;rotatable=0;points=[[0,0.5],[1,0.5]];portConstraint=eastwest;whiteSpace=wrap;html=1;" parent="ciZr0pM28KXiDhxyGCiv-1" vertex="1">
          <mxGeometry y="208" width="280" height="26" as="geometry" />
        </mxCell>
        <mxCell id="ciZr0pM28KXiDhxyGCiv-10" value="+&amp;nbsp;&lt;span style=&quot;text-wrap: nowrap;&quot;&gt;Platform:&amp;nbsp;&lt;/span&gt;&lt;span style=&quot;text-wrap: nowrap;&quot;&gt;nvarchar(32)&lt;/span&gt;" style="text;strokeColor=none;fillColor=none;align=left;verticalAlign=top;spacingLeft=4;spacingRight=4;overflow=hidden;rotatable=0;points=[[0,0.5],[1,0.5]];portConstraint=eastwest;whiteSpace=wrap;html=1;fontColor=#ff0000;" parent="ciZr0pM28KXiDhxyGCiv-1" vertex="1">
          <mxGeometry y="234" width="280" height="26" as="geometry" />
        </mxCell>
        <mxCell id="ciZr0pM28KXiDhxyGCiv-11" value="+&amp;nbsp;&lt;span style=&quot;text-wrap: nowrap;&quot;&gt;Status:&amp;nbsp;&lt;/span&gt;&lt;span style=&quot;text-wrap: nowrap;&quot;&gt;nvarchar(32)&lt;/span&gt;" style="text;strokeColor=none;fillColor=none;align=left;verticalAlign=top;spacingLeft=4;spacingRight=4;overflow=hidden;rotatable=0;points=[[0,0.5],[1,0.5]];portConstraint=eastwest;whiteSpace=wrap;html=1;fontColor=#ff0000;" parent="ciZr0pM28KXiDhxyGCiv-1" vertex="1">
          <mxGeometry y="260" width="280" height="26" as="geometry" />
        </mxCell>
        <mxCell id="ciZr0pM28KXiDhxyGCiv-12" value="+&amp;nbsp;&lt;span style=&quot;text-wrap: nowrap;&quot;&gt;UpdateAt: datetime2(7)&lt;/span&gt;" style="text;strokeColor=none;fillColor=none;align=left;verticalAlign=top;spacingLeft=4;spacingRight=4;overflow=hidden;rotatable=0;points=[[0,0.5],[1,0.5]];portConstraint=eastwest;whiteSpace=wrap;html=1;fontColor=#ff0000;" parent="ciZr0pM28KXiDhxyGCiv-1" vertex="1">
          <mxGeometry y="286" width="280" height="26" as="geometry" />
        </mxCell>
        <mxCell id="ciZr0pM28KXiDhxyGCiv-13" value="+&amp;nbsp;&lt;span style=&quot;text-wrap: nowrap;&quot;&gt;CreateAt: datetime&lt;/span&gt;&lt;span style=&quot;text-wrap: nowrap;&quot;&gt;2(7)&lt;/span&gt;" style="text;strokeColor=none;fillColor=none;align=left;verticalAlign=top;spacingLeft=4;spacingRight=4;overflow=hidden;rotatable=0;points=[[0,0.5],[1,0.5]];portConstraint=eastwest;whiteSpace=wrap;html=1;fontColor=#ff0000;" parent="ciZr0pM28KXiDhxyGCiv-1" vertex="1">
          <mxGeometry y="312" width="280" height="26" as="geometry" />
        </mxCell>
        <mxCell id="ciZr0pM28KXiDhxyGCiv-14" value="+&amp;nbsp;&lt;span style=&quot;text-wrap: nowrap;&quot;&gt;UserId: GUID&lt;/span&gt;" style="text;strokeColor=none;fillColor=none;align=left;verticalAlign=top;spacingLeft=4;spacingRight=4;overflow=hidden;rotatable=0;points=[[0,0.5],[1,0.5]];portConstraint=eastwest;whiteSpace=wrap;html=1;fontColor=#ff0000;" parent="ciZr0pM28KXiDhxyGCiv-1" vertex="1">
          <mxGeometry y="338" width="280" height="26" as="geometry" />
        </mxCell>
        <mxCell id="ciZr0pM28KXiDhxyGCiv-15" value="" style="line;strokeWidth=1;fillColor=none;align=left;verticalAlign=middle;spacingTop=-1;spacingLeft=3;spacingRight=3;rotatable=0;labelPosition=right;points=[];portConstraint=eastwest;strokeColor=inherit;" parent="ciZr0pM28KXiDhxyGCiv-1" vertex="1">
          <mxGeometry y="364" width="280" height="8" as="geometry" />
        </mxCell>
        <mxCell id="ciZr0pM28KXiDhxyGCiv-32" value="+ (CRUD)_Product(): void" style="text;strokeColor=none;fillColor=none;align=left;verticalAlign=top;spacingLeft=4;spacingRight=4;overflow=hidden;rotatable=0;points=[[0,0.5],[1,0.5]];portConstraint=eastwest;whiteSpace=wrap;html=1;" parent="ciZr0pM28KXiDhxyGCiv-1" vertex="1">
          <mxGeometry y="372" width="280" height="26" as="geometry" />
        </mxCell>
        <mxCell id="ciZr0pM28KXiDhxyGCiv-16" value="+ SearchByName(): void" style="text;strokeColor=none;fillColor=none;align=left;verticalAlign=top;spacingLeft=4;spacingRight=4;overflow=hidden;rotatable=0;points=[[0,0.5],[1,0.5]];portConstraint=eastwest;whiteSpace=wrap;html=1;" parent="ciZr0pM28KXiDhxyGCiv-1" vertex="1">
          <mxGeometry y="398" width="280" height="26" as="geometry" />
        </mxCell>
        <mxCell id="ciZr0pM28KXiDhxyGCiv-17" value="+ AdvancedSearch(): void" style="text;strokeColor=none;fillColor=none;align=left;verticalAlign=top;spacingLeft=4;spacingRight=4;overflow=hidden;rotatable=0;points=[[0,0.5],[1,0.5]];portConstraint=eastwest;whiteSpace=wrap;html=1;" parent="ciZr0pM28KXiDhxyGCiv-1" vertex="1">
          <mxGeometry y="424" width="280" height="26" as="geometry" />
        </mxCell>
        <mxCell id="ciZr0pM28KXiDhxyGCiv-18" value="+ SortByPrice(): void" style="text;strokeColor=none;fillColor=none;align=left;verticalAlign=top;spacingLeft=4;spacingRight=4;overflow=hidden;rotatable=0;points=[[0,0.5],[1,0.5]];portConstraint=eastwest;whiteSpace=wrap;html=1;" parent="ciZr0pM28KXiDhxyGCiv-1" vertex="1">
          <mxGeometry y="450" width="280" height="26" as="geometry" />
        </mxCell>
        <mxCell id="ciZr0pM28KXiDhxyGCiv-19" value="+ SortByView(): void" style="text;strokeColor=none;fillColor=none;align=left;verticalAlign=top;spacingLeft=4;spacingRight=4;overflow=hidden;rotatable=0;points=[[0,0.5],[1,0.5]];portConstraint=eastwest;whiteSpace=wrap;html=1;" parent="ciZr0pM28KXiDhxyGCiv-1" vertex="1">
          <mxGeometry y="476" width="280" height="26" as="geometry" />
        </mxCell>
        <mxCell id="ciZr0pM28KXiDhxyGCiv-20" value="+ SortByLike(): void" style="text;strokeColor=none;fillColor=none;align=left;verticalAlign=top;spacingLeft=4;spacingRight=4;overflow=hidden;rotatable=0;points=[[0,0.5],[1,0.5]];portConstraint=eastwest;whiteSpace=wrap;html=1;" parent="ciZr0pM28KXiDhxyGCiv-1" vertex="1">
          <mxGeometry y="502" width="280" height="26" as="geometry" />
        </mxCell>
        <mxCell id="ciZr0pM28KXiDhxyGCiv-21" value="+ SortByPlayCount(): void" style="text;strokeColor=none;fillColor=none;align=left;verticalAlign=top;spacingLeft=4;spacingRight=4;overflow=hidden;rotatable=0;points=[[0,0.5],[1,0.5]];portConstraint=eastwest;whiteSpace=wrap;html=1;" parent="ciZr0pM28KXiDhxyGCiv-1" vertex="1">
          <mxGeometry y="528" width="280" height="26" as="geometry" />
        </mxCell>
        <mxCell id="ciZr0pM28KXiDhxyGCiv-22" value="+ FilterByPrice(): void" style="text;strokeColor=none;fillColor=none;align=left;verticalAlign=top;spacingLeft=4;spacingRight=4;overflow=hidden;rotatable=0;points=[[0,0.5],[1,0.5]];portConstraint=eastwest;whiteSpace=wrap;html=1;" parent="ciZr0pM28KXiDhxyGCiv-1" vertex="1">
          <mxGeometry y="554" width="280" height="26" as="geometry" />
        </mxCell>
        <mxCell id="ciZr0pM28KXiDhxyGCiv-23" value="+ FilterByView(): void" style="text;strokeColor=none;fillColor=none;align=left;verticalAlign=top;spacingLeft=4;spacingRight=4;overflow=hidden;rotatable=0;points=[[0,0.5],[1,0.5]];portConstraint=eastwest;whiteSpace=wrap;html=1;" parent="ciZr0pM28KXiDhxyGCiv-1" vertex="1">
          <mxGeometry y="580" width="280" height="26" as="geometry" />
        </mxCell>
        <mxCell id="ciZr0pM28KXiDhxyGCiv-24" value="+ FilterByLike(): void" style="text;strokeColor=none;fillColor=none;align=left;verticalAlign=top;spacingLeft=4;spacingRight=4;overflow=hidden;rotatable=0;points=[[0,0.5],[1,0.5]];portConstraint=eastwest;whiteSpace=wrap;html=1;" parent="ciZr0pM28KXiDhxyGCiv-1" vertex="1">
          <mxGeometry y="606" width="280" height="26" as="geometry" />
        </mxCell>
        <mxCell id="ciZr0pM28KXiDhxyGCiv-25" value="+ FilterByPlayCount(): void" style="text;strokeColor=none;fillColor=none;align=left;verticalAlign=top;spacingLeft=4;spacingRight=4;overflow=hidden;rotatable=0;points=[[0,0.5],[1,0.5]];portConstraint=eastwest;whiteSpace=wrap;html=1;" parent="ciZr0pM28KXiDhxyGCiv-1" vertex="1">
          <mxGeometry y="632" width="280" height="26" as="geometry" />
        </mxCell>
        <mxCell id="ciZr0pM28KXiDhxyGCiv-26" value="+ FilterByDescription(): void" style="text;strokeColor=none;fillColor=none;align=left;verticalAlign=top;spacingLeft=4;spacingRight=4;overflow=hidden;rotatable=0;points=[[0,0.5],[1,0.5]];portConstraint=eastwest;whiteSpace=wrap;html=1;" parent="ciZr0pM28KXiDhxyGCiv-1" vertex="1">
          <mxGeometry y="658" width="280" height="26" as="geometry" />
        </mxCell>
        <mxCell id="ciZr0pM28KXiDhxyGCiv-31" value="+ FilterByCategory(): void" style="text;strokeColor=none;fillColor=none;align=left;verticalAlign=top;spacingLeft=4;spacingRight=4;overflow=hidden;rotatable=0;points=[[0,0.5],[1,0.5]];portConstraint=eastwest;whiteSpace=wrap;html=1;" parent="ciZr0pM28KXiDhxyGCiv-1" vertex="1">
          <mxGeometry y="684" width="280" height="26" as="geometry" />
        </mxCell>
        <mxCell id="ciZr0pM28KXiDhxyGCiv-27" value="+ UploadProduct(): void" style="text;strokeColor=none;fillColor=none;align=left;verticalAlign=top;spacingLeft=4;spacingRight=4;overflow=hidden;rotatable=0;points=[[0,0.5],[1,0.5]];portConstraint=eastwest;whiteSpace=wrap;html=1;" parent="ciZr0pM28KXiDhxyGCiv-1" vertex="1">
          <mxGeometry y="710" width="280" height="26" as="geometry" />
        </mxCell>
        <mxCell id="ciZr0pM28KXiDhxyGCiv-33" value="&lt;span style=&quot;text-wrap: nowrap;&quot;&gt;Links&lt;/span&gt;" style="swimlane;fontStyle=1;align=center;verticalAlign=top;childLayout=stackLayout;horizontal=1;startSize=26;horizontalStack=0;resizeParent=1;resizeParentMax=0;resizeLast=0;collapsible=1;marginBottom=0;whiteSpace=wrap;html=1;" parent="1" vertex="1">
          <mxGeometry x="1370" y="-350" width="280" height="268" as="geometry" />
        </mxCell>
        <mxCell id="ciZr0pM28KXiDhxyGCiv-34" value="+ Id: GUID" style="text;strokeColor=none;fillColor=none;align=left;verticalAlign=top;spacingLeft=4;spacingRight=4;overflow=hidden;rotatable=0;points=[[0,0.5],[1,0.5]];portConstraint=eastwest;whiteSpace=wrap;html=1;fontColor=#ff0000;" parent="ciZr0pM28KXiDhxyGCiv-33" vertex="1">
          <mxGeometry y="26" width="280" height="26" as="geometry" />
        </mxCell>
        <mxCell id="ciZr0pM28KXiDhxyGCiv-35" value="+&amp;nbsp;&lt;span style=&quot;text-wrap: nowrap;&quot;&gt;ProviderName:&amp;nbsp;&lt;/span&gt;&lt;span style=&quot;text-wrap: nowrap;&quot;&gt;nvarchar(256)&lt;/span&gt;" style="text;strokeColor=none;fillColor=none;align=left;verticalAlign=top;spacingLeft=4;spacingRight=4;overflow=hidden;rotatable=0;points=[[0,0.5],[1,0.5]];portConstraint=eastwest;whiteSpace=wrap;html=1;fontColor=#ff0000;" parent="ciZr0pM28KXiDhxyGCiv-33" vertex="1">
          <mxGeometry y="52" width="280" height="26" as="geometry" />
        </mxCell>
        <mxCell id="ciZr0pM28KXiDhxyGCiv-36" value="+&amp;nbsp;&lt;span style=&quot;text-wrap: nowrap;&quot;&gt;Type:&amp;nbsp;&lt;/span&gt;&lt;span style=&quot;text-wrap: nowrap;&quot;&gt;int&lt;/span&gt;" style="text;strokeColor=none;fillColor=none;align=left;verticalAlign=top;spacingLeft=4;spacingRight=4;overflow=hidden;rotatable=0;points=[[0,0.5],[1,0.5]];portConstraint=eastwest;whiteSpace=wrap;html=1;fontColor=#ff0000;" parent="ciZr0pM28KXiDhxyGCiv-33" vertex="1">
          <mxGeometry y="78" width="280" height="26" as="geometry" />
        </mxCell>
        <mxCell id="ciZr0pM28KXiDhxyGCiv-37" value="+&amp;nbsp;&lt;span style=&quot;text-wrap: nowrap;&quot;&gt;URL: nvarchar(max)&lt;/span&gt;" style="text;strokeColor=none;fillColor=none;align=left;verticalAlign=top;spacingLeft=4;spacingRight=4;overflow=hidden;rotatable=0;points=[[0,0.5],[1,0.5]];portConstraint=eastwest;whiteSpace=wrap;html=1;fontColor=#ff0000;" parent="ciZr0pM28KXiDhxyGCiv-33" vertex="1">
          <mxGeometry y="104" width="280" height="26" as="geometry" />
        </mxCell>
        <mxCell id="ciZr0pM28KXiDhxyGCiv-38" value="+&amp;nbsp;&lt;span style=&quot;text-wrap: nowrap;&quot;&gt;Status:&amp;nbsp;&lt;/span&gt;&lt;span style=&quot;text-wrap: nowrap;&quot;&gt;int&lt;/span&gt;" style="text;strokeColor=none;fillColor=none;align=left;verticalAlign=top;spacingLeft=4;spacingRight=4;overflow=hidden;rotatable=0;points=[[0,0.5],[1,0.5]];portConstraint=eastwest;whiteSpace=wrap;html=1;fontColor=#ff0000;" parent="ciZr0pM28KXiDhxyGCiv-33" vertex="1">
          <mxGeometry y="130" width="280" height="26" as="geometry" />
        </mxCell>
        <mxCell id="ciZr0pM28KXiDhxyGCiv-39" value="+&amp;nbsp;&lt;span style=&quot;text-wrap: nowrap;&quot;&gt;CreateAt: datetime2(7)&lt;/span&gt;" style="text;strokeColor=none;fillColor=none;align=left;verticalAlign=top;spacingLeft=4;spacingRight=4;overflow=hidden;rotatable=0;points=[[0,0.5],[1,0.5]];portConstraint=eastwest;whiteSpace=wrap;html=1;fontColor=#ff0000;" parent="ciZr0pM28KXiDhxyGCiv-33" vertex="1">
          <mxGeometry y="156" width="280" height="26" as="geometry" />
        </mxCell>
        <mxCell id="ciZr0pM28KXiDhxyGCiv-40" value="+&amp;nbsp;&lt;span style=&quot;text-wrap: nowrap;&quot;&gt;UpdateAt:&amp;nbsp;&lt;/span&gt;&lt;span style=&quot;text-wrap: nowrap;&quot;&gt;datetime2(7)&lt;/span&gt;" style="text;strokeColor=none;fillColor=none;align=left;verticalAlign=top;spacingLeft=4;spacingRight=4;overflow=hidden;rotatable=0;points=[[0,0.5],[1,0.5]];portConstraint=eastwest;whiteSpace=wrap;html=1;fontColor=#ff0000;" parent="ciZr0pM28KXiDhxyGCiv-33" vertex="1">
          <mxGeometry y="182" width="280" height="26" as="geometry" />
        </mxCell>
        <mxCell id="ciZr0pM28KXiDhxyGCiv-41" value="+&amp;nbsp;&lt;span style=&quot;text-wrap: nowrap;&quot;&gt;ProductId: GUID&lt;/span&gt;" style="text;strokeColor=none;fillColor=none;align=left;verticalAlign=top;spacingLeft=4;spacingRight=4;overflow=hidden;rotatable=0;points=[[0,0.5],[1,0.5]];portConstraint=eastwest;whiteSpace=wrap;html=1;fontColor=#ff0000;" parent="ciZr0pM28KXiDhxyGCiv-33" vertex="1">
          <mxGeometry y="208" width="280" height="26" as="geometry" />
        </mxCell>
        <mxCell id="ciZr0pM28KXiDhxyGCiv-42" value="" style="line;strokeWidth=1;fillColor=none;align=left;verticalAlign=middle;spacingTop=-1;spacingLeft=3;spacingRight=3;rotatable=0;labelPosition=right;points=[];portConstraint=eastwest;strokeColor=inherit;" parent="ciZr0pM28KXiDhxyGCiv-33" vertex="1">
          <mxGeometry y="234" width="280" height="8" as="geometry" />
        </mxCell>
        <mxCell id="ciZr0pM28KXiDhxyGCiv-43" value="+ (CRUD)_Links(): void" style="text;strokeColor=none;fillColor=none;align=left;verticalAlign=top;spacingLeft=4;spacingRight=4;overflow=hidden;rotatable=0;points=[[0,0.5],[1,0.5]];portConstraint=eastwest;whiteSpace=wrap;html=1;" parent="ciZr0pM28KXiDhxyGCiv-33" vertex="1">
          <mxGeometry y="242" width="280" height="26" as="geometry" />
        </mxCell>
        <mxCell id="ciZr0pM28KXiDhxyGCiv-46" value="&lt;span style=&quot;text-wrap: nowrap;&quot;&gt;Categories&lt;/span&gt;" style="swimlane;fontStyle=1;align=center;verticalAlign=top;childLayout=stackLayout;horizontal=1;startSize=26;horizontalStack=0;resizeParent=1;resizeParentMax=0;resizeLast=0;collapsible=1;marginBottom=0;whiteSpace=wrap;html=1;" parent="1" vertex="1">
          <mxGeometry x="700" y="-634" width="170" height="164" as="geometry" />
        </mxCell>
        <mxCell id="ciZr0pM28KXiDhxyGCiv-47" value="+ ld: GUID" style="text;strokeColor=none;fillColor=none;align=left;verticalAlign=top;spacingLeft=4;spacingRight=4;overflow=hidden;rotatable=0;points=[[0,0.5],[1,0.5]];portConstraint=eastwest;whiteSpace=wrap;html=1;fontColor=#ff0000;" parent="ciZr0pM28KXiDhxyGCiv-46" vertex="1">
          <mxGeometry y="26" width="170" height="26" as="geometry" />
        </mxCell>
        <mxCell id="ciZr0pM28KXiDhxyGCiv-48" value="+&amp;nbsp;&lt;span style=&quot;text-wrap: nowrap;&quot;&gt;Name: nvarchar(256)&lt;/span&gt;" style="text;strokeColor=none;fillColor=none;align=left;verticalAlign=top;spacingLeft=4;spacingRight=4;overflow=hidden;rotatable=0;points=[[0,0.5],[1,0.5]];portConstraint=eastwest;whiteSpace=wrap;html=1;fontColor=#ff0000;" parent="ciZr0pM28KXiDhxyGCiv-46" vertex="1">
          <mxGeometry y="52" width="170" height="26" as="geometry" />
        </mxCell>
        <mxCell id="ciZr0pM28KXiDhxyGCiv-49" value="+&amp;nbsp;&lt;span style=&quot;text-wrap: nowrap;&quot;&gt;Description: nvarchar(1000)&lt;/span&gt;" style="text;strokeColor=none;fillColor=none;align=left;verticalAlign=top;spacingLeft=4;spacingRight=4;overflow=hidden;rotatable=0;points=[[0,0.5],[1,0.5]];portConstraint=eastwest;whiteSpace=wrap;html=1;" parent="ciZr0pM28KXiDhxyGCiv-46" vertex="1">
          <mxGeometry y="78" width="170" height="26" as="geometry" />
        </mxCell>
        <mxCell id="ciZr0pM28KXiDhxyGCiv-50" value="+&amp;nbsp;&lt;span style=&quot;text-wrap: nowrap;&quot;&gt;Status: nvarchar(32)&lt;/span&gt;" style="text;strokeColor=none;fillColor=none;align=left;verticalAlign=top;spacingLeft=4;spacingRight=4;overflow=hidden;rotatable=0;points=[[0,0.5],[1,0.5]];portConstraint=eastwest;whiteSpace=wrap;html=1;" parent="ciZr0pM28KXiDhxyGCiv-46" vertex="1">
          <mxGeometry y="104" width="170" height="26" as="geometry" />
        </mxCell>
        <mxCell id="ciZr0pM28KXiDhxyGCiv-51" value="" style="line;strokeWidth=1;fillColor=none;align=left;verticalAlign=middle;spacingTop=-1;spacingLeft=3;spacingRight=3;rotatable=0;labelPosition=right;points=[];portConstraint=eastwest;strokeColor=inherit;" parent="ciZr0pM28KXiDhxyGCiv-46" vertex="1">
          <mxGeometry y="130" width="170" height="8" as="geometry" />
        </mxCell>
        <mxCell id="ciZr0pM28KXiDhxyGCiv-52" value="+ (CRUD)_Cate(): void" style="text;strokeColor=none;fillColor=none;align=left;verticalAlign=top;spacingLeft=4;spacingRight=4;overflow=hidden;rotatable=0;points=[[0,0.5],[1,0.5]];portConstraint=eastwest;whiteSpace=wrap;html=1;" parent="ciZr0pM28KXiDhxyGCiv-46" vertex="1">
          <mxGeometry y="138" width="170" height="26" as="geometry" />
        </mxCell>
        <mxCell id="ciZr0pM28KXiDhxyGCiv-53" value="CategoryDetails" style="swimlane;fontStyle=1;align=center;verticalAlign=top;childLayout=stackLayout;horizontal=1;startSize=26;horizontalStack=0;resizeParent=1;resizeParentMax=0;resizeLast=0;collapsible=1;marginBottom=0;whiteSpace=wrap;html=1;" parent="1" vertex="1">
          <mxGeometry x="1020" y="-610" width="200" height="112" as="geometry" />
        </mxCell>
        <mxCell id="ciZr0pM28KXiDhxyGCiv-54" value="+&amp;nbsp;&lt;span style=&quot;&quot;&gt;CategoryId: GUID&lt;/span&gt;" style="text;strokeColor=none;fillColor=none;align=left;verticalAlign=top;spacingLeft=4;spacingRight=4;overflow=hidden;rotatable=0;points=[[0,0.5],[1,0.5]];portConstraint=eastwest;whiteSpace=wrap;html=1;fontStyle=0;fontColor=#ff0000;" parent="ciZr0pM28KXiDhxyGCiv-53" vertex="1">
          <mxGeometry y="26" width="200" height="26" as="geometry" />
        </mxCell>
        <mxCell id="ciZr0pM28KXiDhxyGCiv-55" value="+&amp;nbsp;&lt;span style=&quot;&quot;&gt;ProductId: GUID&lt;/span&gt;" style="text;strokeColor=none;fillColor=none;align=left;verticalAlign=top;spacingLeft=4;spacingRight=4;overflow=hidden;rotatable=0;points=[[0,0.5],[1,0.5]];portConstraint=eastwest;whiteSpace=wrap;html=1;fontStyle=0;fontColor=#ff0000;" parent="ciZr0pM28KXiDhxyGCiv-53" vertex="1">
          <mxGeometry y="52" width="200" height="26" as="geometry" />
        </mxCell>
        <mxCell id="ciZr0pM28KXiDhxyGCiv-56" value="" style="line;strokeWidth=1;fillColor=none;align=left;verticalAlign=middle;spacingTop=-1;spacingLeft=3;spacingRight=3;rotatable=0;labelPosition=right;points=[];portConstraint=eastwest;strokeColor=inherit;" parent="ciZr0pM28KXiDhxyGCiv-53" vertex="1">
          <mxGeometry y="78" width="200" height="8" as="geometry" />
        </mxCell>
        <mxCell id="ciZr0pM28KXiDhxyGCiv-57" value="+ UpdateCateProduct(): void" style="text;strokeColor=none;fillColor=none;align=left;verticalAlign=top;spacingLeft=4;spacingRight=4;overflow=hidden;rotatable=0;points=[[0,0.5],[1,0.5]];portConstraint=eastwest;whiteSpace=wrap;html=1;" parent="ciZr0pM28KXiDhxyGCiv-53" vertex="1">
          <mxGeometry y="86" width="200" height="26" as="geometry" />
        </mxCell>
        <mxCell id="ciZr0pM28KXiDhxyGCiv-64" value="" style="endArrow=block;endSize=16;endFill=0;html=1;rounded=0;exitX=0.5;exitY=0;exitDx=0;exitDy=0;edgeStyle=orthogonalEdgeStyle;entryX=0.5;entryY=1;entryDx=0;entryDy=0;entryPerimeter=0;" parent="1" source="8apjI4VvJdJm8n3pOVWq-5" target="ciZr0pM28KXiDhxyGCiv-68" edge="1">
          <mxGeometry width="160" relative="1" as="geometry">
            <mxPoint x="-110" y="-540" as="sourcePoint" />
            <mxPoint x="23.333333333333485" y="-590" as="targetPoint" />
          </mxGeometry>
        </mxCell>
        <mxCell id="ciZr0pM28KXiDhxyGCiv-65" value="" style="endArrow=block;endSize=16;endFill=0;html=1;rounded=0;exitX=0.5;exitY=0;exitDx=0;exitDy=0;fontStyle=0;edgeStyle=orthogonalEdgeStyle;" parent="1" source="hHd0Z3waEogptwmeNchr-1" target="ciZr0pM28KXiDhxyGCiv-68" edge="1">
          <mxGeometry width="160" relative="1" as="geometry">
            <mxPoint x="-45" y="-410" as="sourcePoint" />
            <mxPoint x="140" y="-590" as="targetPoint" />
            <mxPoint as="offset" />
          </mxGeometry>
        </mxCell>
        <mxCell id="ciZr0pM28KXiDhxyGCiv-66" value="" style="endArrow=block;endSize=16;endFill=0;html=1;rounded=0;exitX=0.5;exitY=0;exitDx=0;exitDy=0;edgeStyle=orthogonalEdgeStyle;entryX=0.5;entryY=1;entryDx=0;entryDy=0;entryPerimeter=0;" parent="1" source="P8FBeckHNYNT2yGD4hBQ-12" target="ciZr0pM28KXiDhxyGCiv-68" edge="1">
          <mxGeometry width="160" relative="1" as="geometry">
            <mxPoint x="-240" y="-420" as="sourcePoint" />
            <mxPoint x="80" y="-590" as="targetPoint" />
          </mxGeometry>
        </mxCell>
        <mxCell id="ciZr0pM28KXiDhxyGCiv-68" value="Identity" style="shape=folder;fontStyle=1;spacingTop=10;tabWidth=40;tabHeight=14;tabPosition=left;html=1;whiteSpace=wrap;" parent="1" vertex="1">
          <mxGeometry x="45" y="-634" width="70" height="50" as="geometry" />
        </mxCell>
        <mxCell id="5JVK2UftWW_tG3GF-zrP-2" value="Upload" style="endArrow=diamondThin;endFill=0;endSize=24;html=1;rounded=0;edgeStyle=orthogonalEdgeStyle;" parent="1" source="8apjI4VvJdJm8n3pOVWq-5" target="ciZr0pM28KXiDhxyGCiv-1" edge="1">
          <mxGeometry width="160" relative="1" as="geometry">
            <mxPoint x="70" y="490" as="sourcePoint" />
            <mxPoint x="230" y="490" as="targetPoint" />
            <Array as="points">
              <mxPoint x="-260" y="310" />
            </Array>
          </mxGeometry>
        </mxCell>
        <mxCell id="5JVK2UftWW_tG3GF-zrP-3" value="Create" style="endArrow=diamondThin;endFill=0;endSize=24;html=1;rounded=0;edgeStyle=orthogonalEdgeStyle;" parent="1" source="iOtx_4MhGi3p2n4ZiA7R-120" target="DgXVLJGT-iipQnpZu61F-38" edge="1">
          <mxGeometry width="160" relative="1" as="geometry">
            <mxPoint x="-520" y="-30" as="sourcePoint" />
            <mxPoint x="-380" y="109" as="targetPoint" />
            <Array as="points">
              <mxPoint x="-590" y="50" />
              <mxPoint x="-590" y="50" />
            </Array>
          </mxGeometry>
        </mxCell>
        <mxCell id="5JVK2UftWW_tG3GF-zrP-6" value="Create" style="endArrow=diamondThin;endFill=1;endSize=24;html=1;rounded=0;edgeStyle=orthogonalEdgeStyle;" parent="1" source="8apjI4VvJdJm8n3pOVWq-5" target="iOtx_4MhGi3p2n4ZiA7R-77" edge="1">
          <mxGeometry width="160" relative="1" as="geometry">
            <mxPoint x="-600" y="-260" as="sourcePoint" />
            <mxPoint x="-440" y="-260" as="targetPoint" />
            <Array as="points">
              <mxPoint x="-420" y="-280" />
              <mxPoint x="-420" y="-280" />
            </Array>
          </mxGeometry>
        </mxCell>
        <mxCell id="5JVK2UftWW_tG3GF-zrP-7" value="Checkout" style="endArrow=diamondThin;endFill=0;endSize=24;html=1;rounded=0;edgeStyle=orthogonalEdgeStyle;" parent="1" source="8apjI4VvJdJm8n3pOVWq-5" target="DgXVLJGT-iipQnpZu61F-57" edge="1">
          <mxGeometry width="160" relative="1" as="geometry">
            <mxPoint x="230" y="17.229999999999997" as="sourcePoint" />
            <mxPoint x="-30" y="17.229999999999997" as="targetPoint" />
            <Array as="points">
              <mxPoint x="200" y="-137" />
              <mxPoint x="200" y="-137" />
            </Array>
          </mxGeometry>
        </mxCell>
        <mxCell id="5JVK2UftWW_tG3GF-zrP-8" value="Get Link" style="endArrow=diamondThin;endFill=0;endSize=24;html=1;rounded=0;edgeStyle=orthogonalEdgeStyle;" parent="1" source="ciZr0pM28KXiDhxyGCiv-33" target="ciZr0pM28KXiDhxyGCiv-1" edge="1">
          <mxGeometry width="160" relative="1" as="geometry">
            <mxPoint x="1330" y="-10" as="sourcePoint" />
            <mxPoint x="1490" y="-10" as="targetPoint" />
            <Array as="points">
              <mxPoint x="1290" y="-216" />
              <mxPoint x="1290" y="-216" />
            </Array>
          </mxGeometry>
        </mxCell>
        <mxCell id="5JVK2UftWW_tG3GF-zrP-9" value="Add Product" style="endArrow=diamondThin;endFill=0;endSize=24;html=1;rounded=0;edgeStyle=orthogonalEdgeStyle;" parent="1" source="ciZr0pM28KXiDhxyGCiv-1" target="DgXVLJGT-iipQnpZu61F-57" edge="1">
          <mxGeometry width="160" relative="1" as="geometry">
            <mxPoint x="550" y="-216.91" as="sourcePoint" />
            <mxPoint x="965" y="-216.91" as="targetPoint" />
            <Array as="points">
              <mxPoint x="880" y="-39" />
              <mxPoint x="880" y="-39" />
            </Array>
          </mxGeometry>
        </mxCell>
        <mxCell id="5JVK2UftWW_tG3GF-zrP-10" value="" style="endArrow=diamondThin;endFill=1;endSize=24;html=1;rounded=0;edgeStyle=orthogonalEdgeStyle;" parent="1" source="ciZr0pM28KXiDhxyGCiv-1" target="ciZr0pM28KXiDhxyGCiv-53" edge="1">
          <mxGeometry width="160" relative="1" as="geometry">
            <mxPoint x="870" y="-390" as="sourcePoint" />
            <mxPoint x="1030" y="-390" as="targetPoint" />
            <Array as="points">
              <mxPoint x="1120" y="-390" />
              <mxPoint x="1120" y="-390" />
            </Array>
          </mxGeometry>
        </mxCell>
        <mxCell id="5JVK2UftWW_tG3GF-zrP-11" value="" style="endArrow=diamondThin;endFill=1;endSize=24;html=1;rounded=0;edgeStyle=orthogonalEdgeStyle;" parent="1" source="ciZr0pM28KXiDhxyGCiv-46" target="ciZr0pM28KXiDhxyGCiv-53" edge="1">
          <mxGeometry width="160" relative="1" as="geometry">
            <mxPoint x="930" y="-372" as="sourcePoint" />
            <mxPoint x="933" y="-520" as="targetPoint" />
            <Array as="points">
              <mxPoint x="920" y="-554" />
              <mxPoint x="920" y="-554" />
            </Array>
          </mxGeometry>
        </mxCell>
        <mxCell id="5JVK2UftWW_tG3GF-zrP-12" value="" style="endArrow=diamondThin;endFill=1;endSize=24;html=1;rounded=0;edgeStyle=orthogonalEdgeStyle;" parent="1" source="hHd0Z3waEogptwmeNchr-1" target="P8FBeckHNYNT2yGD4hBQ-12" edge="1">
          <mxGeometry width="160" relative="1" as="geometry">
            <mxPoint x="660" y="-328" as="sourcePoint" />
            <mxPoint x="660" y="-476" as="targetPoint" />
            <Array as="points" />
          </mxGeometry>
        </mxCell>
        <mxCell id="5JVK2UftWW_tG3GF-zrP-13" value="" style="endArrow=diamondThin;endFill=1;endSize=24;html=1;rounded=0;edgeStyle=orthogonalEdgeStyle;" parent="1" source="8apjI4VvJdJm8n3pOVWq-5" target="P8FBeckHNYNT2yGD4hBQ-12" edge="1">
          <mxGeometry width="160" relative="1" as="geometry">
            <mxPoint x="130" y="-250" as="sourcePoint" />
            <mxPoint x="-70" y="-250" as="targetPoint" />
            <Array as="points">
              <mxPoint x="-90" y="-384" />
              <mxPoint x="-90" y="-384" />
            </Array>
          </mxGeometry>
        </mxCell>
      </root>
    </mxGraphModel>
  </diagram>
</mxfile>
